G04 #@! TF.GenerationSoftware,KiCad,Pcbnew,5.1.4+dfsg1-1*
G04 #@! TF.CreationDate,2019-09-21T14:15:38+01:00*
G04 #@! TF.ProjectId,arduino_duo_shield,61726475-696e-46f5-9f64-756f5f736869,rev?*
G04 #@! TF.SameCoordinates,PX6296c50PY74079d0*
G04 #@! TF.FileFunction,Other,User*
%FSLAX46Y46*%
G04 Gerber Fmt 4.6, Leading zero omitted, Abs format (unit mm)*
G04 Created by KiCad (PCBNEW 5.1.4+dfsg1-1) date 2019-09-21 14:15:38*
%MOMM*%
%LPD*%
G04 APERTURE LIST*
%ADD10C,0.050000*%
G04 APERTURE END LIST*
D10*
X20467000Y24886000D02*
X20467000Y20286000D01*
X22967000Y24886000D02*
X20467000Y24886000D01*
X22967000Y20286000D02*
X22967000Y24886000D01*
X20467000Y20286000D02*
X22967000Y20286000D01*
X5227000Y24886000D02*
X5227000Y20286000D01*
X7727000Y24886000D02*
X5227000Y24886000D01*
X7727000Y20286000D02*
X7727000Y24886000D01*
X5227000Y20286000D02*
X7727000Y20286000D01*
X7767000Y24886000D02*
X7767000Y20286000D01*
X10267000Y24886000D02*
X7767000Y24886000D01*
X10267000Y20286000D02*
X10267000Y24886000D01*
X7767000Y20286000D02*
X10267000Y20286000D01*
X10307000Y24886000D02*
X10307000Y20286000D01*
X12807000Y24886000D02*
X10307000Y24886000D01*
X12807000Y20286000D02*
X12807000Y24886000D01*
X10307000Y20286000D02*
X12807000Y20286000D01*
X12847000Y24886000D02*
X12847000Y20286000D01*
X15347000Y24886000D02*
X12847000Y24886000D01*
X15347000Y20286000D02*
X15347000Y24886000D01*
X12847000Y20286000D02*
X15347000Y20286000D01*
X15387000Y24886000D02*
X15387000Y20286000D01*
X17887000Y24886000D02*
X15387000Y24886000D01*
X17887000Y20286000D02*
X17887000Y24886000D01*
X15387000Y20286000D02*
X17887000Y20286000D01*
X17927000Y24886000D02*
X17927000Y20286000D01*
X20427000Y24886000D02*
X17927000Y24886000D01*
X20427000Y20286000D02*
X20427000Y24886000D01*
X17927000Y20286000D02*
X20427000Y20286000D01*
X17927000Y10921000D02*
X24927000Y10921000D01*
X25177000Y10671000D02*
X25177000Y1671000D01*
X24927000Y1421000D02*
X17927000Y1421000D01*
X17677000Y1671000D02*
X17677000Y10671000D01*
X25177000Y1421000D02*
X25177000Y1671000D01*
X24927000Y1421000D02*
X25177000Y1421000D01*
X17677000Y1421000D02*
X17677000Y1671000D01*
X17927000Y1421000D02*
X17677000Y1421000D01*
X17677000Y10921000D02*
X17927000Y10921000D01*
X17677000Y10671000D02*
X17677000Y10921000D01*
X25177000Y10921000D02*
X24927000Y10921000D01*
X25177000Y10671000D02*
X25177000Y10921000D01*
X47422000Y33026000D02*
X47422000Y22326000D01*
X68422000Y33026000D02*
X47422000Y33026000D01*
X68422000Y22326000D02*
X68422000Y33026000D01*
X47422000Y22326000D02*
X68422000Y22326000D01*
X20667000Y33081000D02*
X20667000Y26101000D01*
X22767000Y33081000D02*
X20667000Y33081000D01*
X22767000Y26101000D02*
X22767000Y33081000D01*
X20667000Y26101000D02*
X22767000Y26101000D01*
X20667000Y40701000D02*
X20667000Y33721000D01*
X22767000Y40701000D02*
X20667000Y40701000D01*
X22767000Y33721000D02*
X22767000Y40701000D01*
X20667000Y33721000D02*
X22767000Y33721000D01*
X5427000Y33081000D02*
X5427000Y26101000D01*
X7527000Y33081000D02*
X5427000Y33081000D01*
X7527000Y26101000D02*
X7527000Y33081000D01*
X5427000Y26101000D02*
X7527000Y26101000D01*
X5427000Y40701000D02*
X5427000Y33721000D01*
X7527000Y40701000D02*
X5427000Y40701000D01*
X7527000Y33721000D02*
X7527000Y40701000D01*
X5427000Y33721000D02*
X7527000Y33721000D01*
X7967000Y33081000D02*
X7967000Y26101000D01*
X10067000Y33081000D02*
X7967000Y33081000D01*
X10067000Y26101000D02*
X10067000Y33081000D01*
X7967000Y26101000D02*
X10067000Y26101000D01*
X7967000Y40701000D02*
X7967000Y33721000D01*
X10067000Y40701000D02*
X7967000Y40701000D01*
X10067000Y33721000D02*
X10067000Y40701000D01*
X7967000Y33721000D02*
X10067000Y33721000D01*
X10507000Y33081000D02*
X10507000Y26101000D01*
X12607000Y33081000D02*
X10507000Y33081000D01*
X12607000Y26101000D02*
X12607000Y33081000D01*
X10507000Y26101000D02*
X12607000Y26101000D01*
X10507000Y40701000D02*
X10507000Y33721000D01*
X12607000Y40701000D02*
X10507000Y40701000D01*
X12607000Y33721000D02*
X12607000Y40701000D01*
X10507000Y33721000D02*
X12607000Y33721000D01*
X13047000Y33081000D02*
X13047000Y26101000D01*
X15147000Y33081000D02*
X13047000Y33081000D01*
X15147000Y26101000D02*
X15147000Y33081000D01*
X13047000Y26101000D02*
X15147000Y26101000D01*
X13047000Y40701000D02*
X13047000Y33721000D01*
X15147000Y40701000D02*
X13047000Y40701000D01*
X15147000Y33721000D02*
X15147000Y40701000D01*
X13047000Y33721000D02*
X15147000Y33721000D01*
X15587000Y33081000D02*
X15587000Y26101000D01*
X17687000Y33081000D02*
X15587000Y33081000D01*
X17687000Y26101000D02*
X17687000Y33081000D01*
X15587000Y26101000D02*
X17687000Y26101000D01*
X15587000Y40701000D02*
X15587000Y33721000D01*
X17687000Y40701000D02*
X15587000Y40701000D01*
X17687000Y33721000D02*
X17687000Y40701000D01*
X15587000Y33721000D02*
X17687000Y33721000D01*
X18127000Y33081000D02*
X18127000Y26101000D01*
X20227000Y33081000D02*
X18127000Y33081000D01*
X20227000Y26101000D02*
X20227000Y33081000D01*
X18127000Y26101000D02*
X20227000Y26101000D01*
X18127000Y40701000D02*
X18127000Y33721000D01*
X20227000Y40701000D02*
X18127000Y40701000D01*
X20227000Y33721000D02*
X20227000Y40701000D01*
X18127000Y33721000D02*
X20227000Y33721000D01*
X69647000Y33026000D02*
X69647000Y22326000D01*
X90647000Y33026000D02*
X69647000Y33026000D01*
X90647000Y22326000D02*
X90647000Y33026000D01*
X69647000Y22326000D02*
X90647000Y22326000D01*
X27737000Y46996000D02*
X27737000Y36296000D01*
X46187000Y46996000D02*
X27737000Y46996000D01*
X46187000Y36296000D02*
X46187000Y46996000D01*
X27737000Y36296000D02*
X46187000Y36296000D01*
X27737000Y33026000D02*
X27737000Y22326000D01*
X46187000Y33026000D02*
X27737000Y33026000D01*
X46187000Y22326000D02*
X46187000Y33026000D01*
X27737000Y22326000D02*
X46187000Y22326000D01*
X22182000Y57306000D02*
X32682000Y57306000D01*
X22182000Y62216000D02*
X22182000Y57306000D01*
X32682000Y62216000D02*
X22182000Y62216000D01*
X32682000Y57306000D02*
X32682000Y62216000D01*
X19492000Y69376000D02*
X12512000Y69376000D01*
X19492000Y67276000D02*
X19492000Y69376000D01*
X12512000Y67276000D02*
X19492000Y67276000D01*
X12512000Y69376000D02*
X12512000Y67276000D01*
X16827000Y59331000D02*
X11367000Y59331000D01*
X16827000Y59331000D02*
X16827000Y64071000D01*
X11367000Y64071000D02*
X11367000Y59331000D01*
X11367000Y64071000D02*
X16827000Y64071000D01*
X73977000Y69766000D02*
X73977000Y59266000D01*
X73977000Y69766000D02*
X65977000Y69766000D01*
X65977000Y59266000D02*
X73977000Y59266000D01*
X65977000Y59266000D02*
X65977000Y69766000D01*
X73977000Y81196000D02*
X73977000Y70696000D01*
X73977000Y81196000D02*
X65977000Y81196000D01*
X65977000Y70696000D02*
X73977000Y70696000D01*
X65977000Y70696000D02*
X65977000Y81196000D01*
X42392000Y66726000D02*
X62492000Y66726000D01*
X62492000Y82626000D02*
X62492000Y66726000D01*
X42392000Y66726000D02*
X42392000Y82626000D01*
X62492000Y82626000D02*
X42392000Y82626000D01*
X1842000Y70696000D02*
X1842000Y81196000D01*
X1842000Y70696000D02*
X9842000Y70696000D01*
X9842000Y81196000D02*
X1842000Y81196000D01*
X9842000Y81196000D02*
X9842000Y70696000D01*
X1842000Y59266000D02*
X1842000Y69766000D01*
X1842000Y59266000D02*
X9842000Y59266000D01*
X9842000Y69766000D02*
X1842000Y69766000D01*
X9842000Y69766000D02*
X9842000Y59266000D01*
X36627000Y79001000D02*
X36627000Y69081000D01*
X39827000Y79001000D02*
X36627000Y79001000D01*
X39827000Y69081000D02*
X39827000Y79001000D01*
X36627000Y69081000D02*
X39827000Y69081000D01*
X12512000Y77436000D02*
X19492000Y77436000D01*
X12512000Y79536000D02*
X12512000Y77436000D01*
X19492000Y79536000D02*
X12512000Y79536000D01*
X19492000Y77436000D02*
X19492000Y79536000D01*
X19497000Y64101000D02*
X26477000Y64101000D01*
X19497000Y66201000D02*
X19497000Y64101000D01*
X26477000Y66201000D02*
X19497000Y66201000D01*
X26477000Y64101000D02*
X26477000Y66201000D01*
X30292000Y64101000D02*
X37272000Y64101000D01*
X30292000Y66201000D02*
X30292000Y64101000D01*
X37272000Y66201000D02*
X30292000Y66201000D01*
X37272000Y64101000D02*
X37272000Y66201000D01*
X12512000Y72356000D02*
X19492000Y72356000D01*
X12512000Y74456000D02*
X12512000Y72356000D01*
X19492000Y74456000D02*
X12512000Y74456000D01*
X19492000Y72356000D02*
X19492000Y74456000D01*
X61297000Y61996000D02*
G75*
G03X61297000Y61996000I-2750000J0D01*
G01*
X5102000Y51711000D02*
X1502000Y51711000D01*
X5102000Y40511000D02*
X5102000Y51711000D01*
X1502000Y40511000D02*
X5102000Y40511000D01*
X1502000Y51711000D02*
X1502000Y40511000D01*
X32322000Y82576000D02*
X22522000Y82576000D01*
X32322000Y76926000D02*
X32322000Y82576000D01*
X22522000Y76926000D02*
X32322000Y76926000D01*
X22522000Y82576000D02*
X22522000Y76926000D01*
X32322000Y74321000D02*
X22522000Y74321000D01*
X32322000Y68671000D02*
X32322000Y74321000D01*
X22522000Y68671000D02*
X32322000Y68671000D01*
X22522000Y74321000D02*
X22522000Y68671000D01*
X42792000Y60376000D02*
X52712000Y60376000D01*
X42792000Y63576000D02*
X42792000Y60376000D01*
X52712000Y63576000D02*
X42792000Y63576000D01*
X52712000Y60376000D02*
X52712000Y63576000D01*
X4677000Y18701000D02*
X4677000Y12551000D01*
X23527000Y18701000D02*
X4677000Y18701000D01*
X23527000Y12551000D02*
X23527000Y18701000D01*
X4677000Y12551000D02*
X23527000Y12551000D01*
X58652000Y16796000D02*
X58652000Y10646000D01*
X90202000Y16796000D02*
X58652000Y16796000D01*
X90202000Y10646000D02*
X90202000Y16796000D01*
X58652000Y10646000D02*
X90202000Y10646000D01*
X92230000Y5870000D02*
X98280000Y5870000D01*
X92230000Y52570000D02*
X98280000Y52570000D01*
X92230000Y5870000D02*
X92230000Y52570000D01*
X98280000Y5870000D02*
X98280000Y52570000D01*
X26190000Y4290000D02*
X26190000Y790000D01*
X47490000Y4290000D02*
X47490000Y790000D01*
X26190000Y4290000D02*
X47490000Y4290000D01*
X26190000Y790000D02*
X47490000Y790000D01*
X49050000Y4290000D02*
X49050000Y790000D01*
X70350000Y4290000D02*
X70350000Y790000D01*
X49050000Y4290000D02*
X70350000Y4290000D01*
X49050000Y790000D02*
X70350000Y790000D01*
X71910000Y4290000D02*
X71910000Y790000D01*
X93210000Y4290000D02*
X93210000Y790000D01*
X71910000Y4290000D02*
X93210000Y4290000D01*
X71910000Y790000D02*
X93210000Y790000D01*
X17046000Y52550000D02*
X17046000Y49050000D01*
X43446000Y52550000D02*
X43446000Y49050000D01*
X17046000Y52550000D02*
X43446000Y52550000D01*
X17046000Y49050000D02*
X43446000Y49050000D01*
X43970000Y52550000D02*
X43970000Y49050000D01*
X65270000Y52550000D02*
X65270000Y49050000D01*
X43970000Y52550000D02*
X65270000Y52550000D01*
X43970000Y49050000D02*
X65270000Y49050000D01*
X66830000Y52550000D02*
X66830000Y49050000D01*
X88130000Y52550000D02*
X88130000Y49050000D01*
X66830000Y52550000D02*
X88130000Y52550000D01*
X66830000Y49050000D02*
X88130000Y49050000D01*
M02*
