M48
; DRILL file {KiCad 5.1.4+dfsg1-1} date Sat Sep 21 14:16:17 2019
; FORMAT={-:-/ absolute / metric / decimal}
; #@! TF.CreationDate,2019-09-21T14:16:17+01:00
; #@! TF.GenerationSoftware,Kicad,Pcbnew,5.1.4+dfsg1-1
FMAT,2
METRIC
T1C0.400
T2C0.700
T3C0.750
T4C0.800
T5C0.900
T6C1.000
T7C1.016
T8C1.100
T9C1.300
T10C1.520
T11C3.048
%
G90
G05
T1
X49.657Y40.386
X52.832Y37.211
X56.642Y43.561
X60.452Y34.671
X63.627Y37.846
X66.279Y43.673
X66.802Y41.656
X66.914Y43.038
X69.977Y41.021
X71.247Y21.336
T2
X16.637Y32.131
X16.637Y27.051
X13.462Y78.486
X18.542Y78.486
X6.477Y39.751
X6.477Y34.671
X19.177Y32.131
X19.177Y27.051
X6.477Y32.131
X6.477Y27.051
X13.462Y68.326
X18.542Y68.326
X31.242Y65.151
X36.322Y65.151
X11.557Y32.131
X11.557Y27.051
X9.017Y39.751
X9.017Y34.671
X19.177Y39.751
X19.177Y34.671
X14.097Y32.131
X14.097Y27.051
X20.447Y65.151
X25.527Y65.151
X11.557Y39.751
X11.557Y34.671
X16.637Y39.751
X16.637Y34.671
X14.097Y39.751
X14.097Y34.671
X9.017Y32.131
X9.017Y27.051
X13.462Y73.406
X18.542Y73.406
X21.717Y32.131
X21.717Y27.051
X21.717Y39.751
X21.717Y34.671
T3
X12.827Y61.341
X14.097Y61.341
X15.367Y61.341
T4
X21.717Y23.836
X21.717Y21.336
X23.622Y81.026
X23.622Y78.486
X31.242Y81.026
X31.242Y78.486
X58.547Y63.246
X58.547Y60.746
X49.022Y31.496
X49.022Y23.876
X51.562Y31.496
X51.562Y23.876
X54.102Y31.496
X54.102Y23.876
X56.642Y31.496
X56.642Y23.876
X59.182Y31.496
X59.182Y23.876
X61.722Y31.496
X61.722Y23.876
X64.262Y31.496
X64.262Y23.876
X66.802Y31.496
X66.802Y23.876
X19.177Y23.836
X19.177Y21.336
X9.017Y23.836
X9.017Y21.336
X29.337Y45.466
X29.337Y37.846
X31.877Y45.466
X31.877Y37.846
X34.417Y45.466
X34.417Y37.846
X36.957Y45.466
X36.957Y37.846
X39.497Y45.466
X39.497Y37.846
X42.037Y45.466
X42.037Y37.846
X44.577Y45.466
X44.577Y37.846
X71.247Y31.496
X71.247Y23.876
X73.787Y31.496
X73.787Y23.876
X76.327Y31.496
X76.327Y23.876
X78.867Y31.496
X78.867Y23.876
X81.407Y31.496
X81.407Y23.876
X83.947Y31.496
X83.947Y23.876
X86.487Y31.496
X86.487Y23.876
X89.027Y31.496
X89.027Y23.876
X6.477Y23.836
X6.477Y21.336
X29.337Y31.496
X29.337Y23.876
X31.877Y31.496
X31.877Y23.876
X34.417Y31.496
X34.417Y23.876
X36.957Y31.496
X36.957Y23.876
X39.497Y31.496
X39.497Y23.876
X42.037Y31.496
X42.037Y23.876
X44.577Y31.496
X44.577Y23.876
X11.557Y23.836
X11.557Y21.336
X23.622Y72.771
X23.622Y70.231
X31.242Y72.771
X31.242Y70.231
X16.637Y23.836
X16.637Y21.336
X14.097Y23.836
X14.097Y21.336
T5
X38.227Y77.851
X38.227Y70.231
X43.942Y61.976
X51.562Y61.976
T6
X45.892Y80.626
X45.892Y68.626
X6.477Y16.891
X6.477Y14.351
X9.017Y16.891
X9.017Y14.351
X11.557Y16.891
X11.557Y14.351
X14.097Y16.891
X14.097Y14.351
X16.637Y16.891
X16.637Y14.351
X19.177Y16.891
X19.177Y14.351
X21.717Y16.891
X21.717Y14.351
X3.302Y49.911
X3.302Y47.371
X3.302Y44.831
X3.302Y42.291
X60.452Y14.986
X60.452Y12.446
X62.992Y14.986
X62.992Y12.446
X65.532Y14.986
X65.532Y12.446
X68.072Y14.986
X68.072Y12.446
X70.612Y14.986
X70.612Y12.446
X73.152Y14.986
X73.152Y12.446
X75.692Y14.986
X75.692Y12.446
X78.232Y14.986
X78.232Y12.446
X80.772Y14.986
X80.772Y12.446
X83.312Y14.986
X83.312Y12.446
X85.852Y14.986
X85.852Y12.446
X88.392Y14.986
X88.392Y12.446
T7
X73.66Y2.54
X76.2Y2.54
X78.74Y2.54
X81.28Y2.54
X83.82Y2.54
X86.36Y2.54
X88.9Y2.54
X91.44Y2.54
X50.8Y2.54
X53.34Y2.54
X55.88Y2.54
X58.42Y2.54
X60.96Y2.54
X63.5Y2.54
X66.04Y2.54
X68.58Y2.54
X18.796Y50.8
X21.336Y50.8
X23.876Y50.8
X26.416Y50.8
X28.956Y50.8
X31.496Y50.8
X34.036Y50.8
X36.576Y50.8
X39.116Y50.8
X41.656Y50.8
X93.98Y50.8
X93.98Y48.26
X93.98Y45.72
X93.98Y43.18
X93.98Y40.64
X93.98Y38.1
X93.98Y35.56
X93.98Y33.02
X93.98Y30.48
X93.98Y27.94
X93.98Y25.4
X93.98Y22.86
X93.98Y20.32
X93.98Y17.78
X93.98Y15.24
X93.98Y12.7
X93.98Y10.16
X93.98Y7.62
X96.52Y50.8
X96.52Y48.26
X96.52Y45.72
X96.52Y43.18
X96.52Y40.64
X96.52Y38.1
X96.52Y35.56
X96.52Y33.02
X96.52Y30.48
X96.52Y27.94
X96.52Y25.4
X96.52Y22.86
X96.52Y20.32
X96.52Y17.78
X96.52Y15.24
X96.52Y12.7
X96.52Y10.16
X96.52Y7.62
X68.58Y50.8
X71.12Y50.8
X73.66Y50.8
X76.2Y50.8
X78.74Y50.8
X81.28Y50.8
X83.82Y50.8
X86.36Y50.8
X27.94Y2.54
X30.48Y2.54
X33.02Y2.54
X35.56Y2.54
X38.1Y2.54
X40.64Y2.54
X43.18Y2.54
X45.72Y2.54
X45.72Y50.8
X48.26Y50.8
X50.8Y50.8
X53.34Y50.8
X55.88Y50.8
X58.42Y50.8
X60.96Y50.8
X63.5Y50.8
T8
X19.177Y9.421
X19.177Y2.921
X23.677Y9.421
X23.677Y2.921
X24.892Y60.706
X27.432Y60.706
X29.972Y60.706
T9
X43.942Y74.676
X58.092Y68.626
X58.142Y80.676
T10
X69.977Y67.056
X69.977Y61.976
X5.842Y67.056
X5.842Y61.976
X5.842Y78.486
X5.842Y73.406
X69.977Y78.486
X69.977Y73.406
T11
X72.517Y56.896
X3.302Y83.566
X3.302Y56.896
X13.97Y2.54
X66.04Y35.56
X90.17Y50.8
X66.04Y7.62
X96.52Y2.54
X72.517Y83.566
X15.24Y50.8
T0
M30
