G04 #@! TF.GenerationSoftware,KiCad,Pcbnew,5.1.4+dfsg1-1*
G04 #@! TF.CreationDate,2019-09-21T14:15:38+01:00*
G04 #@! TF.ProjectId,arduino_duo_shield,61726475-696e-46f5-9f64-756f5f736869,rev?*
G04 #@! TF.SameCoordinates,PX6296c50PY74079d0*
G04 #@! TF.FileFunction,Legend,Top*
G04 #@! TF.FilePolarity,Positive*
%FSLAX46Y46*%
G04 Gerber Fmt 4.6, Leading zero omitted, Abs format (unit mm)*
G04 Created by KiCad (PCBNEW 5.1.4+dfsg1-1) date 2019-09-21 14:15:38*
%MOMM*%
%LPD*%
G04 APERTURE LIST*
%ADD10C,0.150000*%
%ADD11C,0.120000*%
G04 APERTURE END LIST*
D10*
X28392380Y5365715D02*
X28392380Y4794286D01*
X28392380Y5080000D02*
X27392380Y5080000D01*
X27535238Y4984762D01*
X27630476Y4889524D01*
X27678095Y4794286D01*
D11*
X22772000Y24206000D02*
X22837000Y24206000D01*
X20597000Y24206000D02*
X20662000Y24206000D01*
X22772000Y20966000D02*
X22837000Y20966000D01*
X20597000Y20966000D02*
X20662000Y20966000D01*
X22837000Y20966000D02*
X22837000Y24206000D01*
X20597000Y20966000D02*
X20597000Y24206000D01*
X7532000Y24206000D02*
X7597000Y24206000D01*
X5357000Y24206000D02*
X5422000Y24206000D01*
X7532000Y20966000D02*
X7597000Y20966000D01*
X5357000Y20966000D02*
X5422000Y20966000D01*
X7597000Y20966000D02*
X7597000Y24206000D01*
X5357000Y20966000D02*
X5357000Y24206000D01*
X10072000Y24206000D02*
X10137000Y24206000D01*
X7897000Y24206000D02*
X7962000Y24206000D01*
X10072000Y20966000D02*
X10137000Y20966000D01*
X7897000Y20966000D02*
X7962000Y20966000D01*
X10137000Y20966000D02*
X10137000Y24206000D01*
X7897000Y20966000D02*
X7897000Y24206000D01*
X12612000Y24206000D02*
X12677000Y24206000D01*
X10437000Y24206000D02*
X10502000Y24206000D01*
X12612000Y20966000D02*
X12677000Y20966000D01*
X10437000Y20966000D02*
X10502000Y20966000D01*
X12677000Y20966000D02*
X12677000Y24206000D01*
X10437000Y20966000D02*
X10437000Y24206000D01*
X15152000Y24206000D02*
X15217000Y24206000D01*
X12977000Y24206000D02*
X13042000Y24206000D01*
X15152000Y20966000D02*
X15217000Y20966000D01*
X12977000Y20966000D02*
X13042000Y20966000D01*
X15217000Y20966000D02*
X15217000Y24206000D01*
X12977000Y20966000D02*
X12977000Y24206000D01*
X17692000Y24206000D02*
X17757000Y24206000D01*
X15517000Y24206000D02*
X15582000Y24206000D01*
X17692000Y20966000D02*
X17757000Y20966000D01*
X15517000Y20966000D02*
X15582000Y20966000D01*
X17757000Y20966000D02*
X17757000Y24206000D01*
X15517000Y20966000D02*
X15517000Y24206000D01*
X20232000Y24206000D02*
X20297000Y24206000D01*
X18057000Y24206000D02*
X18122000Y24206000D01*
X20232000Y20966000D02*
X20297000Y20966000D01*
X18057000Y20966000D02*
X18122000Y20966000D01*
X20297000Y20966000D02*
X20297000Y24206000D01*
X18057000Y20966000D02*
X18057000Y24206000D01*
X22177000Y9671000D02*
X20677000Y9671000D01*
X18177000Y8421000D02*
X18177000Y3921000D01*
X20677000Y2671000D02*
X22177000Y2671000D01*
X24677000Y3921000D02*
X24677000Y8421000D01*
X47632000Y32826000D02*
X47632000Y22546000D01*
X68192000Y32826000D02*
X47632000Y32826000D01*
X68192000Y22546000D02*
X68192000Y32826000D01*
X47632000Y22546000D02*
X68192000Y22546000D01*
X47692000Y30336000D02*
X47692000Y28686000D01*
X68132000Y30336000D02*
X47692000Y30336000D01*
X68132000Y25036000D02*
X68132000Y30336000D01*
X47692000Y25036000D02*
X68132000Y25036000D01*
X47692000Y26686000D02*
X47692000Y25036000D01*
X47692000Y28686000D02*
G75*
G02X47692000Y26686000I0J-1000000D01*
G01*
X22637000Y27671000D02*
X22637000Y31511000D01*
X20797000Y27671000D02*
X20797000Y31511000D01*
X22637000Y35291000D02*
X22637000Y39131000D01*
X20797000Y35291000D02*
X20797000Y39131000D01*
X7397000Y27671000D02*
X7397000Y31511000D01*
X5557000Y27671000D02*
X5557000Y31511000D01*
X7397000Y35291000D02*
X7397000Y39131000D01*
X5557000Y35291000D02*
X5557000Y39131000D01*
X9937000Y27671000D02*
X9937000Y31511000D01*
X8097000Y27671000D02*
X8097000Y31511000D01*
X9937000Y35291000D02*
X9937000Y39131000D01*
X8097000Y35291000D02*
X8097000Y39131000D01*
X12477000Y27671000D02*
X12477000Y31511000D01*
X10637000Y27671000D02*
X10637000Y31511000D01*
X12477000Y35291000D02*
X12477000Y39131000D01*
X10637000Y35291000D02*
X10637000Y39131000D01*
X15017000Y27671000D02*
X15017000Y31511000D01*
X13177000Y27671000D02*
X13177000Y31511000D01*
X15017000Y35291000D02*
X15017000Y39131000D01*
X13177000Y35291000D02*
X13177000Y39131000D01*
X17557000Y27671000D02*
X17557000Y31511000D01*
X15717000Y27671000D02*
X15717000Y31511000D01*
X17557000Y35291000D02*
X17557000Y39131000D01*
X15717000Y35291000D02*
X15717000Y39131000D01*
X20097000Y27671000D02*
X20097000Y31511000D01*
X18257000Y27671000D02*
X18257000Y31511000D01*
X20097000Y35291000D02*
X20097000Y39131000D01*
X18257000Y35291000D02*
X18257000Y39131000D01*
X69857000Y32826000D02*
X69857000Y22546000D01*
X90417000Y32826000D02*
X69857000Y32826000D01*
X90417000Y22546000D02*
X90417000Y32826000D01*
X69857000Y22546000D02*
X90417000Y22546000D01*
X69917000Y30336000D02*
X69917000Y28686000D01*
X90357000Y30336000D02*
X69917000Y30336000D01*
X90357000Y25036000D02*
X90357000Y30336000D01*
X69917000Y25036000D02*
X90357000Y25036000D01*
X69917000Y26686000D02*
X69917000Y25036000D01*
X69917000Y28686000D02*
G75*
G02X69917000Y26686000I0J-1000000D01*
G01*
X27947000Y46796000D02*
X27947000Y36516000D01*
X45967000Y46796000D02*
X27947000Y46796000D01*
X45967000Y36516000D02*
X45967000Y46796000D01*
X27947000Y36516000D02*
X45967000Y36516000D01*
X28007000Y44306000D02*
X28007000Y42656000D01*
X45907000Y44306000D02*
X28007000Y44306000D01*
X45907000Y39006000D02*
X45907000Y44306000D01*
X28007000Y39006000D02*
X45907000Y39006000D01*
X28007000Y40656000D02*
X28007000Y39006000D01*
X28007000Y42656000D02*
G75*
G02X28007000Y40656000I0J-1000000D01*
G01*
X27947000Y32826000D02*
X27947000Y22546000D01*
X45967000Y32826000D02*
X27947000Y32826000D01*
X45967000Y22546000D02*
X45967000Y32826000D01*
X27947000Y22546000D02*
X45967000Y22546000D01*
X28007000Y30336000D02*
X28007000Y28686000D01*
X45907000Y30336000D02*
X28007000Y30336000D01*
X45907000Y25036000D02*
X45907000Y30336000D01*
X28007000Y25036000D02*
X45907000Y25036000D01*
X28007000Y26686000D02*
X28007000Y25036000D01*
X28007000Y28686000D02*
G75*
G02X28007000Y26686000I0J-1000000D01*
G01*
X25581000Y57436000D02*
X25581000Y58946000D01*
X29282000Y57436000D02*
X29282000Y58946000D01*
X32552000Y58946000D02*
X22312000Y58946000D01*
X22312000Y57436000D02*
X22312000Y62077000D01*
X32552000Y57436000D02*
X32552000Y62077000D01*
X32552000Y62077000D02*
X22312000Y62077000D01*
X32552000Y57436000D02*
X22312000Y57436000D01*
X14082000Y67406000D02*
X17922000Y67406000D01*
X14082000Y69246000D02*
X17922000Y69246000D01*
X15935478Y59502522D02*
G75*
G03X14097000Y63941000I-1838478J1838478D01*
G01*
X12258522Y59502522D02*
G75*
G02X14097000Y63941000I1838478J1838478D01*
G01*
X12297000Y59491000D02*
X15897000Y59491000D01*
D10*
X74803000Y56896000D02*
G75*
G03X74803000Y56896000I-2286000J0D01*
G01*
X5588000Y56896000D02*
G75*
G03X5588000Y56896000I-2286000J0D01*
G01*
X74803000Y83566000D02*
G75*
G03X74803000Y83566000I-2286000J0D01*
G01*
X5588000Y83566000D02*
G75*
G03X5588000Y83566000I-2286000J0D01*
G01*
D11*
X73787000Y59436000D02*
X73787000Y69596000D01*
X66167000Y59436000D02*
X73787000Y59436000D01*
X66167000Y69596000D02*
X66167000Y59436000D01*
X73787000Y69596000D02*
X66167000Y69596000D01*
X72517000Y69596000D02*
X72517000Y59436000D01*
X73787000Y70866000D02*
X73787000Y81026000D01*
X66167000Y70866000D02*
X73787000Y70866000D01*
X66167000Y81026000D02*
X66167000Y70866000D01*
X73787000Y81026000D02*
X66167000Y81026000D01*
X72517000Y81026000D02*
X72517000Y70866000D01*
X51992000Y72826000D02*
X47992000Y72826000D01*
X51992000Y76426000D02*
X51992000Y72826000D01*
X47992000Y76426000D02*
X51992000Y76426000D01*
X47992000Y72826000D02*
X47992000Y76426000D01*
X51992000Y72826000D02*
X47992000Y76426000D01*
X49992000Y72826000D02*
X49992000Y68626000D01*
X49992000Y80626000D02*
X49992000Y76426000D01*
X46592000Y74626000D02*
X46592000Y71026000D01*
X53392000Y74626000D02*
X53392000Y71026000D01*
X53392000Y71026000D02*
X46592000Y71026000D01*
X54892000Y74626000D02*
X59492000Y77126000D01*
X53392000Y74626000D02*
X54892000Y74626000D01*
X49992000Y80626000D02*
X47492000Y80626000D01*
X46592000Y74626000D02*
X45792000Y74626000D01*
X47492000Y68626000D02*
X49992000Y68626000D01*
X58092000Y78876000D02*
X58092000Y76376000D01*
X58092000Y70476000D02*
X58092000Y72926000D01*
X62342000Y66876000D02*
X42542000Y66876000D01*
X62342000Y82476000D02*
X62342000Y66876000D01*
X42542000Y82476000D02*
X62342000Y82476000D01*
X42542000Y82476000D02*
X42542000Y75876000D01*
X42542000Y73476000D02*
X42542000Y66876000D01*
X2032000Y81026000D02*
X2032000Y70866000D01*
X9652000Y81026000D02*
X2032000Y81026000D01*
X9652000Y70866000D02*
X9652000Y81026000D01*
X2032000Y70866000D02*
X9652000Y70866000D01*
X3302000Y70866000D02*
X3302000Y81026000D01*
X2032000Y69596000D02*
X2032000Y59436000D01*
X9652000Y69596000D02*
X2032000Y69596000D01*
X9652000Y59436000D02*
X9652000Y69596000D01*
X2032000Y59436000D02*
X9652000Y59436000D01*
X3302000Y59436000D02*
X3302000Y69596000D01*
X36757000Y72101000D02*
X39697000Y72101000D01*
X36757000Y72341000D02*
X39697000Y72341000D01*
X36757000Y72221000D02*
X39697000Y72221000D01*
X39697000Y76761000D02*
X39367000Y76761000D01*
X39697000Y71321000D02*
X39697000Y76761000D01*
X39367000Y71321000D02*
X39697000Y71321000D01*
X36757000Y76761000D02*
X37087000Y76761000D01*
X36757000Y71321000D02*
X36757000Y76761000D01*
X37087000Y71321000D02*
X36757000Y71321000D01*
X17922000Y79406000D02*
X14082000Y79406000D01*
X17922000Y77566000D02*
X14082000Y77566000D01*
X24907000Y66071000D02*
X21067000Y66071000D01*
X24907000Y64231000D02*
X21067000Y64231000D01*
X35702000Y66071000D02*
X31862000Y66071000D01*
X35702000Y64231000D02*
X31862000Y64231000D01*
X17922000Y74326000D02*
X14082000Y74326000D01*
X17922000Y72486000D02*
X14082000Y72486000D01*
X60272000Y64550775D02*
X59772000Y64550775D01*
X60022000Y64800775D02*
X60022000Y64300775D01*
X58831000Y59395000D02*
X58263000Y59395000D01*
X59065000Y59435000D02*
X58029000Y59435000D01*
X59224000Y59475000D02*
X57870000Y59475000D01*
X59352000Y59515000D02*
X57742000Y59515000D01*
X59462000Y59555000D02*
X57632000Y59555000D01*
X59558000Y59595000D02*
X57536000Y59595000D01*
X59645000Y59635000D02*
X57449000Y59635000D01*
X59725000Y59675000D02*
X57369000Y59675000D01*
X57507000Y59715000D02*
X57296000Y59715000D01*
X59798000Y59715000D02*
X59587000Y59715000D01*
X57507000Y59755000D02*
X57228000Y59755000D01*
X59866000Y59755000D02*
X59587000Y59755000D01*
X57507000Y59795000D02*
X57164000Y59795000D01*
X59930000Y59795000D02*
X59587000Y59795000D01*
X57507000Y59835000D02*
X57104000Y59835000D01*
X59990000Y59835000D02*
X59587000Y59835000D01*
X57507000Y59875000D02*
X57047000Y59875000D01*
X60047000Y59875000D02*
X59587000Y59875000D01*
X57507000Y59915000D02*
X56993000Y59915000D01*
X60101000Y59915000D02*
X59587000Y59915000D01*
X57507000Y59955000D02*
X56942000Y59955000D01*
X60152000Y59955000D02*
X59587000Y59955000D01*
X57507000Y59995000D02*
X56894000Y59995000D01*
X60200000Y59995000D02*
X59587000Y59995000D01*
X57507000Y60035000D02*
X56848000Y60035000D01*
X60246000Y60035000D02*
X59587000Y60035000D01*
X57507000Y60075000D02*
X56804000Y60075000D01*
X60290000Y60075000D02*
X59587000Y60075000D01*
X57507000Y60115000D02*
X56762000Y60115000D01*
X60332000Y60115000D02*
X59587000Y60115000D01*
X57507000Y60155000D02*
X56721000Y60155000D01*
X60373000Y60155000D02*
X59587000Y60155000D01*
X57507000Y60195000D02*
X56683000Y60195000D01*
X60411000Y60195000D02*
X59587000Y60195000D01*
X57507000Y60235000D02*
X56646000Y60235000D01*
X60448000Y60235000D02*
X59587000Y60235000D01*
X57507000Y60275000D02*
X56610000Y60275000D01*
X60484000Y60275000D02*
X59587000Y60275000D01*
X57507000Y60315000D02*
X56576000Y60315000D01*
X60518000Y60315000D02*
X59587000Y60315000D01*
X57507000Y60355000D02*
X56543000Y60355000D01*
X60551000Y60355000D02*
X59587000Y60355000D01*
X57507000Y60395000D02*
X56512000Y60395000D01*
X60582000Y60395000D02*
X59587000Y60395000D01*
X57507000Y60435000D02*
X56482000Y60435000D01*
X60612000Y60435000D02*
X59587000Y60435000D01*
X57507000Y60475000D02*
X56452000Y60475000D01*
X60642000Y60475000D02*
X59587000Y60475000D01*
X57507000Y60515000D02*
X56425000Y60515000D01*
X60669000Y60515000D02*
X59587000Y60515000D01*
X57507000Y60555000D02*
X56398000Y60555000D01*
X60696000Y60555000D02*
X59587000Y60555000D01*
X57507000Y60595000D02*
X56372000Y60595000D01*
X60722000Y60595000D02*
X59587000Y60595000D01*
X57507000Y60635000D02*
X56347000Y60635000D01*
X60747000Y60635000D02*
X59587000Y60635000D01*
X57507000Y60675000D02*
X56323000Y60675000D01*
X60771000Y60675000D02*
X59587000Y60675000D01*
X57507000Y60715000D02*
X56300000Y60715000D01*
X60794000Y60715000D02*
X59587000Y60715000D01*
X57507000Y60755000D02*
X56279000Y60755000D01*
X60815000Y60755000D02*
X59587000Y60755000D01*
X57507000Y60795000D02*
X56257000Y60795000D01*
X60837000Y60795000D02*
X59587000Y60795000D01*
X57507000Y60835000D02*
X56237000Y60835000D01*
X60857000Y60835000D02*
X59587000Y60835000D01*
X57507000Y60875000D02*
X56218000Y60875000D01*
X60876000Y60875000D02*
X59587000Y60875000D01*
X57507000Y60915000D02*
X56199000Y60915000D01*
X60895000Y60915000D02*
X59587000Y60915000D01*
X57507000Y60955000D02*
X56182000Y60955000D01*
X60912000Y60955000D02*
X59587000Y60955000D01*
X57507000Y60995000D02*
X56165000Y60995000D01*
X60929000Y60995000D02*
X59587000Y60995000D01*
X57507000Y61035000D02*
X56149000Y61035000D01*
X60945000Y61035000D02*
X59587000Y61035000D01*
X57507000Y61075000D02*
X56133000Y61075000D01*
X60961000Y61075000D02*
X59587000Y61075000D01*
X57507000Y61115000D02*
X56119000Y61115000D01*
X60975000Y61115000D02*
X59587000Y61115000D01*
X57507000Y61155000D02*
X56105000Y61155000D01*
X60989000Y61155000D02*
X59587000Y61155000D01*
X57507000Y61195000D02*
X56092000Y61195000D01*
X61002000Y61195000D02*
X59587000Y61195000D01*
X57507000Y61235000D02*
X56079000Y61235000D01*
X61015000Y61235000D02*
X59587000Y61235000D01*
X57507000Y61275000D02*
X56067000Y61275000D01*
X61027000Y61275000D02*
X59587000Y61275000D01*
X57507000Y61316000D02*
X56056000Y61316000D01*
X61038000Y61316000D02*
X59587000Y61316000D01*
X57507000Y61356000D02*
X56046000Y61356000D01*
X61048000Y61356000D02*
X59587000Y61356000D01*
X57507000Y61396000D02*
X56036000Y61396000D01*
X61058000Y61396000D02*
X59587000Y61396000D01*
X57507000Y61436000D02*
X56027000Y61436000D01*
X61067000Y61436000D02*
X59587000Y61436000D01*
X57507000Y61476000D02*
X56019000Y61476000D01*
X61075000Y61476000D02*
X59587000Y61476000D01*
X57507000Y61516000D02*
X56011000Y61516000D01*
X61083000Y61516000D02*
X59587000Y61516000D01*
X57507000Y61556000D02*
X56004000Y61556000D01*
X61090000Y61556000D02*
X59587000Y61556000D01*
X57507000Y61596000D02*
X55997000Y61596000D01*
X61097000Y61596000D02*
X59587000Y61596000D01*
X57507000Y61636000D02*
X55991000Y61636000D01*
X61103000Y61636000D02*
X59587000Y61636000D01*
X57507000Y61676000D02*
X55986000Y61676000D01*
X61108000Y61676000D02*
X59587000Y61676000D01*
X57507000Y61716000D02*
X55982000Y61716000D01*
X61112000Y61716000D02*
X59587000Y61716000D01*
X57507000Y61756000D02*
X55978000Y61756000D01*
X61116000Y61756000D02*
X59587000Y61756000D01*
X61120000Y61796000D02*
X55974000Y61796000D01*
X61123000Y61836000D02*
X55971000Y61836000D01*
X61125000Y61876000D02*
X55969000Y61876000D01*
X61126000Y61916000D02*
X55968000Y61916000D01*
X61127000Y61956000D02*
X55967000Y61956000D01*
X61127000Y61996000D02*
X55967000Y61996000D01*
X61167000Y61996000D02*
G75*
G03X61167000Y61996000I-2620000J0D01*
G01*
X1972000Y51241000D02*
X3302000Y51241000D01*
X1972000Y49911000D02*
X1972000Y51241000D01*
X1972000Y48641000D02*
X4632000Y48641000D01*
X4632000Y48641000D02*
X4632000Y40961000D01*
X1972000Y48641000D02*
X1972000Y40961000D01*
X1972000Y40961000D02*
X4632000Y40961000D01*
X30082000Y82356000D02*
X28432000Y82356000D01*
X30082000Y77156000D02*
X30082000Y82356000D01*
X24782000Y77156000D02*
X30082000Y77156000D01*
X24782000Y82356000D02*
X24782000Y77156000D01*
X26432000Y82356000D02*
X24782000Y82356000D01*
X28432000Y82356000D02*
G75*
G02X26432000Y82356000I-1000000J0D01*
G01*
X30082000Y74101000D02*
X28432000Y74101000D01*
X30082000Y68901000D02*
X30082000Y74101000D01*
X24782000Y68901000D02*
X30082000Y68901000D01*
X24782000Y74101000D02*
X24782000Y68901000D01*
X26432000Y74101000D02*
X24782000Y74101000D01*
X28432000Y74101000D02*
G75*
G02X26432000Y74101000I-1000000J0D01*
G01*
X49692000Y60506000D02*
X49692000Y63446000D01*
X49452000Y60506000D02*
X49452000Y63446000D01*
X49572000Y60506000D02*
X49572000Y63446000D01*
X45032000Y63446000D02*
X45032000Y63116000D01*
X50472000Y63446000D02*
X45032000Y63446000D01*
X50472000Y63116000D02*
X50472000Y63446000D01*
X45032000Y60506000D02*
X45032000Y60836000D01*
X50472000Y60506000D02*
X45032000Y60506000D01*
X50472000Y60836000D02*
X50472000Y60506000D01*
X5147000Y13021000D02*
X5147000Y14351000D01*
X6477000Y13021000D02*
X5147000Y13021000D01*
X5147000Y15621000D02*
X5147000Y18221000D01*
X7747000Y15621000D02*
X5147000Y15621000D01*
X7747000Y13021000D02*
X7747000Y15621000D01*
X5147000Y18221000D02*
X23047000Y18221000D01*
X7747000Y13021000D02*
X23047000Y13021000D01*
X23047000Y13021000D02*
X23047000Y18221000D01*
X59122000Y11116000D02*
X59122000Y12446000D01*
X60452000Y11116000D02*
X59122000Y11116000D01*
X59122000Y13716000D02*
X59122000Y16316000D01*
X61722000Y13716000D02*
X59122000Y13716000D01*
X61722000Y11116000D02*
X61722000Y13716000D01*
X59122000Y16316000D02*
X89722000Y16316000D01*
X61722000Y11116000D02*
X89722000Y11116000D01*
X89722000Y11116000D02*
X89722000Y16316000D01*
D10*
X97790000Y6350000D02*
X97790000Y52070000D01*
X92710000Y52070000D02*
X92710000Y8890000D01*
X97790000Y52070000D02*
X92710000Y52070000D01*
X97790000Y6350000D02*
X95250000Y6350000D01*
X92430000Y7620000D02*
X92430000Y6070000D01*
X95250000Y6350000D02*
X95250000Y8890000D01*
X95250000Y8890000D02*
X92710000Y8890000D01*
X92430000Y6070000D02*
X93980000Y6070000D01*
X29210000Y1270000D02*
X46990000Y1270000D01*
X46990000Y1270000D02*
X46990000Y3810000D01*
X46990000Y3810000D02*
X29210000Y3810000D01*
X26390000Y990000D02*
X27940000Y990000D01*
X29210000Y1270000D02*
X29210000Y3810000D01*
X27940000Y4090000D02*
X26390000Y4090000D01*
X26390000Y4090000D02*
X26390000Y990000D01*
X52070000Y1270000D02*
X69850000Y1270000D01*
X69850000Y1270000D02*
X69850000Y3810000D01*
X69850000Y3810000D02*
X52070000Y3810000D01*
X49250000Y990000D02*
X50800000Y990000D01*
X52070000Y1270000D02*
X52070000Y3810000D01*
X50800000Y4090000D02*
X49250000Y4090000D01*
X49250000Y4090000D02*
X49250000Y990000D01*
X74930000Y1270000D02*
X92710000Y1270000D01*
X92710000Y1270000D02*
X92710000Y3810000D01*
X92710000Y3810000D02*
X74930000Y3810000D01*
X72110000Y990000D02*
X73660000Y990000D01*
X74930000Y1270000D02*
X74930000Y3810000D01*
X73660000Y4090000D02*
X72110000Y4090000D01*
X72110000Y4090000D02*
X72110000Y990000D01*
X20066000Y49530000D02*
X42926000Y49530000D01*
X42926000Y49530000D02*
X42926000Y52070000D01*
X42926000Y52070000D02*
X20066000Y52070000D01*
X17246000Y49250000D02*
X18796000Y49250000D01*
X20066000Y49530000D02*
X20066000Y52070000D01*
X18796000Y52350000D02*
X17246000Y52350000D01*
X17246000Y52350000D02*
X17246000Y49250000D01*
X46990000Y49530000D02*
X64770000Y49530000D01*
X64770000Y49530000D02*
X64770000Y52070000D01*
X64770000Y52070000D02*
X46990000Y52070000D01*
X44170000Y49250000D02*
X45720000Y49250000D01*
X46990000Y49530000D02*
X46990000Y52070000D01*
X45720000Y52350000D02*
X44170000Y52350000D01*
X44170000Y52350000D02*
X44170000Y49250000D01*
X69850000Y49530000D02*
X87630000Y49530000D01*
X87630000Y49530000D02*
X87630000Y52070000D01*
X87630000Y52070000D02*
X69850000Y52070000D01*
X67030000Y49250000D02*
X68580000Y49250000D01*
X69850000Y49530000D02*
X69850000Y52070000D01*
X68580000Y52350000D02*
X67030000Y52350000D01*
X67030000Y52350000D02*
X67030000Y49250000D01*
X16256000Y2540000D02*
G75*
G03X16256000Y2540000I-2286000J0D01*
G01*
X68326000Y7620000D02*
G75*
G03X68326000Y7620000I-2286000J0D01*
G01*
X98806000Y2540000D02*
G75*
G03X98806000Y2540000I-2286000J0D01*
G01*
X17526000Y50800000D02*
G75*
G03X17526000Y50800000I-2286000J0D01*
G01*
X68326000Y35560000D02*
G75*
G03X68326000Y35560000I-2286000J0D01*
G01*
X92456000Y50800000D02*
G75*
G03X92456000Y50800000I-2286000J0D01*
G01*
X19824142Y22419334D02*
X19871761Y22371715D01*
X19919380Y22228858D01*
X19919380Y22133620D01*
X19871761Y21990762D01*
X19776523Y21895524D01*
X19681285Y21847905D01*
X19490809Y21800286D01*
X19347952Y21800286D01*
X19157476Y21847905D01*
X19062238Y21895524D01*
X18967000Y21990762D01*
X18919380Y22133620D01*
X18919380Y22228858D01*
X18967000Y22371715D01*
X19014619Y22419334D01*
X19919380Y22895524D02*
X19919380Y23086000D01*
X19871761Y23181239D01*
X19824142Y23228858D01*
X19681285Y23324096D01*
X19490809Y23371715D01*
X19109857Y23371715D01*
X19014619Y23324096D01*
X18967000Y23276477D01*
X18919380Y23181239D01*
X18919380Y22990762D01*
X18967000Y22895524D01*
X19014619Y22847905D01*
X19109857Y22800286D01*
X19347952Y22800286D01*
X19443190Y22847905D01*
X19490809Y22895524D01*
X19538428Y22990762D01*
X19538428Y23181239D01*
X19490809Y23276477D01*
X19443190Y23324096D01*
X19347952Y23371715D01*
X4584142Y22419334D02*
X4631761Y22371715D01*
X4679380Y22228858D01*
X4679380Y22133620D01*
X4631761Y21990762D01*
X4536523Y21895524D01*
X4441285Y21847905D01*
X4250809Y21800286D01*
X4107952Y21800286D01*
X3917476Y21847905D01*
X3822238Y21895524D01*
X3727000Y21990762D01*
X3679380Y22133620D01*
X3679380Y22228858D01*
X3727000Y22371715D01*
X3774619Y22419334D01*
X3679380Y22752667D02*
X3679380Y23419334D01*
X4679380Y22990762D01*
X7124142Y22419334D02*
X7171761Y22371715D01*
X7219380Y22228858D01*
X7219380Y22133620D01*
X7171761Y21990762D01*
X7076523Y21895524D01*
X6981285Y21847905D01*
X6790809Y21800286D01*
X6647952Y21800286D01*
X6457476Y21847905D01*
X6362238Y21895524D01*
X6267000Y21990762D01*
X6219380Y22133620D01*
X6219380Y22228858D01*
X6267000Y22371715D01*
X6314619Y22419334D01*
X6219380Y23276477D02*
X6219380Y23086000D01*
X6267000Y22990762D01*
X6314619Y22943143D01*
X6457476Y22847905D01*
X6647952Y22800286D01*
X7028904Y22800286D01*
X7124142Y22847905D01*
X7171761Y22895524D01*
X7219380Y22990762D01*
X7219380Y23181239D01*
X7171761Y23276477D01*
X7124142Y23324096D01*
X7028904Y23371715D01*
X6790809Y23371715D01*
X6695571Y23324096D01*
X6647952Y23276477D01*
X6600333Y23181239D01*
X6600333Y22990762D01*
X6647952Y22895524D01*
X6695571Y22847905D01*
X6790809Y22800286D01*
X9664142Y22419334D02*
X9711761Y22371715D01*
X9759380Y22228858D01*
X9759380Y22133620D01*
X9711761Y21990762D01*
X9616523Y21895524D01*
X9521285Y21847905D01*
X9330809Y21800286D01*
X9187952Y21800286D01*
X8997476Y21847905D01*
X8902238Y21895524D01*
X8807000Y21990762D01*
X8759380Y22133620D01*
X8759380Y22228858D01*
X8807000Y22371715D01*
X8854619Y22419334D01*
X8759380Y23324096D02*
X8759380Y22847905D01*
X9235571Y22800286D01*
X9187952Y22847905D01*
X9140333Y22943143D01*
X9140333Y23181239D01*
X9187952Y23276477D01*
X9235571Y23324096D01*
X9330809Y23371715D01*
X9568904Y23371715D01*
X9664142Y23324096D01*
X9711761Y23276477D01*
X9759380Y23181239D01*
X9759380Y22943143D01*
X9711761Y22847905D01*
X9664142Y22800286D01*
X12204142Y22419334D02*
X12251761Y22371715D01*
X12299380Y22228858D01*
X12299380Y22133620D01*
X12251761Y21990762D01*
X12156523Y21895524D01*
X12061285Y21847905D01*
X11870809Y21800286D01*
X11727952Y21800286D01*
X11537476Y21847905D01*
X11442238Y21895524D01*
X11347000Y21990762D01*
X11299380Y22133620D01*
X11299380Y22228858D01*
X11347000Y22371715D01*
X11394619Y22419334D01*
X11632714Y23276477D02*
X12299380Y23276477D01*
X11251761Y23038381D02*
X11966047Y22800286D01*
X11966047Y23419334D01*
X14744142Y22419334D02*
X14791761Y22371715D01*
X14839380Y22228858D01*
X14839380Y22133620D01*
X14791761Y21990762D01*
X14696523Y21895524D01*
X14601285Y21847905D01*
X14410809Y21800286D01*
X14267952Y21800286D01*
X14077476Y21847905D01*
X13982238Y21895524D01*
X13887000Y21990762D01*
X13839380Y22133620D01*
X13839380Y22228858D01*
X13887000Y22371715D01*
X13934619Y22419334D01*
X13839380Y22752667D02*
X13839380Y23371715D01*
X14220333Y23038381D01*
X14220333Y23181239D01*
X14267952Y23276477D01*
X14315571Y23324096D01*
X14410809Y23371715D01*
X14648904Y23371715D01*
X14744142Y23324096D01*
X14791761Y23276477D01*
X14839380Y23181239D01*
X14839380Y22895524D01*
X14791761Y22800286D01*
X14744142Y22752667D01*
X17284142Y22419334D02*
X17331761Y22371715D01*
X17379380Y22228858D01*
X17379380Y22133620D01*
X17331761Y21990762D01*
X17236523Y21895524D01*
X17141285Y21847905D01*
X16950809Y21800286D01*
X16807952Y21800286D01*
X16617476Y21847905D01*
X16522238Y21895524D01*
X16427000Y21990762D01*
X16379380Y22133620D01*
X16379380Y22228858D01*
X16427000Y22371715D01*
X16474619Y22419334D01*
X16474619Y22800286D02*
X16427000Y22847905D01*
X16379380Y22943143D01*
X16379380Y23181239D01*
X16427000Y23276477D01*
X16474619Y23324096D01*
X16569857Y23371715D01*
X16665095Y23371715D01*
X16807952Y23324096D01*
X17379380Y22752667D01*
X17379380Y23371715D01*
X17581761Y4837667D02*
X17629380Y4980524D01*
X17629380Y5218620D01*
X17581761Y5313858D01*
X17534142Y5361477D01*
X17438904Y5409096D01*
X17343666Y5409096D01*
X17248428Y5361477D01*
X17200809Y5313858D01*
X17153190Y5218620D01*
X17105571Y5028143D01*
X17057952Y4932905D01*
X17010333Y4885286D01*
X16915095Y4837667D01*
X16819857Y4837667D01*
X16724619Y4885286D01*
X16677000Y4932905D01*
X16629380Y5028143D01*
X16629380Y5266239D01*
X16677000Y5409096D01*
X16629380Y5742429D02*
X17629380Y5980524D01*
X16915095Y6171000D01*
X17629380Y6361477D01*
X16629380Y6599572D01*
X17629380Y7504334D02*
X17629380Y6932905D01*
X17629380Y7218620D02*
X16629380Y7218620D01*
X16772238Y7123381D01*
X16867476Y7028143D01*
X16915095Y6932905D01*
X46144380Y26924096D02*
X46953904Y26924096D01*
X47049142Y26971715D01*
X47096761Y27019334D01*
X47144380Y27114572D01*
X47144380Y27305048D01*
X47096761Y27400286D01*
X47049142Y27447905D01*
X46953904Y27495524D01*
X46144380Y27495524D01*
X47144380Y28495524D02*
X47144380Y27924096D01*
X47144380Y28209810D02*
X46144380Y28209810D01*
X46287238Y28114572D01*
X46382476Y28019334D01*
X46430095Y27924096D01*
X20249380Y28948143D02*
X19773190Y28614810D01*
X20249380Y28376715D02*
X19249380Y28376715D01*
X19249380Y28757667D01*
X19297000Y28852905D01*
X19344619Y28900524D01*
X19439857Y28948143D01*
X19582714Y28948143D01*
X19677952Y28900524D01*
X19725571Y28852905D01*
X19773190Y28757667D01*
X19773190Y28376715D01*
X19344619Y29329096D02*
X19297000Y29376715D01*
X19249380Y29471953D01*
X19249380Y29710048D01*
X19297000Y29805286D01*
X19344619Y29852905D01*
X19439857Y29900524D01*
X19535095Y29900524D01*
X19677952Y29852905D01*
X20249380Y29281477D01*
X20249380Y29900524D01*
X19249380Y30519572D02*
X19249380Y30614810D01*
X19297000Y30710048D01*
X19344619Y30757667D01*
X19439857Y30805286D01*
X19630333Y30852905D01*
X19868428Y30852905D01*
X20058904Y30805286D01*
X20154142Y30757667D01*
X20201761Y30710048D01*
X20249380Y30614810D01*
X20249380Y30519572D01*
X20201761Y30424334D01*
X20154142Y30376715D01*
X20058904Y30329096D01*
X19868428Y30281477D01*
X19630333Y30281477D01*
X19439857Y30329096D01*
X19344619Y30376715D01*
X19297000Y30424334D01*
X19249380Y30519572D01*
X20249380Y36568143D02*
X19773190Y36234810D01*
X20249380Y35996715D02*
X19249380Y35996715D01*
X19249380Y36377667D01*
X19297000Y36472905D01*
X19344619Y36520524D01*
X19439857Y36568143D01*
X19582714Y36568143D01*
X19677952Y36520524D01*
X19725571Y36472905D01*
X19773190Y36377667D01*
X19773190Y35996715D01*
X20249380Y37520524D02*
X20249380Y36949096D01*
X20249380Y37234810D02*
X19249380Y37234810D01*
X19392238Y37139572D01*
X19487476Y37044334D01*
X19535095Y36949096D01*
X20249380Y37996715D02*
X20249380Y38187191D01*
X20201761Y38282429D01*
X20154142Y38330048D01*
X20011285Y38425286D01*
X19820809Y38472905D01*
X19439857Y38472905D01*
X19344619Y38425286D01*
X19297000Y38377667D01*
X19249380Y38282429D01*
X19249380Y38091953D01*
X19297000Y37996715D01*
X19344619Y37949096D01*
X19439857Y37901477D01*
X19677952Y37901477D01*
X19773190Y37949096D01*
X19820809Y37996715D01*
X19868428Y38091953D01*
X19868428Y38282429D01*
X19820809Y38377667D01*
X19773190Y38425286D01*
X19677952Y38472905D01*
X5009380Y28948143D02*
X4533190Y28614810D01*
X5009380Y28376715D02*
X4009380Y28376715D01*
X4009380Y28757667D01*
X4057000Y28852905D01*
X4104619Y28900524D01*
X4199857Y28948143D01*
X4342714Y28948143D01*
X4437952Y28900524D01*
X4485571Y28852905D01*
X4533190Y28757667D01*
X4533190Y28376715D01*
X5009380Y29900524D02*
X5009380Y29329096D01*
X5009380Y29614810D02*
X4009380Y29614810D01*
X4152238Y29519572D01*
X4247476Y29424334D01*
X4295095Y29329096D01*
X4342714Y30757667D02*
X5009380Y30757667D01*
X3961761Y30519572D02*
X4676047Y30281477D01*
X4676047Y30900524D01*
X5009380Y36568143D02*
X4533190Y36234810D01*
X5009380Y35996715D02*
X4009380Y35996715D01*
X4009380Y36377667D01*
X4057000Y36472905D01*
X4104619Y36520524D01*
X4199857Y36568143D01*
X4342714Y36568143D01*
X4437952Y36520524D01*
X4485571Y36472905D01*
X4533190Y36377667D01*
X4533190Y35996715D01*
X5009380Y37520524D02*
X5009380Y36949096D01*
X5009380Y37234810D02*
X4009380Y37234810D01*
X4152238Y37139572D01*
X4247476Y37044334D01*
X4295095Y36949096D01*
X4009380Y37853858D02*
X4009380Y38472905D01*
X4390333Y38139572D01*
X4390333Y38282429D01*
X4437952Y38377667D01*
X4485571Y38425286D01*
X4580809Y38472905D01*
X4818904Y38472905D01*
X4914142Y38425286D01*
X4961761Y38377667D01*
X5009380Y38282429D01*
X5009380Y37996715D01*
X4961761Y37901477D01*
X4914142Y37853858D01*
X7549380Y28948143D02*
X7073190Y28614810D01*
X7549380Y28376715D02*
X6549380Y28376715D01*
X6549380Y28757667D01*
X6597000Y28852905D01*
X6644619Y28900524D01*
X6739857Y28948143D01*
X6882714Y28948143D01*
X6977952Y28900524D01*
X7025571Y28852905D01*
X7073190Y28757667D01*
X7073190Y28376715D01*
X7549380Y29900524D02*
X7549380Y29329096D01*
X7549380Y29614810D02*
X6549380Y29614810D01*
X6692238Y29519572D01*
X6787476Y29424334D01*
X6835095Y29329096D01*
X6644619Y30281477D02*
X6597000Y30329096D01*
X6549380Y30424334D01*
X6549380Y30662429D01*
X6597000Y30757667D01*
X6644619Y30805286D01*
X6739857Y30852905D01*
X6835095Y30852905D01*
X6977952Y30805286D01*
X7549380Y30233858D01*
X7549380Y30852905D01*
X7549380Y36568143D02*
X7073190Y36234810D01*
X7549380Y35996715D02*
X6549380Y35996715D01*
X6549380Y36377667D01*
X6597000Y36472905D01*
X6644619Y36520524D01*
X6739857Y36568143D01*
X6882714Y36568143D01*
X6977952Y36520524D01*
X7025571Y36472905D01*
X7073190Y36377667D01*
X7073190Y35996715D01*
X7549380Y37520524D02*
X7549380Y36949096D01*
X7549380Y37234810D02*
X6549380Y37234810D01*
X6692238Y37139572D01*
X6787476Y37044334D01*
X6835095Y36949096D01*
X7549380Y38472905D02*
X7549380Y37901477D01*
X7549380Y38187191D02*
X6549380Y38187191D01*
X6692238Y38091953D01*
X6787476Y37996715D01*
X6835095Y37901477D01*
X10089380Y28948143D02*
X9613190Y28614810D01*
X10089380Y28376715D02*
X9089380Y28376715D01*
X9089380Y28757667D01*
X9137000Y28852905D01*
X9184619Y28900524D01*
X9279857Y28948143D01*
X9422714Y28948143D01*
X9517952Y28900524D01*
X9565571Y28852905D01*
X9613190Y28757667D01*
X9613190Y28376715D01*
X10089380Y29900524D02*
X10089380Y29329096D01*
X10089380Y29614810D02*
X9089380Y29614810D01*
X9232238Y29519572D01*
X9327476Y29424334D01*
X9375095Y29329096D01*
X9089380Y30519572D02*
X9089380Y30614810D01*
X9137000Y30710048D01*
X9184619Y30757667D01*
X9279857Y30805286D01*
X9470333Y30852905D01*
X9708428Y30852905D01*
X9898904Y30805286D01*
X9994142Y30757667D01*
X10041761Y30710048D01*
X10089380Y30614810D01*
X10089380Y30519572D01*
X10041761Y30424334D01*
X9994142Y30376715D01*
X9898904Y30329096D01*
X9708428Y30281477D01*
X9470333Y30281477D01*
X9279857Y30329096D01*
X9184619Y30376715D01*
X9137000Y30424334D01*
X9089380Y30519572D01*
X10089380Y37044334D02*
X9613190Y36711000D01*
X10089380Y36472905D02*
X9089380Y36472905D01*
X9089380Y36853858D01*
X9137000Y36949096D01*
X9184619Y36996715D01*
X9279857Y37044334D01*
X9422714Y37044334D01*
X9517952Y36996715D01*
X9565571Y36949096D01*
X9613190Y36853858D01*
X9613190Y36472905D01*
X10089380Y37520524D02*
X10089380Y37711000D01*
X10041761Y37806239D01*
X9994142Y37853858D01*
X9851285Y37949096D01*
X9660809Y37996715D01*
X9279857Y37996715D01*
X9184619Y37949096D01*
X9137000Y37901477D01*
X9089380Y37806239D01*
X9089380Y37615762D01*
X9137000Y37520524D01*
X9184619Y37472905D01*
X9279857Y37425286D01*
X9517952Y37425286D01*
X9613190Y37472905D01*
X9660809Y37520524D01*
X9708428Y37615762D01*
X9708428Y37806239D01*
X9660809Y37901477D01*
X9613190Y37949096D01*
X9517952Y37996715D01*
X12629380Y29424334D02*
X12153190Y29091000D01*
X12629380Y28852905D02*
X11629380Y28852905D01*
X11629380Y29233858D01*
X11677000Y29329096D01*
X11724619Y29376715D01*
X11819857Y29424334D01*
X11962714Y29424334D01*
X12057952Y29376715D01*
X12105571Y29329096D01*
X12153190Y29233858D01*
X12153190Y28852905D01*
X12057952Y29995762D02*
X12010333Y29900524D01*
X11962714Y29852905D01*
X11867476Y29805286D01*
X11819857Y29805286D01*
X11724619Y29852905D01*
X11677000Y29900524D01*
X11629380Y29995762D01*
X11629380Y30186239D01*
X11677000Y30281477D01*
X11724619Y30329096D01*
X11819857Y30376715D01*
X11867476Y30376715D01*
X11962714Y30329096D01*
X12010333Y30281477D01*
X12057952Y30186239D01*
X12057952Y29995762D01*
X12105571Y29900524D01*
X12153190Y29852905D01*
X12248428Y29805286D01*
X12438904Y29805286D01*
X12534142Y29852905D01*
X12581761Y29900524D01*
X12629380Y29995762D01*
X12629380Y30186239D01*
X12581761Y30281477D01*
X12534142Y30329096D01*
X12438904Y30376715D01*
X12248428Y30376715D01*
X12153190Y30329096D01*
X12105571Y30281477D01*
X12057952Y30186239D01*
X12629380Y37044334D02*
X12153190Y36711000D01*
X12629380Y36472905D02*
X11629380Y36472905D01*
X11629380Y36853858D01*
X11677000Y36949096D01*
X11724619Y36996715D01*
X11819857Y37044334D01*
X11962714Y37044334D01*
X12057952Y36996715D01*
X12105571Y36949096D01*
X12153190Y36853858D01*
X12153190Y36472905D01*
X11629380Y37377667D02*
X11629380Y38044334D01*
X12629380Y37615762D01*
X15169380Y29424334D02*
X14693190Y29091000D01*
X15169380Y28852905D02*
X14169380Y28852905D01*
X14169380Y29233858D01*
X14217000Y29329096D01*
X14264619Y29376715D01*
X14359857Y29424334D01*
X14502714Y29424334D01*
X14597952Y29376715D01*
X14645571Y29329096D01*
X14693190Y29233858D01*
X14693190Y28852905D01*
X14169380Y30281477D02*
X14169380Y30091000D01*
X14217000Y29995762D01*
X14264619Y29948143D01*
X14407476Y29852905D01*
X14597952Y29805286D01*
X14978904Y29805286D01*
X15074142Y29852905D01*
X15121761Y29900524D01*
X15169380Y29995762D01*
X15169380Y30186239D01*
X15121761Y30281477D01*
X15074142Y30329096D01*
X14978904Y30376715D01*
X14740809Y30376715D01*
X14645571Y30329096D01*
X14597952Y30281477D01*
X14550333Y30186239D01*
X14550333Y29995762D01*
X14597952Y29900524D01*
X14645571Y29852905D01*
X14740809Y29805286D01*
X15169380Y37044334D02*
X14693190Y36711000D01*
X15169380Y36472905D02*
X14169380Y36472905D01*
X14169380Y36853858D01*
X14217000Y36949096D01*
X14264619Y36996715D01*
X14359857Y37044334D01*
X14502714Y37044334D01*
X14597952Y36996715D01*
X14645571Y36949096D01*
X14693190Y36853858D01*
X14693190Y36472905D01*
X14169380Y37949096D02*
X14169380Y37472905D01*
X14645571Y37425286D01*
X14597952Y37472905D01*
X14550333Y37568143D01*
X14550333Y37806239D01*
X14597952Y37901477D01*
X14645571Y37949096D01*
X14740809Y37996715D01*
X14978904Y37996715D01*
X15074142Y37949096D01*
X15121761Y37901477D01*
X15169380Y37806239D01*
X15169380Y37568143D01*
X15121761Y37472905D01*
X15074142Y37425286D01*
X17709380Y29424334D02*
X17233190Y29091000D01*
X17709380Y28852905D02*
X16709380Y28852905D01*
X16709380Y29233858D01*
X16757000Y29329096D01*
X16804619Y29376715D01*
X16899857Y29424334D01*
X17042714Y29424334D01*
X17137952Y29376715D01*
X17185571Y29329096D01*
X17233190Y29233858D01*
X17233190Y28852905D01*
X17042714Y30281477D02*
X17709380Y30281477D01*
X16661761Y30043381D02*
X17376047Y29805286D01*
X17376047Y30424334D01*
X17709380Y37044334D02*
X17233190Y36711000D01*
X17709380Y36472905D02*
X16709380Y36472905D01*
X16709380Y36853858D01*
X16757000Y36949096D01*
X16804619Y36996715D01*
X16899857Y37044334D01*
X17042714Y37044334D01*
X17137952Y36996715D01*
X17185571Y36949096D01*
X17233190Y36853858D01*
X17233190Y36472905D01*
X16709380Y37377667D02*
X16709380Y37996715D01*
X17090333Y37663381D01*
X17090333Y37806239D01*
X17137952Y37901477D01*
X17185571Y37949096D01*
X17280809Y37996715D01*
X17518904Y37996715D01*
X17614142Y37949096D01*
X17661761Y37901477D01*
X17709380Y37806239D01*
X17709380Y37520524D01*
X17661761Y37425286D01*
X17614142Y37377667D01*
X68369380Y26924096D02*
X69178904Y26924096D01*
X69274142Y26971715D01*
X69321761Y27019334D01*
X69369380Y27114572D01*
X69369380Y27305048D01*
X69321761Y27400286D01*
X69274142Y27447905D01*
X69178904Y27495524D01*
X68369380Y27495524D01*
X68464619Y27924096D02*
X68417000Y27971715D01*
X68369380Y28066953D01*
X68369380Y28305048D01*
X68417000Y28400286D01*
X68464619Y28447905D01*
X68559857Y28495524D01*
X68655095Y28495524D01*
X68797952Y28447905D01*
X69369380Y27876477D01*
X69369380Y28495524D01*
X26459380Y40894096D02*
X27268904Y40894096D01*
X27364142Y40941715D01*
X27411761Y40989334D01*
X27459380Y41084572D01*
X27459380Y41275048D01*
X27411761Y41370286D01*
X27364142Y41417905D01*
X27268904Y41465524D01*
X26459380Y41465524D01*
X26792714Y42370286D02*
X27459380Y42370286D01*
X26411761Y42132191D02*
X27126047Y41894096D01*
X27126047Y42513143D01*
X26459380Y26924096D02*
X27268904Y26924096D01*
X27364142Y26971715D01*
X27411761Y27019334D01*
X27459380Y27114572D01*
X27459380Y27305048D01*
X27411761Y27400286D01*
X27364142Y27447905D01*
X27268904Y27495524D01*
X26459380Y27495524D01*
X26459380Y28400286D02*
X26459380Y28209810D01*
X26507000Y28114572D01*
X26554619Y28066953D01*
X26697476Y27971715D01*
X26887952Y27924096D01*
X27268904Y27924096D01*
X27364142Y27971715D01*
X27411761Y28019334D01*
X27459380Y28114572D01*
X27459380Y28305048D01*
X27411761Y28400286D01*
X27364142Y28447905D01*
X27268904Y28495524D01*
X27030809Y28495524D01*
X26935571Y28447905D01*
X26887952Y28400286D01*
X26840333Y28305048D01*
X26840333Y28114572D01*
X26887952Y28019334D01*
X26935571Y27971715D01*
X27030809Y27924096D01*
X27336761Y55888381D02*
X27241523Y55936000D01*
X27146285Y56031239D01*
X27003428Y56174096D01*
X26908190Y56221715D01*
X26812952Y56221715D01*
X26860571Y55983620D02*
X26765333Y56031239D01*
X26670095Y56126477D01*
X26622476Y56316953D01*
X26622476Y56650286D01*
X26670095Y56840762D01*
X26765333Y56936000D01*
X26860571Y56983620D01*
X27051047Y56983620D01*
X27146285Y56936000D01*
X27241523Y56840762D01*
X27289142Y56650286D01*
X27289142Y56316953D01*
X27241523Y56126477D01*
X27146285Y56031239D01*
X27051047Y55983620D01*
X26860571Y55983620D01*
X27670095Y56888381D02*
X27717714Y56936000D01*
X27812952Y56983620D01*
X28051047Y56983620D01*
X28146285Y56936000D01*
X28193904Y56888381D01*
X28241523Y56793143D01*
X28241523Y56697905D01*
X28193904Y56555048D01*
X27622476Y55983620D01*
X28241523Y55983620D01*
X15359142Y69793620D02*
X15025809Y70269810D01*
X14787714Y69793620D02*
X14787714Y70793620D01*
X15168666Y70793620D01*
X15263904Y70746000D01*
X15311523Y70698381D01*
X15359142Y70603143D01*
X15359142Y70460286D01*
X15311523Y70365048D01*
X15263904Y70317429D01*
X15168666Y70269810D01*
X14787714Y70269810D01*
X16311523Y69793620D02*
X15740095Y69793620D01*
X16025809Y69793620D02*
X16025809Y70793620D01*
X15930571Y70650762D01*
X15835333Y70555524D01*
X15740095Y70507905D01*
X16882952Y70365048D02*
X16787714Y70412667D01*
X16740095Y70460286D01*
X16692476Y70555524D01*
X16692476Y70603143D01*
X16740095Y70698381D01*
X16787714Y70746000D01*
X16882952Y70793620D01*
X17073428Y70793620D01*
X17168666Y70746000D01*
X17216285Y70698381D01*
X17263904Y70603143D01*
X17263904Y70555524D01*
X17216285Y70460286D01*
X17168666Y70412667D01*
X17073428Y70365048D01*
X16882952Y70365048D01*
X16787714Y70317429D01*
X16740095Y70269810D01*
X16692476Y70174572D01*
X16692476Y69984096D01*
X16740095Y69888858D01*
X16787714Y69841239D01*
X16882952Y69793620D01*
X17073428Y69793620D01*
X17168666Y69841239D01*
X17216285Y69888858D01*
X17263904Y69984096D01*
X17263904Y70174572D01*
X17216285Y70269810D01*
X17168666Y70317429D01*
X17073428Y70365048D01*
X14001761Y64353381D02*
X13906523Y64401000D01*
X13811285Y64496239D01*
X13668428Y64639096D01*
X13573190Y64686715D01*
X13477952Y64686715D01*
X13525571Y64448620D02*
X13430333Y64496239D01*
X13335095Y64591477D01*
X13287476Y64781953D01*
X13287476Y65115286D01*
X13335095Y65305762D01*
X13430333Y65401000D01*
X13525571Y65448620D01*
X13716047Y65448620D01*
X13811285Y65401000D01*
X13906523Y65305762D01*
X13954142Y65115286D01*
X13954142Y64781953D01*
X13906523Y64591477D01*
X13811285Y64496239D01*
X13716047Y64448620D01*
X13525571Y64448620D01*
X14906523Y64448620D02*
X14335095Y64448620D01*
X14620809Y64448620D02*
X14620809Y65448620D01*
X14525571Y65305762D01*
X14430333Y65210524D01*
X14335095Y65162905D01*
X71302714Y59491620D02*
X71302714Y60491620D01*
X71683666Y60491620D01*
X71778904Y60444000D01*
X71826523Y60396381D01*
X71874142Y60301143D01*
X71874142Y60158286D01*
X71826523Y60063048D01*
X71778904Y60015429D01*
X71683666Y59967810D01*
X71302714Y59967810D01*
X72826523Y59491620D02*
X72255095Y59491620D01*
X72540809Y59491620D02*
X72540809Y60491620D01*
X72445571Y60348762D01*
X72350333Y60253524D01*
X72255095Y60205905D01*
X73159857Y60491620D02*
X73826523Y60491620D01*
X73397952Y59491620D01*
X2087714Y59491620D02*
X2087714Y60491620D01*
X2468666Y60491620D01*
X2563904Y60444000D01*
X2611523Y60396381D01*
X2659142Y60301143D01*
X2659142Y60158286D01*
X2611523Y60063048D01*
X2563904Y60015429D01*
X2468666Y59967810D01*
X2087714Y59967810D01*
X3611523Y59491620D02*
X3040095Y59491620D01*
X3325809Y59491620D02*
X3325809Y60491620D01*
X3230571Y60348762D01*
X3135333Y60253524D01*
X3040095Y60205905D01*
X4468666Y60491620D02*
X4278190Y60491620D01*
X4182952Y60444000D01*
X4135333Y60396381D01*
X4040095Y60253524D01*
X3992476Y60063048D01*
X3992476Y59682096D01*
X4040095Y59586858D01*
X4087714Y59539239D01*
X4182952Y59491620D01*
X4373428Y59491620D01*
X4468666Y59539239D01*
X4516285Y59586858D01*
X4563904Y59682096D01*
X4563904Y59920191D01*
X4516285Y60015429D01*
X4468666Y60063048D01*
X4373428Y60110667D01*
X4182952Y60110667D01*
X4087714Y60063048D01*
X4040095Y60015429D01*
X3992476Y59920191D01*
X71302714Y86161620D02*
X71302714Y87161620D01*
X71683666Y87161620D01*
X71778904Y87114000D01*
X71826523Y87066381D01*
X71874142Y86971143D01*
X71874142Y86828286D01*
X71826523Y86733048D01*
X71778904Y86685429D01*
X71683666Y86637810D01*
X71302714Y86637810D01*
X72826523Y86161620D02*
X72255095Y86161620D01*
X72540809Y86161620D02*
X72540809Y87161620D01*
X72445571Y87018762D01*
X72350333Y86923524D01*
X72255095Y86875905D01*
X73731285Y87161620D02*
X73255095Y87161620D01*
X73207476Y86685429D01*
X73255095Y86733048D01*
X73350333Y86780667D01*
X73588428Y86780667D01*
X73683666Y86733048D01*
X73731285Y86685429D01*
X73778904Y86590191D01*
X73778904Y86352096D01*
X73731285Y86256858D01*
X73683666Y86209239D01*
X73588428Y86161620D01*
X73350333Y86161620D01*
X73255095Y86209239D01*
X73207476Y86256858D01*
X2087714Y86161620D02*
X2087714Y87161620D01*
X2468666Y87161620D01*
X2563904Y87114000D01*
X2611523Y87066381D01*
X2659142Y86971143D01*
X2659142Y86828286D01*
X2611523Y86733048D01*
X2563904Y86685429D01*
X2468666Y86637810D01*
X2087714Y86637810D01*
X3611523Y86161620D02*
X3040095Y86161620D01*
X3325809Y86161620D02*
X3325809Y87161620D01*
X3230571Y87018762D01*
X3135333Y86923524D01*
X3040095Y86875905D01*
X4468666Y86828286D02*
X4468666Y86161620D01*
X4230571Y87209239D02*
X3992476Y86494953D01*
X4611523Y86494953D01*
X64349380Y64182667D02*
X65063666Y64182667D01*
X65206523Y64135048D01*
X65301761Y64039810D01*
X65349380Y63896953D01*
X65349380Y63801715D01*
X65349380Y65182667D02*
X65349380Y64611239D01*
X65349380Y64896953D02*
X64349380Y64896953D01*
X64492238Y64801715D01*
X64587476Y64706477D01*
X64635095Y64611239D01*
X64349380Y75612667D02*
X65063666Y75612667D01*
X65206523Y75565048D01*
X65301761Y75469810D01*
X65349380Y75326953D01*
X65349380Y75231715D01*
X64349380Y75993620D02*
X64349380Y76660286D01*
X65349380Y76231715D01*
X51303904Y65023620D02*
X51303904Y66023620D01*
X51875333Y65023620D02*
X51446761Y65595048D01*
X51875333Y66023620D02*
X51303904Y65452191D01*
X52827714Y65023620D02*
X52256285Y65023620D01*
X52542000Y65023620D02*
X52542000Y66023620D01*
X52446761Y65880762D01*
X52351523Y65785524D01*
X52256285Y65737905D01*
X10374380Y75612667D02*
X11088666Y75612667D01*
X11231523Y75565048D01*
X11326761Y75469810D01*
X11374380Y75326953D01*
X11374380Y75231715D01*
X10374380Y76517429D02*
X10374380Y76326953D01*
X10422000Y76231715D01*
X10469619Y76184096D01*
X10612476Y76088858D01*
X10802952Y76041239D01*
X11183904Y76041239D01*
X11279142Y76088858D01*
X11326761Y76136477D01*
X11374380Y76231715D01*
X11374380Y76422191D01*
X11326761Y76517429D01*
X11279142Y76565048D01*
X11183904Y76612667D01*
X10945809Y76612667D01*
X10850571Y76565048D01*
X10802952Y76517429D01*
X10755333Y76422191D01*
X10755333Y76231715D01*
X10802952Y76136477D01*
X10850571Y76088858D01*
X10945809Y76041239D01*
X10374380Y64182667D02*
X11088666Y64182667D01*
X11231523Y64135048D01*
X11326761Y64039810D01*
X11374380Y63896953D01*
X11374380Y63801715D01*
X10374380Y65135048D02*
X10374380Y64658858D01*
X10850571Y64611239D01*
X10802952Y64658858D01*
X10755333Y64754096D01*
X10755333Y64992191D01*
X10802952Y65087429D01*
X10850571Y65135048D01*
X10945809Y65182667D01*
X11183904Y65182667D01*
X11279142Y65135048D01*
X11326761Y65087429D01*
X11374380Y64992191D01*
X11374380Y64754096D01*
X11326761Y64658858D01*
X11279142Y64611239D01*
X36209380Y73302905D02*
X35209380Y73302905D01*
X35209380Y73541000D01*
X35257000Y73683858D01*
X35352238Y73779096D01*
X35447476Y73826715D01*
X35637952Y73874334D01*
X35780809Y73874334D01*
X35971285Y73826715D01*
X36066523Y73779096D01*
X36161761Y73683858D01*
X36209380Y73541000D01*
X36209380Y73302905D01*
X35304619Y74255286D02*
X35257000Y74302905D01*
X35209380Y74398143D01*
X35209380Y74636239D01*
X35257000Y74731477D01*
X35304619Y74779096D01*
X35399857Y74826715D01*
X35495095Y74826715D01*
X35637952Y74779096D01*
X36209380Y74207667D01*
X36209380Y74826715D01*
X36779380Y69969096D02*
X35779380Y69969096D01*
X36779380Y70540524D02*
X36207952Y70111953D01*
X35779380Y70540524D02*
X36350809Y69969096D01*
X15359142Y76113620D02*
X15025809Y76589810D01*
X14787714Y76113620D02*
X14787714Y77113620D01*
X15168666Y77113620D01*
X15263904Y77066000D01*
X15311523Y77018381D01*
X15359142Y76923143D01*
X15359142Y76780286D01*
X15311523Y76685048D01*
X15263904Y76637429D01*
X15168666Y76589810D01*
X14787714Y76589810D01*
X16311523Y76113620D02*
X15740095Y76113620D01*
X16025809Y76113620D02*
X16025809Y77113620D01*
X15930571Y76970762D01*
X15835333Y76875524D01*
X15740095Y76827905D01*
X16644857Y77113620D02*
X17311523Y77113620D01*
X16882952Y76113620D01*
X22344142Y62778620D02*
X22010809Y63254810D01*
X21772714Y62778620D02*
X21772714Y63778620D01*
X22153666Y63778620D01*
X22248904Y63731000D01*
X22296523Y63683381D01*
X22344142Y63588143D01*
X22344142Y63445286D01*
X22296523Y63350048D01*
X22248904Y63302429D01*
X22153666Y63254810D01*
X21772714Y63254810D01*
X23296523Y62778620D02*
X22725095Y62778620D01*
X23010809Y62778620D02*
X23010809Y63778620D01*
X22915571Y63635762D01*
X22820333Y63540524D01*
X22725095Y63492905D01*
X24153666Y63778620D02*
X23963190Y63778620D01*
X23867952Y63731000D01*
X23820333Y63683381D01*
X23725095Y63540524D01*
X23677476Y63350048D01*
X23677476Y62969096D01*
X23725095Y62873858D01*
X23772714Y62826239D01*
X23867952Y62778620D01*
X24058428Y62778620D01*
X24153666Y62826239D01*
X24201285Y62873858D01*
X24248904Y62969096D01*
X24248904Y63207191D01*
X24201285Y63302429D01*
X24153666Y63350048D01*
X24058428Y63397667D01*
X23867952Y63397667D01*
X23772714Y63350048D01*
X23725095Y63302429D01*
X23677476Y63207191D01*
X33615333Y62778620D02*
X33282000Y63254810D01*
X33043904Y62778620D02*
X33043904Y63778620D01*
X33424857Y63778620D01*
X33520095Y63731000D01*
X33567714Y63683381D01*
X33615333Y63588143D01*
X33615333Y63445286D01*
X33567714Y63350048D01*
X33520095Y63302429D01*
X33424857Y63254810D01*
X33043904Y63254810D01*
X33996285Y63683381D02*
X34043904Y63731000D01*
X34139142Y63778620D01*
X34377238Y63778620D01*
X34472476Y63731000D01*
X34520095Y63683381D01*
X34567714Y63588143D01*
X34567714Y63492905D01*
X34520095Y63350048D01*
X33948666Y62778620D01*
X34567714Y62778620D01*
X15835333Y71033620D02*
X15502000Y71509810D01*
X15263904Y71033620D02*
X15263904Y72033620D01*
X15644857Y72033620D01*
X15740095Y71986000D01*
X15787714Y71938381D01*
X15835333Y71843143D01*
X15835333Y71700286D01*
X15787714Y71605048D01*
X15740095Y71557429D01*
X15644857Y71509810D01*
X15263904Y71509810D01*
X16787714Y71033620D02*
X16216285Y71033620D01*
X16502000Y71033620D02*
X16502000Y72033620D01*
X16406761Y71890762D01*
X16311523Y71795524D01*
X16216285Y71747905D01*
X62654142Y61829334D02*
X62701761Y61781715D01*
X62749380Y61638858D01*
X62749380Y61543620D01*
X62701761Y61400762D01*
X62606523Y61305524D01*
X62511285Y61257905D01*
X62320809Y61210286D01*
X62177952Y61210286D01*
X61987476Y61257905D01*
X61892238Y61305524D01*
X61797000Y61400762D01*
X61749380Y61543620D01*
X61749380Y61638858D01*
X61797000Y61781715D01*
X61844619Y61829334D01*
X62749380Y62781715D02*
X62749380Y62210286D01*
X62749380Y62496000D02*
X61749380Y62496000D01*
X61892238Y62400762D01*
X61987476Y62305524D01*
X62035095Y62210286D01*
X2968666Y52788620D02*
X2968666Y52074334D01*
X2921047Y51931477D01*
X2825809Y51836239D01*
X2682952Y51788620D01*
X2587714Y51788620D01*
X3397238Y52693381D02*
X3444857Y52741000D01*
X3540095Y52788620D01*
X3778190Y52788620D01*
X3873428Y52741000D01*
X3921047Y52693381D01*
X3968666Y52598143D01*
X3968666Y52502905D01*
X3921047Y52360048D01*
X3349619Y51788620D01*
X3968666Y51788620D01*
X26670095Y83903620D02*
X26670095Y83094096D01*
X26717714Y82998858D01*
X26765333Y82951239D01*
X26860571Y82903620D01*
X27051047Y82903620D01*
X27146285Y82951239D01*
X27193904Y82998858D01*
X27241523Y83094096D01*
X27241523Y83903620D01*
X28193904Y83903620D02*
X27717714Y83903620D01*
X27670095Y83427429D01*
X27717714Y83475048D01*
X27812952Y83522667D01*
X28051047Y83522667D01*
X28146285Y83475048D01*
X28193904Y83427429D01*
X28241523Y83332191D01*
X28241523Y83094096D01*
X28193904Y82998858D01*
X28146285Y82951239D01*
X28051047Y82903620D01*
X27812952Y82903620D01*
X27717714Y82951239D01*
X27670095Y82998858D01*
X26670095Y75648620D02*
X26670095Y74839096D01*
X26717714Y74743858D01*
X26765333Y74696239D01*
X26860571Y74648620D01*
X27051047Y74648620D01*
X27146285Y74696239D01*
X27193904Y74743858D01*
X27241523Y74839096D01*
X27241523Y75648620D01*
X27622476Y75648620D02*
X28241523Y75648620D01*
X27908190Y75267667D01*
X28051047Y75267667D01*
X28146285Y75220048D01*
X28193904Y75172429D01*
X28241523Y75077191D01*
X28241523Y74839096D01*
X28193904Y74743858D01*
X28146285Y74696239D01*
X28051047Y74648620D01*
X27765333Y74648620D01*
X27670095Y74696239D01*
X27622476Y74743858D01*
X47013904Y59053620D02*
X47013904Y60053620D01*
X47252000Y60053620D01*
X47394857Y60006000D01*
X47490095Y59910762D01*
X47537714Y59815524D01*
X47585333Y59625048D01*
X47585333Y59482191D01*
X47537714Y59291715D01*
X47490095Y59196477D01*
X47394857Y59101239D01*
X47252000Y59053620D01*
X47013904Y59053620D01*
X48537714Y59053620D02*
X47966285Y59053620D01*
X48252000Y59053620D02*
X48252000Y60053620D01*
X48156761Y59910762D01*
X48061523Y59815524D01*
X47966285Y59767905D01*
X51300095Y59623620D02*
X51300095Y60623620D01*
X51871523Y59623620D02*
X51442952Y60195048D01*
X51871523Y60623620D02*
X51300095Y60052191D01*
X3599380Y15287667D02*
X4313666Y15287667D01*
X4456523Y15240048D01*
X4551761Y15144810D01*
X4599380Y15001953D01*
X4599380Y14906715D01*
X3932714Y16192429D02*
X4599380Y16192429D01*
X3551761Y15954334D02*
X4266047Y15716239D01*
X4266047Y16335286D01*
X57574380Y13382667D02*
X58288666Y13382667D01*
X58431523Y13335048D01*
X58526761Y13239810D01*
X58574380Y13096953D01*
X58574380Y13001715D01*
X57574380Y13763620D02*
X57574380Y14382667D01*
X57955333Y14049334D01*
X57955333Y14192191D01*
X58002952Y14287429D01*
X58050571Y14335048D01*
X58145809Y14382667D01*
X58383904Y14382667D01*
X58479142Y14335048D01*
X58526761Y14287429D01*
X58574380Y14192191D01*
X58574380Y13906477D01*
X58526761Y13811239D01*
X58479142Y13763620D01*
X91638380Y27995715D02*
X90638380Y27995715D01*
X90638380Y28376667D01*
X90686000Y28471905D01*
X90733619Y28519524D01*
X90828857Y28567143D01*
X90971714Y28567143D01*
X91066952Y28519524D01*
X91114571Y28471905D01*
X91162190Y28376667D01*
X91162190Y27995715D01*
X91638380Y29519524D02*
X91638380Y28948096D01*
X91638380Y29233810D02*
X90638380Y29233810D01*
X90781238Y29138572D01*
X90876476Y29043334D01*
X90924095Y28948096D01*
X90638380Y30138572D02*
X90638380Y30233810D01*
X90686000Y30329048D01*
X90733619Y30376667D01*
X90828857Y30424286D01*
X91019333Y30471905D01*
X91257428Y30471905D01*
X91447904Y30424286D01*
X91543142Y30376667D01*
X91590761Y30329048D01*
X91638380Y30233810D01*
X91638380Y30138572D01*
X91590761Y30043334D01*
X91543142Y29995715D01*
X91447904Y29948096D01*
X91257428Y29900477D01*
X91019333Y29900477D01*
X90828857Y29948096D01*
X90733619Y29995715D01*
X90686000Y30043334D01*
X90638380Y30138572D01*
X36091904Y4881620D02*
X36091904Y5881620D01*
X36472857Y5881620D01*
X36568095Y5834000D01*
X36615714Y5786381D01*
X36663333Y5691143D01*
X36663333Y5548286D01*
X36615714Y5453048D01*
X36568095Y5405429D01*
X36472857Y5357810D01*
X36091904Y5357810D01*
X36996666Y5881620D02*
X37663333Y5881620D01*
X37234761Y4881620D01*
X58951904Y4627620D02*
X58951904Y5627620D01*
X59332857Y5627620D01*
X59428095Y5580000D01*
X59475714Y5532381D01*
X59523333Y5437143D01*
X59523333Y5294286D01*
X59475714Y5199048D01*
X59428095Y5151429D01*
X59332857Y5103810D01*
X58951904Y5103810D01*
X60094761Y5199048D02*
X59999523Y5246667D01*
X59951904Y5294286D01*
X59904285Y5389524D01*
X59904285Y5437143D01*
X59951904Y5532381D01*
X59999523Y5580000D01*
X60094761Y5627620D01*
X60285238Y5627620D01*
X60380476Y5580000D01*
X60428095Y5532381D01*
X60475714Y5437143D01*
X60475714Y5389524D01*
X60428095Y5294286D01*
X60380476Y5246667D01*
X60285238Y5199048D01*
X60094761Y5199048D01*
X59999523Y5151429D01*
X59951904Y5103810D01*
X59904285Y5008572D01*
X59904285Y4818096D01*
X59951904Y4722858D01*
X59999523Y4675239D01*
X60094761Y4627620D01*
X60285238Y4627620D01*
X60380476Y4675239D01*
X60428095Y4722858D01*
X60475714Y4818096D01*
X60475714Y5008572D01*
X60428095Y5103810D01*
X60380476Y5151429D01*
X60285238Y5199048D01*
X81811904Y4881620D02*
X81811904Y5881620D01*
X82192857Y5881620D01*
X82288095Y5834000D01*
X82335714Y5786381D01*
X82383333Y5691143D01*
X82383333Y5548286D01*
X82335714Y5453048D01*
X82288095Y5405429D01*
X82192857Y5357810D01*
X81811904Y5357810D01*
X82859523Y4881620D02*
X83050000Y4881620D01*
X83145238Y4929239D01*
X83192857Y4976858D01*
X83288095Y5119715D01*
X83335714Y5310191D01*
X83335714Y5691143D01*
X83288095Y5786381D01*
X83240476Y5834000D01*
X83145238Y5881620D01*
X82954761Y5881620D01*
X82859523Y5834000D01*
X82811904Y5786381D01*
X82764285Y5691143D01*
X82764285Y5453048D01*
X82811904Y5357810D01*
X82859523Y5310191D01*
X82954761Y5262572D01*
X83145238Y5262572D01*
X83240476Y5310191D01*
X83288095Y5357810D01*
X83335714Y5453048D01*
X29011714Y47553620D02*
X29011714Y48553620D01*
X29392666Y48553620D01*
X29487904Y48506000D01*
X29535523Y48458381D01*
X29583142Y48363143D01*
X29583142Y48220286D01*
X29535523Y48125048D01*
X29487904Y48077429D01*
X29392666Y48029810D01*
X29011714Y48029810D01*
X30535523Y47553620D02*
X29964095Y47553620D01*
X30249809Y47553620D02*
X30249809Y48553620D01*
X30154571Y48410762D01*
X30059333Y48315524D01*
X29964095Y48267905D01*
X31487904Y47553620D02*
X30916476Y47553620D01*
X31202190Y47553620D02*
X31202190Y48553620D01*
X31106952Y48410762D01*
X31011714Y48315524D01*
X30916476Y48267905D01*
X53395714Y47553620D02*
X53395714Y48553620D01*
X53776666Y48553620D01*
X53871904Y48506000D01*
X53919523Y48458381D01*
X53967142Y48363143D01*
X53967142Y48220286D01*
X53919523Y48125048D01*
X53871904Y48077429D01*
X53776666Y48029810D01*
X53395714Y48029810D01*
X54919523Y47553620D02*
X54348095Y47553620D01*
X54633809Y47553620D02*
X54633809Y48553620D01*
X54538571Y48410762D01*
X54443333Y48315524D01*
X54348095Y48267905D01*
X55300476Y48458381D02*
X55348095Y48506000D01*
X55443333Y48553620D01*
X55681428Y48553620D01*
X55776666Y48506000D01*
X55824285Y48458381D01*
X55871904Y48363143D01*
X55871904Y48267905D01*
X55824285Y48125048D01*
X55252857Y47553620D01*
X55871904Y47553620D01*
X76255714Y47553620D02*
X76255714Y48553620D01*
X76636666Y48553620D01*
X76731904Y48506000D01*
X76779523Y48458381D01*
X76827142Y48363143D01*
X76827142Y48220286D01*
X76779523Y48125048D01*
X76731904Y48077429D01*
X76636666Y48029810D01*
X76255714Y48029810D01*
X77779523Y47553620D02*
X77208095Y47553620D01*
X77493809Y47553620D02*
X77493809Y48553620D01*
X77398571Y48410762D01*
X77303333Y48315524D01*
X77208095Y48267905D01*
X78112857Y48553620D02*
X78731904Y48553620D01*
X78398571Y48172667D01*
X78541428Y48172667D01*
X78636666Y48125048D01*
X78684285Y48077429D01*
X78731904Y47982191D01*
X78731904Y47744096D01*
X78684285Y47648858D01*
X78636666Y47601239D01*
X78541428Y47553620D01*
X78255714Y47553620D01*
X78160476Y47601239D01*
X78112857Y47648858D01*
M02*
