G04 #@! TF.GenerationSoftware,KiCad,Pcbnew,5.1.5+dfsg1-2*
G04 #@! TF.CreationDate,2019-12-30T01:08:29+00:00*
G04 #@! TF.ProjectId,arduino_duo_shield,61726475-696e-46f5-9f64-756f5f736869,rev?*
G04 #@! TF.SameCoordinates,PX6258c20PY7445a00*
G04 #@! TF.FileFunction,Legend,Top*
G04 #@! TF.FilePolarity,Positive*
%FSLAX46Y46*%
G04 Gerber Fmt 4.6, Leading zero omitted, Abs format (unit mm)*
G04 Created by KiCad (PCBNEW 5.1.5+dfsg1-2) date 2019-12-30 01:08:29*
%MOMM*%
%LPD*%
G04 APERTURE LIST*
%ADD10C,0.150000*%
%ADD11C,0.120000*%
G04 APERTURE END LIST*
D10*
X16930666Y80160953D02*
X16930666Y80637143D01*
X17216380Y80065715D02*
X16216380Y80399048D01*
X17216380Y80732381D01*
X17121142Y81637143D02*
X17168761Y81589524D01*
X17216380Y81446667D01*
X17216380Y81351429D01*
X17168761Y81208572D01*
X17073523Y81113334D01*
X16978285Y81065715D01*
X16787809Y81018096D01*
X16644952Y81018096D01*
X16454476Y81065715D01*
X16359238Y81113334D01*
X16264000Y81208572D01*
X16216380Y81351429D01*
X16216380Y81446667D01*
X16264000Y81589524D01*
X16311619Y81637143D01*
X16216380Y81922858D02*
X16216380Y82494286D01*
X17216380Y82208572D02*
X16216380Y82208572D01*
X49094380Y-20676190D02*
X48094380Y-20676190D01*
X48427714Y-20342857D02*
X48427714Y-19961904D01*
X48094380Y-20200000D02*
X48951523Y-20200000D01*
X49046761Y-20152380D01*
X49094380Y-20057142D01*
X49094380Y-19961904D01*
X49094380Y-19200000D02*
X48570571Y-19200000D01*
X48475333Y-19247619D01*
X48427714Y-19342857D01*
X48427714Y-19533333D01*
X48475333Y-19628571D01*
X49046761Y-19200000D02*
X49094380Y-19295238D01*
X49094380Y-19533333D01*
X49046761Y-19628571D01*
X48951523Y-19676190D01*
X48856285Y-19676190D01*
X48761047Y-19628571D01*
X48713428Y-19533333D01*
X48713428Y-19295238D01*
X48665809Y-19200000D01*
X49094380Y-18295238D02*
X48094380Y-18295238D01*
X49046761Y-18295238D02*
X49094380Y-18390476D01*
X49094380Y-18580952D01*
X49046761Y-18676190D01*
X48999142Y-18723809D01*
X48903904Y-18771428D01*
X48618190Y-18771428D01*
X48522952Y-18723809D01*
X48475333Y-18676190D01*
X48427714Y-18580952D01*
X48427714Y-18390476D01*
X48475333Y-18295238D01*
X49094380Y-17819047D02*
X48427714Y-17819047D01*
X48094380Y-17819047D02*
X48142000Y-17866666D01*
X48189619Y-17819047D01*
X48142000Y-17771428D01*
X48094380Y-17819047D01*
X48189619Y-17819047D01*
X48427714Y-17342857D02*
X49094380Y-17342857D01*
X48522952Y-17342857D02*
X48475333Y-17295238D01*
X48427714Y-17200000D01*
X48427714Y-17057142D01*
X48475333Y-16961904D01*
X48570571Y-16914285D01*
X49094380Y-16914285D01*
X49094380Y-16009523D02*
X48570571Y-16009523D01*
X48475333Y-16057142D01*
X48427714Y-16152380D01*
X48427714Y-16342857D01*
X48475333Y-16438095D01*
X49046761Y-16009523D02*
X49094380Y-16104761D01*
X49094380Y-16342857D01*
X49046761Y-16438095D01*
X48951523Y-16485714D01*
X48856285Y-16485714D01*
X48761047Y-16438095D01*
X48713428Y-16342857D01*
X48713428Y-16104761D01*
X48665809Y-16009523D01*
X48427714Y-15533333D02*
X49094380Y-15533333D01*
X48522952Y-15533333D02*
X48475333Y-15485714D01*
X48427714Y-15390476D01*
X48427714Y-15247619D01*
X48475333Y-15152380D01*
X48570571Y-15104761D01*
X49094380Y-15104761D01*
X48427714Y-14771428D02*
X48427714Y-14390476D01*
X48094380Y-14628571D02*
X48951523Y-14628571D01*
X49046761Y-14580952D01*
X49094380Y-14485714D01*
X49094380Y-14390476D01*
X49094380Y-13628571D02*
X48570571Y-13628571D01*
X48475333Y-13676190D01*
X48427714Y-13771428D01*
X48427714Y-13961904D01*
X48475333Y-14057142D01*
X49046761Y-13628571D02*
X49094380Y-13723809D01*
X49094380Y-13961904D01*
X49046761Y-14057142D01*
X48951523Y-14104761D01*
X48856285Y-14104761D01*
X48761047Y-14057142D01*
X48713428Y-13961904D01*
X48713428Y-13723809D01*
X48665809Y-13628571D01*
X48999142Y-11819047D02*
X49046761Y-11866666D01*
X49094380Y-12009523D01*
X49094380Y-12104761D01*
X49046761Y-12247619D01*
X48951523Y-12342857D01*
X48856285Y-12390476D01*
X48665809Y-12438095D01*
X48522952Y-12438095D01*
X48332476Y-12390476D01*
X48237238Y-12342857D01*
X48142000Y-12247619D01*
X48094380Y-12104761D01*
X48094380Y-12009523D01*
X48142000Y-11866666D01*
X48189619Y-11819047D01*
X49094380Y-11390476D02*
X48094380Y-11390476D01*
X49094380Y-10819047D01*
X48094380Y-10819047D01*
X48999142Y-9771428D02*
X49046761Y-9819047D01*
X49094380Y-9961904D01*
X49094380Y-10057142D01*
X49046761Y-10200000D01*
X48951523Y-10295238D01*
X48856285Y-10342857D01*
X48665809Y-10390476D01*
X48522952Y-10390476D01*
X48332476Y-10342857D01*
X48237238Y-10295238D01*
X48142000Y-10200000D01*
X48094380Y-10057142D01*
X48094380Y-9961904D01*
X48142000Y-9819047D01*
X48189619Y-9771428D01*
X48570571Y-8247619D02*
X48618190Y-8104761D01*
X48665809Y-8057142D01*
X48761047Y-8009523D01*
X48903904Y-8009523D01*
X48999142Y-8057142D01*
X49046761Y-8104761D01*
X49094380Y-8200000D01*
X49094380Y-8580952D01*
X48094380Y-8580952D01*
X48094380Y-8247619D01*
X48142000Y-8152380D01*
X48189619Y-8104761D01*
X48284857Y-8057142D01*
X48380095Y-8057142D01*
X48475333Y-8104761D01*
X48522952Y-8152380D01*
X48570571Y-8247619D01*
X48570571Y-8580952D01*
X49094380Y-7438095D02*
X49046761Y-7533333D01*
X48999142Y-7580952D01*
X48903904Y-7628571D01*
X48618190Y-7628571D01*
X48522952Y-7580952D01*
X48475333Y-7533333D01*
X48427714Y-7438095D01*
X48427714Y-7295238D01*
X48475333Y-7200000D01*
X48522952Y-7152380D01*
X48618190Y-7104761D01*
X48903904Y-7104761D01*
X48999142Y-7152380D01*
X49046761Y-7200000D01*
X49094380Y-7295238D01*
X49094380Y-7438095D01*
X49094380Y-6247619D02*
X48570571Y-6247619D01*
X48475333Y-6295238D01*
X48427714Y-6390476D01*
X48427714Y-6580952D01*
X48475333Y-6676190D01*
X49046761Y-6247619D02*
X49094380Y-6342857D01*
X49094380Y-6580952D01*
X49046761Y-6676190D01*
X48951523Y-6723809D01*
X48856285Y-6723809D01*
X48761047Y-6676190D01*
X48713428Y-6580952D01*
X48713428Y-6342857D01*
X48665809Y-6247619D01*
X49094380Y-5771428D02*
X48427714Y-5771428D01*
X48618190Y-5771428D02*
X48522952Y-5723809D01*
X48475333Y-5676190D01*
X48427714Y-5580952D01*
X48427714Y-5485714D01*
X49094380Y-4723809D02*
X48094380Y-4723809D01*
X49046761Y-4723809D02*
X49094380Y-4819047D01*
X49094380Y-5009523D01*
X49046761Y-5104761D01*
X48999142Y-5152380D01*
X48903904Y-5200000D01*
X48618190Y-5200000D01*
X48522952Y-5152380D01*
X48475333Y-5104761D01*
X48427714Y-5009523D01*
X48427714Y-4819047D01*
X48475333Y-4723809D01*
X50077714Y-18580952D02*
X50077714Y-18200000D01*
X50744380Y-18438095D02*
X49887238Y-18438095D01*
X49792000Y-18390476D01*
X49744380Y-18295238D01*
X49744380Y-18200000D01*
X50744380Y-17723809D02*
X50696761Y-17819047D01*
X50649142Y-17866666D01*
X50553904Y-17914285D01*
X50268190Y-17914285D01*
X50172952Y-17866666D01*
X50125333Y-17819047D01*
X50077714Y-17723809D01*
X50077714Y-17580952D01*
X50125333Y-17485714D01*
X50172952Y-17438095D01*
X50268190Y-17390476D01*
X50553904Y-17390476D01*
X50649142Y-17438095D01*
X50696761Y-17485714D01*
X50744380Y-17580952D01*
X50744380Y-17723809D01*
X50744380Y-16961904D02*
X50077714Y-16961904D01*
X50268190Y-16961904D02*
X50172952Y-16914285D01*
X50125333Y-16866666D01*
X50077714Y-16771428D01*
X50077714Y-16676190D01*
X50458666Y-15628571D02*
X50458666Y-15152380D01*
X50744380Y-15723809D02*
X49744380Y-15390476D01*
X50744380Y-15057142D01*
X50744380Y-14723809D02*
X50077714Y-14723809D01*
X50268190Y-14723809D02*
X50172952Y-14676190D01*
X50125333Y-14628571D01*
X50077714Y-14533333D01*
X50077714Y-14438095D01*
X50744380Y-13676190D02*
X49744380Y-13676190D01*
X50696761Y-13676190D02*
X50744380Y-13771428D01*
X50744380Y-13961904D01*
X50696761Y-14057142D01*
X50649142Y-14104761D01*
X50553904Y-14152380D01*
X50268190Y-14152380D01*
X50172952Y-14104761D01*
X50125333Y-14057142D01*
X50077714Y-13961904D01*
X50077714Y-13771428D01*
X50125333Y-13676190D01*
X50077714Y-12771428D02*
X50744380Y-12771428D01*
X50077714Y-13200000D02*
X50601523Y-13200000D01*
X50696761Y-13152380D01*
X50744380Y-13057142D01*
X50744380Y-12914285D01*
X50696761Y-12819047D01*
X50649142Y-12771428D01*
X50744380Y-12295238D02*
X50077714Y-12295238D01*
X49744380Y-12295238D02*
X49792000Y-12342857D01*
X49839619Y-12295238D01*
X49792000Y-12247619D01*
X49744380Y-12295238D01*
X49839619Y-12295238D01*
X50077714Y-11819047D02*
X50744380Y-11819047D01*
X50172952Y-11819047D02*
X50125333Y-11771428D01*
X50077714Y-11676190D01*
X50077714Y-11533333D01*
X50125333Y-11438095D01*
X50220571Y-11390476D01*
X50744380Y-11390476D01*
X50744380Y-10771428D02*
X50696761Y-10866666D01*
X50649142Y-10914285D01*
X50553904Y-10961904D01*
X50268190Y-10961904D01*
X50172952Y-10914285D01*
X50125333Y-10866666D01*
X50077714Y-10771428D01*
X50077714Y-10628571D01*
X50125333Y-10533333D01*
X50172952Y-10485714D01*
X50268190Y-10438095D01*
X50553904Y-10438095D01*
X50649142Y-10485714D01*
X50696761Y-10533333D01*
X50744380Y-10628571D01*
X50744380Y-10771428D01*
X50744380Y-9247619D02*
X49744380Y-9247619D01*
X49744380Y-9009523D01*
X49792000Y-8866666D01*
X49887238Y-8771428D01*
X49982476Y-8723809D01*
X50172952Y-8676190D01*
X50315809Y-8676190D01*
X50506285Y-8723809D01*
X50601523Y-8771428D01*
X50696761Y-8866666D01*
X50744380Y-9009523D01*
X50744380Y-9247619D01*
X50077714Y-7819047D02*
X50744380Y-7819047D01*
X50077714Y-8247619D02*
X50601523Y-8247619D01*
X50696761Y-8200000D01*
X50744380Y-8104761D01*
X50744380Y-7961904D01*
X50696761Y-7866666D01*
X50649142Y-7819047D01*
X50696761Y-6961904D02*
X50744380Y-7057142D01*
X50744380Y-7247619D01*
X50696761Y-7342857D01*
X50601523Y-7390476D01*
X50220571Y-7390476D01*
X50125333Y-7342857D01*
X50077714Y-7247619D01*
X50077714Y-7057142D01*
X50125333Y-6961904D01*
X50220571Y-6914285D01*
X50315809Y-6914285D01*
X50411047Y-7390476D01*
X52394380Y-22580952D02*
X52394380Y-23152380D01*
X52394380Y-22866666D02*
X51394380Y-22866666D01*
X51537238Y-22961904D01*
X51632476Y-23057142D01*
X51680095Y-23152380D01*
X52299142Y-22152380D02*
X52346761Y-22104761D01*
X52394380Y-22152380D01*
X52346761Y-22200000D01*
X52299142Y-22152380D01*
X52394380Y-22152380D01*
X51394380Y-21485714D02*
X51394380Y-21390476D01*
X51442000Y-21295238D01*
X51489619Y-21247619D01*
X51584857Y-21200000D01*
X51775333Y-21152380D01*
X52013428Y-21152380D01*
X52203904Y-21200000D01*
X52299142Y-21247619D01*
X52346761Y-21295238D01*
X52394380Y-21390476D01*
X52394380Y-21485714D01*
X52346761Y-21580952D01*
X52299142Y-21628571D01*
X52203904Y-21676190D01*
X52013428Y-21723809D01*
X51775333Y-21723809D01*
X51584857Y-21676190D01*
X51489619Y-21628571D01*
X51442000Y-21580952D01*
X51394380Y-21485714D01*
X52013428Y-20723809D02*
X52013428Y-19961904D01*
X52394380Y-19057142D02*
X51870571Y-19057142D01*
X51775333Y-19104761D01*
X51727714Y-19200000D01*
X51727714Y-19390476D01*
X51775333Y-19485714D01*
X52346761Y-19057142D02*
X52394380Y-19152380D01*
X52394380Y-19390476D01*
X52346761Y-19485714D01*
X52251523Y-19533333D01*
X52156285Y-19533333D01*
X52061047Y-19485714D01*
X52013428Y-19390476D01*
X52013428Y-19152380D01*
X51965809Y-19057142D01*
X52394380Y-18438095D02*
X52346761Y-18533333D01*
X52251523Y-18580952D01*
X51394380Y-18580952D01*
X51727714Y-18057142D02*
X52727714Y-18057142D01*
X51775333Y-18057142D02*
X51727714Y-17961904D01*
X51727714Y-17771428D01*
X51775333Y-17676190D01*
X51822952Y-17628571D01*
X51918190Y-17580952D01*
X52203904Y-17580952D01*
X52299142Y-17628571D01*
X52346761Y-17676190D01*
X52394380Y-17771428D01*
X52394380Y-17961904D01*
X52346761Y-18057142D01*
X52394380Y-17152380D02*
X51394380Y-17152380D01*
X52394380Y-16723809D02*
X51870571Y-16723809D01*
X51775333Y-16771428D01*
X51727714Y-16866666D01*
X51727714Y-17009523D01*
X51775333Y-17104761D01*
X51822952Y-17152380D01*
X52394380Y-15819047D02*
X51870571Y-15819047D01*
X51775333Y-15866666D01*
X51727714Y-15961904D01*
X51727714Y-16152380D01*
X51775333Y-16247619D01*
X52346761Y-15819047D02*
X52394380Y-15914285D01*
X52394380Y-16152380D01*
X52346761Y-16247619D01*
X52251523Y-16295238D01*
X52156285Y-16295238D01*
X52061047Y-16247619D01*
X52013428Y-16152380D01*
X52013428Y-15914285D01*
X51965809Y-15819047D01*
X52013428Y-15342857D02*
X52013428Y-14580952D01*
X52394380Y-13580952D02*
X52394380Y-14152380D01*
X52394380Y-13866666D02*
X51394380Y-13866666D01*
X51537238Y-13961904D01*
X51632476Y-14057142D01*
X51680095Y-14152380D01*
X52013428Y-13152380D02*
X52013428Y-12390476D01*
X51489619Y-11961904D02*
X51442000Y-11914285D01*
X51394380Y-11819047D01*
X51394380Y-11580952D01*
X51442000Y-11485714D01*
X51489619Y-11438095D01*
X51584857Y-11390476D01*
X51680095Y-11390476D01*
X51822952Y-11438095D01*
X52394380Y-12009523D01*
X52394380Y-11390476D01*
X51394380Y-10771428D02*
X51394380Y-10676190D01*
X51442000Y-10580952D01*
X51489619Y-10533333D01*
X51584857Y-10485714D01*
X51775333Y-10438095D01*
X52013428Y-10438095D01*
X52203904Y-10485714D01*
X52299142Y-10533333D01*
X52346761Y-10580952D01*
X52394380Y-10676190D01*
X52394380Y-10771428D01*
X52346761Y-10866666D01*
X52299142Y-10914285D01*
X52203904Y-10961904D01*
X52013428Y-11009523D01*
X51775333Y-11009523D01*
X51584857Y-10961904D01*
X51489619Y-10914285D01*
X51442000Y-10866666D01*
X51394380Y-10771428D01*
X52394380Y-9485714D02*
X52394380Y-10057142D01*
X52394380Y-9771428D02*
X51394380Y-9771428D01*
X51537238Y-9866666D01*
X51632476Y-9961904D01*
X51680095Y-10057142D01*
X52394380Y-9009523D02*
X52394380Y-8819047D01*
X52346761Y-8723809D01*
X52299142Y-8676190D01*
X52156285Y-8580952D01*
X51965809Y-8533333D01*
X51584857Y-8533333D01*
X51489619Y-8580952D01*
X51442000Y-8628571D01*
X51394380Y-8723809D01*
X51394380Y-8914285D01*
X51442000Y-9009523D01*
X51489619Y-9057142D01*
X51584857Y-9104761D01*
X51822952Y-9104761D01*
X51918190Y-9057142D01*
X51965809Y-9009523D01*
X52013428Y-8914285D01*
X52013428Y-8723809D01*
X51965809Y-8628571D01*
X51918190Y-8580952D01*
X51822952Y-8533333D01*
X52013428Y-8104761D02*
X52013428Y-7342857D01*
X52394380Y-6342857D02*
X52394380Y-6914285D01*
X52394380Y-6628571D02*
X51394380Y-6628571D01*
X51537238Y-6723809D01*
X51632476Y-6819047D01*
X51680095Y-6914285D01*
X51489619Y-5961904D02*
X51442000Y-5914285D01*
X51394380Y-5819047D01*
X51394380Y-5580952D01*
X51442000Y-5485714D01*
X51489619Y-5438095D01*
X51584857Y-5390476D01*
X51680095Y-5390476D01*
X51822952Y-5438095D01*
X52394380Y-6009523D01*
X52394380Y-5390476D01*
X52013428Y-4961904D02*
X52013428Y-4200000D01*
X51489619Y-3771428D02*
X51442000Y-3723809D01*
X51394380Y-3628571D01*
X51394380Y-3390476D01*
X51442000Y-3295238D01*
X51489619Y-3247619D01*
X51584857Y-3200000D01*
X51680095Y-3200000D01*
X51822952Y-3247619D01*
X52394380Y-3819047D01*
X52394380Y-3200000D01*
X51822952Y-2628571D02*
X51775333Y-2723809D01*
X51727714Y-2771428D01*
X51632476Y-2819047D01*
X51584857Y-2819047D01*
X51489619Y-2771428D01*
X51442000Y-2723809D01*
X51394380Y-2628571D01*
X51394380Y-2438095D01*
X51442000Y-2342857D01*
X51489619Y-2295238D01*
X51584857Y-2247619D01*
X51632476Y-2247619D01*
X51727714Y-2295238D01*
X51775333Y-2342857D01*
X51822952Y-2438095D01*
X51822952Y-2628571D01*
X51870571Y-2723809D01*
X51918190Y-2771428D01*
X52013428Y-2819047D01*
X52203904Y-2819047D01*
X52299142Y-2771428D01*
X52346761Y-2723809D01*
X52394380Y-2628571D01*
X52394380Y-2438095D01*
X52346761Y-2342857D01*
X52299142Y-2295238D01*
X52203904Y-2247619D01*
X52013428Y-2247619D01*
X51918190Y-2295238D01*
X51870571Y-2342857D01*
X51822952Y-2438095D01*
X1928761Y26305143D02*
X1976380Y26448000D01*
X1976380Y26686096D01*
X1928761Y26781334D01*
X1881142Y26828953D01*
X1785904Y26876572D01*
X1690666Y26876572D01*
X1595428Y26828953D01*
X1547809Y26781334D01*
X1500190Y26686096D01*
X1452571Y26495620D01*
X1404952Y26400381D01*
X1357333Y26352762D01*
X1262095Y26305143D01*
X1166857Y26305143D01*
X1071619Y26352762D01*
X1024000Y26400381D01*
X976380Y26495620D01*
X976380Y26733715D01*
X1024000Y26876572D01*
X1976380Y27305143D02*
X1309714Y27305143D01*
X976380Y27305143D02*
X1024000Y27257524D01*
X1071619Y27305143D01*
X1024000Y27352762D01*
X976380Y27305143D01*
X1071619Y27305143D01*
X1309714Y28209905D02*
X2119238Y28209905D01*
X2214476Y28162286D01*
X2262095Y28114667D01*
X2309714Y28019429D01*
X2309714Y27876572D01*
X2262095Y27781334D01*
X1928761Y28209905D02*
X1976380Y28114667D01*
X1976380Y27924191D01*
X1928761Y27828953D01*
X1881142Y27781334D01*
X1785904Y27733715D01*
X1500190Y27733715D01*
X1404952Y27781334D01*
X1357333Y27828953D01*
X1309714Y27924191D01*
X1309714Y28114667D01*
X1357333Y28209905D01*
X1309714Y28686096D02*
X1976380Y28686096D01*
X1404952Y28686096D02*
X1357333Y28733715D01*
X1309714Y28828953D01*
X1309714Y28971810D01*
X1357333Y29067048D01*
X1452571Y29114667D01*
X1976380Y29114667D01*
X1976380Y30019429D02*
X1452571Y30019429D01*
X1357333Y29971810D01*
X1309714Y29876572D01*
X1309714Y29686096D01*
X1357333Y29590858D01*
X1928761Y30019429D02*
X1976380Y29924191D01*
X1976380Y29686096D01*
X1928761Y29590858D01*
X1833523Y29543239D01*
X1738285Y29543239D01*
X1643047Y29590858D01*
X1595428Y29686096D01*
X1595428Y29924191D01*
X1547809Y30019429D01*
X1976380Y30638477D02*
X1928761Y30543239D01*
X1833523Y30495620D01*
X976380Y30495620D01*
X1928761Y-14834857D02*
X1976380Y-14692000D01*
X1976380Y-14453904D01*
X1928761Y-14358666D01*
X1881142Y-14311047D01*
X1785904Y-14263428D01*
X1690666Y-14263428D01*
X1595428Y-14311047D01*
X1547809Y-14358666D01*
X1500190Y-14453904D01*
X1452571Y-14644380D01*
X1404952Y-14739619D01*
X1357333Y-14787238D01*
X1262095Y-14834857D01*
X1166857Y-14834857D01*
X1071619Y-14787238D01*
X1024000Y-14739619D01*
X976380Y-14644380D01*
X976380Y-14406285D01*
X1024000Y-14263428D01*
X1309714Y-13977714D02*
X1309714Y-13596761D01*
X976380Y-13834857D02*
X1833523Y-13834857D01*
X1928761Y-13787238D01*
X1976380Y-13692000D01*
X1976380Y-13596761D01*
X1928761Y-12882476D02*
X1976380Y-12977714D01*
X1976380Y-13168190D01*
X1928761Y-13263428D01*
X1833523Y-13311047D01*
X1452571Y-13311047D01*
X1357333Y-13263428D01*
X1309714Y-13168190D01*
X1309714Y-12977714D01*
X1357333Y-12882476D01*
X1452571Y-12834857D01*
X1547809Y-12834857D01*
X1643047Y-13311047D01*
X1309714Y-12406285D02*
X2309714Y-12406285D01*
X1357333Y-12406285D02*
X1309714Y-12311047D01*
X1309714Y-12120571D01*
X1357333Y-12025333D01*
X1404952Y-11977714D01*
X1500190Y-11930095D01*
X1785904Y-11930095D01*
X1881142Y-11977714D01*
X1928761Y-12025333D01*
X1976380Y-12120571D01*
X1976380Y-12311047D01*
X1928761Y-12406285D01*
X1309714Y-11501523D02*
X2309714Y-11501523D01*
X1357333Y-11501523D02*
X1309714Y-11406285D01*
X1309714Y-11215809D01*
X1357333Y-11120571D01*
X1404952Y-11072952D01*
X1500190Y-11025333D01*
X1785904Y-11025333D01*
X1881142Y-11072952D01*
X1928761Y-11120571D01*
X1976380Y-11215809D01*
X1976380Y-11406285D01*
X1928761Y-11501523D01*
X1928761Y-10215809D02*
X1976380Y-10311047D01*
X1976380Y-10501523D01*
X1928761Y-10596761D01*
X1833523Y-10644380D01*
X1452571Y-10644380D01*
X1357333Y-10596761D01*
X1309714Y-10501523D01*
X1309714Y-10311047D01*
X1357333Y-10215809D01*
X1452571Y-10168190D01*
X1547809Y-10168190D01*
X1643047Y-10644380D01*
X1976380Y-9739619D02*
X1309714Y-9739619D01*
X1500190Y-9739619D02*
X1404952Y-9692000D01*
X1357333Y-9644380D01*
X1309714Y-9549142D01*
X1309714Y-9453904D01*
X1928761Y79724572D02*
X1976380Y79867429D01*
X1976380Y80105524D01*
X1928761Y80200762D01*
X1881142Y80248381D01*
X1785904Y80296000D01*
X1690666Y80296000D01*
X1595428Y80248381D01*
X1547809Y80200762D01*
X1500190Y80105524D01*
X1452571Y79915048D01*
X1404952Y79819810D01*
X1357333Y79772191D01*
X1262095Y79724572D01*
X1166857Y79724572D01*
X1071619Y79772191D01*
X1024000Y79819810D01*
X976380Y79915048D01*
X976380Y80153143D01*
X1024000Y80296000D01*
X1309714Y80724572D02*
X2309714Y80724572D01*
X1357333Y80724572D02*
X1309714Y80819810D01*
X1309714Y81010286D01*
X1357333Y81105524D01*
X1404952Y81153143D01*
X1500190Y81200762D01*
X1785904Y81200762D01*
X1881142Y81153143D01*
X1928761Y81105524D01*
X1976380Y81010286D01*
X1976380Y80819810D01*
X1928761Y80724572D01*
X1976380Y81629334D02*
X1309714Y81629334D01*
X976380Y81629334D02*
X1024000Y81581715D01*
X1071619Y81629334D01*
X1024000Y81676953D01*
X976380Y81629334D01*
X1071619Y81629334D01*
X1309714Y82105524D02*
X1976380Y82105524D01*
X1404952Y82105524D02*
X1357333Y82153143D01*
X1309714Y82248381D01*
X1309714Y82391239D01*
X1357333Y82486477D01*
X1452571Y82534096D01*
X1976380Y82534096D01*
X1976380Y83438858D02*
X976380Y83438858D01*
X1928761Y83438858D02*
X1976380Y83343620D01*
X1976380Y83153143D01*
X1928761Y83057905D01*
X1881142Y83010286D01*
X1785904Y82962667D01*
X1500190Y82962667D01*
X1404952Y83010286D01*
X1357333Y83057905D01*
X1309714Y83153143D01*
X1309714Y83343620D01*
X1357333Y83438858D01*
X1976380Y84057905D02*
X1928761Y83962667D01*
X1833523Y83915048D01*
X976380Y83915048D01*
X1928761Y84819810D02*
X1976380Y84724572D01*
X1976380Y84534096D01*
X1928761Y84438858D01*
X1833523Y84391239D01*
X1452571Y84391239D01*
X1357333Y84438858D01*
X1309714Y84534096D01*
X1309714Y84724572D01*
X1357333Y84819810D01*
X1452571Y84867429D01*
X1547809Y84867429D01*
X1643047Y84391239D01*
X91384380Y-15176190D02*
X90717714Y-15176190D01*
X90812952Y-15176190D02*
X90765333Y-15128571D01*
X90717714Y-15033333D01*
X90717714Y-14890476D01*
X90765333Y-14795238D01*
X90860571Y-14747619D01*
X91384380Y-14747619D01*
X90860571Y-14747619D02*
X90765333Y-14700000D01*
X90717714Y-14604761D01*
X90717714Y-14461904D01*
X90765333Y-14366666D01*
X90860571Y-14319047D01*
X91384380Y-14319047D01*
X90717714Y-13414285D02*
X91384380Y-13414285D01*
X90336761Y-13652380D02*
X91051047Y-13890476D01*
X91051047Y-13271428D01*
X91336761Y-12938095D02*
X91384380Y-12842857D01*
X91384380Y-12652380D01*
X91336761Y-12557142D01*
X91241523Y-12509523D01*
X91193904Y-12509523D01*
X91098666Y-12557142D01*
X91051047Y-12652380D01*
X91051047Y-12795238D01*
X91003428Y-12890476D01*
X90908190Y-12938095D01*
X90860571Y-12938095D01*
X90765333Y-12890476D01*
X90717714Y-12795238D01*
X90717714Y-12652380D01*
X90765333Y-12557142D01*
X90717714Y-12223809D02*
X90717714Y-11842857D01*
X90384380Y-12080952D02*
X91241523Y-12080952D01*
X91336761Y-12033333D01*
X91384380Y-11938095D01*
X91384380Y-11842857D01*
X91336761Y-11128571D02*
X91384380Y-11223809D01*
X91384380Y-11414285D01*
X91336761Y-11509523D01*
X91241523Y-11557142D01*
X90860571Y-11557142D01*
X90765333Y-11509523D01*
X90717714Y-11414285D01*
X90717714Y-11223809D01*
X90765333Y-11128571D01*
X90860571Y-11080952D01*
X90955809Y-11080952D01*
X91051047Y-11557142D01*
X90717714Y-10652380D02*
X91717714Y-10652380D01*
X90765333Y-10652380D02*
X90717714Y-10557142D01*
X90717714Y-10366666D01*
X90765333Y-10271428D01*
X90812952Y-10223809D01*
X90908190Y-10176190D01*
X91193904Y-10176190D01*
X91289142Y-10223809D01*
X91336761Y-10271428D01*
X91384380Y-10366666D01*
X91384380Y-10557142D01*
X91336761Y-10652380D01*
X88844380Y-14604761D02*
X88177714Y-14604761D01*
X88272952Y-14604761D02*
X88225333Y-14557142D01*
X88177714Y-14461904D01*
X88177714Y-14319047D01*
X88225333Y-14223809D01*
X88320571Y-14176190D01*
X88844380Y-14176190D01*
X88320571Y-14176190D02*
X88225333Y-14128571D01*
X88177714Y-14033333D01*
X88177714Y-13890476D01*
X88225333Y-13795238D01*
X88320571Y-13747619D01*
X88844380Y-13747619D01*
X88177714Y-12842857D02*
X88844380Y-12842857D01*
X87796761Y-13080952D02*
X88511047Y-13319047D01*
X88511047Y-12700000D01*
X88844380Y-11890476D02*
X87844380Y-11890476D01*
X88796761Y-11890476D02*
X88844380Y-11985714D01*
X88844380Y-12176190D01*
X88796761Y-12271428D01*
X88749142Y-12319047D01*
X88653904Y-12366666D01*
X88368190Y-12366666D01*
X88272952Y-12319047D01*
X88225333Y-12271428D01*
X88177714Y-12176190D01*
X88177714Y-11985714D01*
X88225333Y-11890476D01*
X88844380Y-11414285D02*
X88177714Y-11414285D01*
X87844380Y-11414285D02*
X87892000Y-11461904D01*
X87939619Y-11414285D01*
X87892000Y-11366666D01*
X87844380Y-11414285D01*
X87939619Y-11414285D01*
X88844380Y-10938095D02*
X88177714Y-10938095D01*
X88368190Y-10938095D02*
X88272952Y-10890476D01*
X88225333Y-10842857D01*
X88177714Y-10747619D01*
X88177714Y-10652380D01*
X86304380Y-15390476D02*
X85637714Y-15390476D01*
X85732952Y-15390476D02*
X85685333Y-15342857D01*
X85637714Y-15247619D01*
X85637714Y-15104761D01*
X85685333Y-15009523D01*
X85780571Y-14961904D01*
X86304380Y-14961904D01*
X85780571Y-14961904D02*
X85685333Y-14914285D01*
X85637714Y-14819047D01*
X85637714Y-14676190D01*
X85685333Y-14580952D01*
X85780571Y-14533333D01*
X86304380Y-14533333D01*
X85637714Y-13628571D02*
X86304380Y-13628571D01*
X85256761Y-13866666D02*
X85971047Y-14104761D01*
X85971047Y-13485714D01*
X86256761Y-12723809D02*
X86304380Y-12819047D01*
X86304380Y-13009523D01*
X86256761Y-13104761D01*
X86161523Y-13152380D01*
X85780571Y-13152380D01*
X85685333Y-13104761D01*
X85637714Y-13009523D01*
X85637714Y-12819047D01*
X85685333Y-12723809D01*
X85780571Y-12676190D01*
X85875809Y-12676190D01*
X85971047Y-13152380D01*
X85637714Y-12247619D02*
X86304380Y-12247619D01*
X85732952Y-12247619D02*
X85685333Y-12200000D01*
X85637714Y-12104761D01*
X85637714Y-11961904D01*
X85685333Y-11866666D01*
X85780571Y-11819047D01*
X86304380Y-11819047D01*
X86304380Y-10914285D02*
X85780571Y-10914285D01*
X85685333Y-10961904D01*
X85637714Y-11057142D01*
X85637714Y-11247619D01*
X85685333Y-11342857D01*
X86256761Y-10914285D02*
X86304380Y-11009523D01*
X86304380Y-11247619D01*
X86256761Y-11342857D01*
X86161523Y-11390476D01*
X86066285Y-11390476D01*
X85971047Y-11342857D01*
X85923428Y-11247619D01*
X85923428Y-11009523D01*
X85875809Y-10914285D01*
X86304380Y-10438095D02*
X85304380Y-10438095D01*
X85685333Y-10438095D02*
X85637714Y-10342857D01*
X85637714Y-10152380D01*
X85685333Y-10057142D01*
X85732952Y-10009523D01*
X85828190Y-9961904D01*
X86113904Y-9961904D01*
X86209142Y-10009523D01*
X86256761Y-10057142D01*
X86304380Y-10152380D01*
X86304380Y-10342857D01*
X86256761Y-10438095D01*
X83764380Y-15176190D02*
X83097714Y-15176190D01*
X83192952Y-15176190D02*
X83145333Y-15128571D01*
X83097714Y-15033333D01*
X83097714Y-14890476D01*
X83145333Y-14795238D01*
X83240571Y-14747619D01*
X83764380Y-14747619D01*
X83240571Y-14747619D02*
X83145333Y-14700000D01*
X83097714Y-14604761D01*
X83097714Y-14461904D01*
X83145333Y-14366666D01*
X83240571Y-14319047D01*
X83764380Y-14319047D01*
X82764380Y-13938095D02*
X82764380Y-13319047D01*
X83145333Y-13652380D01*
X83145333Y-13509523D01*
X83192952Y-13414285D01*
X83240571Y-13366666D01*
X83335809Y-13319047D01*
X83573904Y-13319047D01*
X83669142Y-13366666D01*
X83716761Y-13414285D01*
X83764380Y-13509523D01*
X83764380Y-13795238D01*
X83716761Y-13890476D01*
X83669142Y-13938095D01*
X83716761Y-12938095D02*
X83764380Y-12842857D01*
X83764380Y-12652380D01*
X83716761Y-12557142D01*
X83621523Y-12509523D01*
X83573904Y-12509523D01*
X83478666Y-12557142D01*
X83431047Y-12652380D01*
X83431047Y-12795238D01*
X83383428Y-12890476D01*
X83288190Y-12938095D01*
X83240571Y-12938095D01*
X83145333Y-12890476D01*
X83097714Y-12795238D01*
X83097714Y-12652380D01*
X83145333Y-12557142D01*
X83097714Y-12223809D02*
X83097714Y-11842857D01*
X82764380Y-12080952D02*
X83621523Y-12080952D01*
X83716761Y-12033333D01*
X83764380Y-11938095D01*
X83764380Y-11842857D01*
X83716761Y-11128571D02*
X83764380Y-11223809D01*
X83764380Y-11414285D01*
X83716761Y-11509523D01*
X83621523Y-11557142D01*
X83240571Y-11557142D01*
X83145333Y-11509523D01*
X83097714Y-11414285D01*
X83097714Y-11223809D01*
X83145333Y-11128571D01*
X83240571Y-11080952D01*
X83335809Y-11080952D01*
X83431047Y-11557142D01*
X83097714Y-10652380D02*
X84097714Y-10652380D01*
X83145333Y-10652380D02*
X83097714Y-10557142D01*
X83097714Y-10366666D01*
X83145333Y-10271428D01*
X83192952Y-10223809D01*
X83288190Y-10176190D01*
X83573904Y-10176190D01*
X83669142Y-10223809D01*
X83716761Y-10271428D01*
X83764380Y-10366666D01*
X83764380Y-10557142D01*
X83716761Y-10652380D01*
X78684380Y-15390476D02*
X78017714Y-15390476D01*
X78112952Y-15390476D02*
X78065333Y-15342857D01*
X78017714Y-15247619D01*
X78017714Y-15104761D01*
X78065333Y-15009523D01*
X78160571Y-14961904D01*
X78684380Y-14961904D01*
X78160571Y-14961904D02*
X78065333Y-14914285D01*
X78017714Y-14819047D01*
X78017714Y-14676190D01*
X78065333Y-14580952D01*
X78160571Y-14533333D01*
X78684380Y-14533333D01*
X77684380Y-14152380D02*
X77684380Y-13533333D01*
X78065333Y-13866666D01*
X78065333Y-13723809D01*
X78112952Y-13628571D01*
X78160571Y-13580952D01*
X78255809Y-13533333D01*
X78493904Y-13533333D01*
X78589142Y-13580952D01*
X78636761Y-13628571D01*
X78684380Y-13723809D01*
X78684380Y-14009523D01*
X78636761Y-14104761D01*
X78589142Y-14152380D01*
X78636761Y-12723809D02*
X78684380Y-12819047D01*
X78684380Y-13009523D01*
X78636761Y-13104761D01*
X78541523Y-13152380D01*
X78160571Y-13152380D01*
X78065333Y-13104761D01*
X78017714Y-13009523D01*
X78017714Y-12819047D01*
X78065333Y-12723809D01*
X78160571Y-12676190D01*
X78255809Y-12676190D01*
X78351047Y-13152380D01*
X78017714Y-12247619D02*
X78684380Y-12247619D01*
X78112952Y-12247619D02*
X78065333Y-12200000D01*
X78017714Y-12104761D01*
X78017714Y-11961904D01*
X78065333Y-11866666D01*
X78160571Y-11819047D01*
X78684380Y-11819047D01*
X78684380Y-10914285D02*
X78160571Y-10914285D01*
X78065333Y-10961904D01*
X78017714Y-11057142D01*
X78017714Y-11247619D01*
X78065333Y-11342857D01*
X78636761Y-10914285D02*
X78684380Y-11009523D01*
X78684380Y-11247619D01*
X78636761Y-11342857D01*
X78541523Y-11390476D01*
X78446285Y-11390476D01*
X78351047Y-11342857D01*
X78303428Y-11247619D01*
X78303428Y-11009523D01*
X78255809Y-10914285D01*
X78684380Y-10438095D02*
X77684380Y-10438095D01*
X78065333Y-10438095D02*
X78017714Y-10342857D01*
X78017714Y-10152380D01*
X78065333Y-10057142D01*
X78112952Y-10009523D01*
X78208190Y-9961904D01*
X78493904Y-9961904D01*
X78589142Y-10009523D01*
X78636761Y-10057142D01*
X78684380Y-10152380D01*
X78684380Y-10342857D01*
X78636761Y-10438095D01*
X81224380Y-14604761D02*
X80557714Y-14604761D01*
X80652952Y-14604761D02*
X80605333Y-14557142D01*
X80557714Y-14461904D01*
X80557714Y-14319047D01*
X80605333Y-14223809D01*
X80700571Y-14176190D01*
X81224380Y-14176190D01*
X80700571Y-14176190D02*
X80605333Y-14128571D01*
X80557714Y-14033333D01*
X80557714Y-13890476D01*
X80605333Y-13795238D01*
X80700571Y-13747619D01*
X81224380Y-13747619D01*
X80224380Y-13366666D02*
X80224380Y-12747619D01*
X80605333Y-13080952D01*
X80605333Y-12938095D01*
X80652952Y-12842857D01*
X80700571Y-12795238D01*
X80795809Y-12747619D01*
X81033904Y-12747619D01*
X81129142Y-12795238D01*
X81176761Y-12842857D01*
X81224380Y-12938095D01*
X81224380Y-13223809D01*
X81176761Y-13319047D01*
X81129142Y-13366666D01*
X81224380Y-11890476D02*
X80224380Y-11890476D01*
X81176761Y-11890476D02*
X81224380Y-11985714D01*
X81224380Y-12176190D01*
X81176761Y-12271428D01*
X81129142Y-12319047D01*
X81033904Y-12366666D01*
X80748190Y-12366666D01*
X80652952Y-12319047D01*
X80605333Y-12271428D01*
X80557714Y-12176190D01*
X80557714Y-11985714D01*
X80605333Y-11890476D01*
X81224380Y-11414285D02*
X80557714Y-11414285D01*
X80224380Y-11414285D02*
X80272000Y-11461904D01*
X80319619Y-11414285D01*
X80272000Y-11366666D01*
X80224380Y-11414285D01*
X80319619Y-11414285D01*
X81224380Y-10938095D02*
X80557714Y-10938095D01*
X80748190Y-10938095D02*
X80652952Y-10890476D01*
X80605333Y-10842857D01*
X80557714Y-10747619D01*
X80557714Y-10652380D01*
X76144380Y-15176190D02*
X75477714Y-15176190D01*
X75572952Y-15176190D02*
X75525333Y-15128571D01*
X75477714Y-15033333D01*
X75477714Y-14890476D01*
X75525333Y-14795238D01*
X75620571Y-14747619D01*
X76144380Y-14747619D01*
X75620571Y-14747619D02*
X75525333Y-14700000D01*
X75477714Y-14604761D01*
X75477714Y-14461904D01*
X75525333Y-14366666D01*
X75620571Y-14319047D01*
X76144380Y-14319047D01*
X75239619Y-13890476D02*
X75192000Y-13842857D01*
X75144380Y-13747619D01*
X75144380Y-13509523D01*
X75192000Y-13414285D01*
X75239619Y-13366666D01*
X75334857Y-13319047D01*
X75430095Y-13319047D01*
X75572952Y-13366666D01*
X76144380Y-13938095D01*
X76144380Y-13319047D01*
X76096761Y-12938095D02*
X76144380Y-12842857D01*
X76144380Y-12652380D01*
X76096761Y-12557142D01*
X76001523Y-12509523D01*
X75953904Y-12509523D01*
X75858666Y-12557142D01*
X75811047Y-12652380D01*
X75811047Y-12795238D01*
X75763428Y-12890476D01*
X75668190Y-12938095D01*
X75620571Y-12938095D01*
X75525333Y-12890476D01*
X75477714Y-12795238D01*
X75477714Y-12652380D01*
X75525333Y-12557142D01*
X75477714Y-12223809D02*
X75477714Y-11842857D01*
X75144380Y-12080952D02*
X76001523Y-12080952D01*
X76096761Y-12033333D01*
X76144380Y-11938095D01*
X76144380Y-11842857D01*
X76096761Y-11128571D02*
X76144380Y-11223809D01*
X76144380Y-11414285D01*
X76096761Y-11509523D01*
X76001523Y-11557142D01*
X75620571Y-11557142D01*
X75525333Y-11509523D01*
X75477714Y-11414285D01*
X75477714Y-11223809D01*
X75525333Y-11128571D01*
X75620571Y-11080952D01*
X75715809Y-11080952D01*
X75811047Y-11557142D01*
X75477714Y-10652380D02*
X76477714Y-10652380D01*
X75525333Y-10652380D02*
X75477714Y-10557142D01*
X75477714Y-10366666D01*
X75525333Y-10271428D01*
X75572952Y-10223809D01*
X75668190Y-10176190D01*
X75953904Y-10176190D01*
X76049142Y-10223809D01*
X76096761Y-10271428D01*
X76144380Y-10366666D01*
X76144380Y-10557142D01*
X76096761Y-10652380D01*
X73604380Y-14604761D02*
X72937714Y-14604761D01*
X73032952Y-14604761D02*
X72985333Y-14557142D01*
X72937714Y-14461904D01*
X72937714Y-14319047D01*
X72985333Y-14223809D01*
X73080571Y-14176190D01*
X73604380Y-14176190D01*
X73080571Y-14176190D02*
X72985333Y-14128571D01*
X72937714Y-14033333D01*
X72937714Y-13890476D01*
X72985333Y-13795238D01*
X73080571Y-13747619D01*
X73604380Y-13747619D01*
X72699619Y-13319047D02*
X72652000Y-13271428D01*
X72604380Y-13176190D01*
X72604380Y-12938095D01*
X72652000Y-12842857D01*
X72699619Y-12795238D01*
X72794857Y-12747619D01*
X72890095Y-12747619D01*
X73032952Y-12795238D01*
X73604380Y-13366666D01*
X73604380Y-12747619D01*
X73604380Y-11890476D02*
X72604380Y-11890476D01*
X73556761Y-11890476D02*
X73604380Y-11985714D01*
X73604380Y-12176190D01*
X73556761Y-12271428D01*
X73509142Y-12319047D01*
X73413904Y-12366666D01*
X73128190Y-12366666D01*
X73032952Y-12319047D01*
X72985333Y-12271428D01*
X72937714Y-12176190D01*
X72937714Y-11985714D01*
X72985333Y-11890476D01*
X73604380Y-11414285D02*
X72937714Y-11414285D01*
X72604380Y-11414285D02*
X72652000Y-11461904D01*
X72699619Y-11414285D01*
X72652000Y-11366666D01*
X72604380Y-11414285D01*
X72699619Y-11414285D01*
X73604380Y-10938095D02*
X72937714Y-10938095D01*
X73128190Y-10938095D02*
X73032952Y-10890476D01*
X72985333Y-10842857D01*
X72937714Y-10747619D01*
X72937714Y-10652380D01*
X71064380Y-15390476D02*
X70397714Y-15390476D01*
X70492952Y-15390476D02*
X70445333Y-15342857D01*
X70397714Y-15247619D01*
X70397714Y-15104761D01*
X70445333Y-15009523D01*
X70540571Y-14961904D01*
X71064380Y-14961904D01*
X70540571Y-14961904D02*
X70445333Y-14914285D01*
X70397714Y-14819047D01*
X70397714Y-14676190D01*
X70445333Y-14580952D01*
X70540571Y-14533333D01*
X71064380Y-14533333D01*
X70159619Y-14104761D02*
X70112000Y-14057142D01*
X70064380Y-13961904D01*
X70064380Y-13723809D01*
X70112000Y-13628571D01*
X70159619Y-13580952D01*
X70254857Y-13533333D01*
X70350095Y-13533333D01*
X70492952Y-13580952D01*
X71064380Y-14152380D01*
X71064380Y-13533333D01*
X71016761Y-12723809D02*
X71064380Y-12819047D01*
X71064380Y-13009523D01*
X71016761Y-13104761D01*
X70921523Y-13152380D01*
X70540571Y-13152380D01*
X70445333Y-13104761D01*
X70397714Y-13009523D01*
X70397714Y-12819047D01*
X70445333Y-12723809D01*
X70540571Y-12676190D01*
X70635809Y-12676190D01*
X70731047Y-13152380D01*
X70397714Y-12247619D02*
X71064380Y-12247619D01*
X70492952Y-12247619D02*
X70445333Y-12200000D01*
X70397714Y-12104761D01*
X70397714Y-11961904D01*
X70445333Y-11866666D01*
X70540571Y-11819047D01*
X71064380Y-11819047D01*
X71064380Y-10914285D02*
X70540571Y-10914285D01*
X70445333Y-10961904D01*
X70397714Y-11057142D01*
X70397714Y-11247619D01*
X70445333Y-11342857D01*
X71016761Y-10914285D02*
X71064380Y-11009523D01*
X71064380Y-11247619D01*
X71016761Y-11342857D01*
X70921523Y-11390476D01*
X70826285Y-11390476D01*
X70731047Y-11342857D01*
X70683428Y-11247619D01*
X70683428Y-11009523D01*
X70635809Y-10914285D01*
X71064380Y-10438095D02*
X70064380Y-10438095D01*
X70445333Y-10438095D02*
X70397714Y-10342857D01*
X70397714Y-10152380D01*
X70445333Y-10057142D01*
X70492952Y-10009523D01*
X70588190Y-9961904D01*
X70873904Y-9961904D01*
X70969142Y-10009523D01*
X71016761Y-10057142D01*
X71064380Y-10152380D01*
X71064380Y-10342857D01*
X71016761Y-10438095D01*
X68524380Y-15176190D02*
X67857714Y-15176190D01*
X67952952Y-15176190D02*
X67905333Y-15128571D01*
X67857714Y-15033333D01*
X67857714Y-14890476D01*
X67905333Y-14795238D01*
X68000571Y-14747619D01*
X68524380Y-14747619D01*
X68000571Y-14747619D02*
X67905333Y-14700000D01*
X67857714Y-14604761D01*
X67857714Y-14461904D01*
X67905333Y-14366666D01*
X68000571Y-14319047D01*
X68524380Y-14319047D01*
X68524380Y-13319047D02*
X68524380Y-13890476D01*
X68524380Y-13604761D02*
X67524380Y-13604761D01*
X67667238Y-13700000D01*
X67762476Y-13795238D01*
X67810095Y-13890476D01*
X68476761Y-12938095D02*
X68524380Y-12842857D01*
X68524380Y-12652380D01*
X68476761Y-12557142D01*
X68381523Y-12509523D01*
X68333904Y-12509523D01*
X68238666Y-12557142D01*
X68191047Y-12652380D01*
X68191047Y-12795238D01*
X68143428Y-12890476D01*
X68048190Y-12938095D01*
X68000571Y-12938095D01*
X67905333Y-12890476D01*
X67857714Y-12795238D01*
X67857714Y-12652380D01*
X67905333Y-12557142D01*
X67857714Y-12223809D02*
X67857714Y-11842857D01*
X67524380Y-12080952D02*
X68381523Y-12080952D01*
X68476761Y-12033333D01*
X68524380Y-11938095D01*
X68524380Y-11842857D01*
X68476761Y-11128571D02*
X68524380Y-11223809D01*
X68524380Y-11414285D01*
X68476761Y-11509523D01*
X68381523Y-11557142D01*
X68000571Y-11557142D01*
X67905333Y-11509523D01*
X67857714Y-11414285D01*
X67857714Y-11223809D01*
X67905333Y-11128571D01*
X68000571Y-11080952D01*
X68095809Y-11080952D01*
X68191047Y-11557142D01*
X67857714Y-10652380D02*
X68857714Y-10652380D01*
X67905333Y-10652380D02*
X67857714Y-10557142D01*
X67857714Y-10366666D01*
X67905333Y-10271428D01*
X67952952Y-10223809D01*
X68048190Y-10176190D01*
X68333904Y-10176190D01*
X68429142Y-10223809D01*
X68476761Y-10271428D01*
X68524380Y-10366666D01*
X68524380Y-10557142D01*
X68476761Y-10652380D01*
X65984380Y-14604761D02*
X65317714Y-14604761D01*
X65412952Y-14604761D02*
X65365333Y-14557142D01*
X65317714Y-14461904D01*
X65317714Y-14319047D01*
X65365333Y-14223809D01*
X65460571Y-14176190D01*
X65984380Y-14176190D01*
X65460571Y-14176190D02*
X65365333Y-14128571D01*
X65317714Y-14033333D01*
X65317714Y-13890476D01*
X65365333Y-13795238D01*
X65460571Y-13747619D01*
X65984380Y-13747619D01*
X65984380Y-12747619D02*
X65984380Y-13319047D01*
X65984380Y-13033333D02*
X64984380Y-13033333D01*
X65127238Y-13128571D01*
X65222476Y-13223809D01*
X65270095Y-13319047D01*
X65984380Y-11890476D02*
X64984380Y-11890476D01*
X65936761Y-11890476D02*
X65984380Y-11985714D01*
X65984380Y-12176190D01*
X65936761Y-12271428D01*
X65889142Y-12319047D01*
X65793904Y-12366666D01*
X65508190Y-12366666D01*
X65412952Y-12319047D01*
X65365333Y-12271428D01*
X65317714Y-12176190D01*
X65317714Y-11985714D01*
X65365333Y-11890476D01*
X65984380Y-11414285D02*
X65317714Y-11414285D01*
X64984380Y-11414285D02*
X65032000Y-11461904D01*
X65079619Y-11414285D01*
X65032000Y-11366666D01*
X64984380Y-11414285D01*
X65079619Y-11414285D01*
X65984380Y-10938095D02*
X65317714Y-10938095D01*
X65508190Y-10938095D02*
X65412952Y-10890476D01*
X65365333Y-10842857D01*
X65317714Y-10747619D01*
X65317714Y-10652380D01*
X63444380Y-15390476D02*
X62777714Y-15390476D01*
X62872952Y-15390476D02*
X62825333Y-15342857D01*
X62777714Y-15247619D01*
X62777714Y-15104761D01*
X62825333Y-15009523D01*
X62920571Y-14961904D01*
X63444380Y-14961904D01*
X62920571Y-14961904D02*
X62825333Y-14914285D01*
X62777714Y-14819047D01*
X62777714Y-14676190D01*
X62825333Y-14580952D01*
X62920571Y-14533333D01*
X63444380Y-14533333D01*
X63444380Y-13533333D02*
X63444380Y-14104761D01*
X63444380Y-13819047D02*
X62444380Y-13819047D01*
X62587238Y-13914285D01*
X62682476Y-14009523D01*
X62730095Y-14104761D01*
X63396761Y-12723809D02*
X63444380Y-12819047D01*
X63444380Y-13009523D01*
X63396761Y-13104761D01*
X63301523Y-13152380D01*
X62920571Y-13152380D01*
X62825333Y-13104761D01*
X62777714Y-13009523D01*
X62777714Y-12819047D01*
X62825333Y-12723809D01*
X62920571Y-12676190D01*
X63015809Y-12676190D01*
X63111047Y-13152380D01*
X62777714Y-12247619D02*
X63444380Y-12247619D01*
X62872952Y-12247619D02*
X62825333Y-12200000D01*
X62777714Y-12104761D01*
X62777714Y-11961904D01*
X62825333Y-11866666D01*
X62920571Y-11819047D01*
X63444380Y-11819047D01*
X63444380Y-10914285D02*
X62920571Y-10914285D01*
X62825333Y-10961904D01*
X62777714Y-11057142D01*
X62777714Y-11247619D01*
X62825333Y-11342857D01*
X63396761Y-10914285D02*
X63444380Y-11009523D01*
X63444380Y-11247619D01*
X63396761Y-11342857D01*
X63301523Y-11390476D01*
X63206285Y-11390476D01*
X63111047Y-11342857D01*
X63063428Y-11247619D01*
X63063428Y-11009523D01*
X63015809Y-10914285D01*
X63444380Y-10438095D02*
X62444380Y-10438095D01*
X62825333Y-10438095D02*
X62777714Y-10342857D01*
X62777714Y-10152380D01*
X62825333Y-10057142D01*
X62872952Y-10009523D01*
X62968190Y-9961904D01*
X63253904Y-9961904D01*
X63349142Y-10009523D01*
X63396761Y-10057142D01*
X63444380Y-10152380D01*
X63444380Y-10342857D01*
X63396761Y-10438095D01*
X30424380Y-22629333D02*
X30424380Y-23105523D01*
X29424380Y-23105523D01*
X30424380Y-22296000D02*
X29757714Y-22296000D01*
X29424380Y-22296000D02*
X29472000Y-22343619D01*
X29519619Y-22296000D01*
X29472000Y-22248380D01*
X29424380Y-22296000D01*
X29519619Y-22296000D01*
X30424380Y-21819809D02*
X29757714Y-21819809D01*
X29852952Y-21819809D02*
X29805333Y-21772190D01*
X29757714Y-21676952D01*
X29757714Y-21534095D01*
X29805333Y-21438857D01*
X29900571Y-21391238D01*
X30424380Y-21391238D01*
X29900571Y-21391238D02*
X29805333Y-21343619D01*
X29757714Y-21248380D01*
X29757714Y-21105523D01*
X29805333Y-21010285D01*
X29900571Y-20962666D01*
X30424380Y-20962666D01*
X30424380Y-20486476D02*
X29757714Y-20486476D01*
X29424380Y-20486476D02*
X29472000Y-20534095D01*
X29519619Y-20486476D01*
X29472000Y-20438857D01*
X29424380Y-20486476D01*
X29519619Y-20486476D01*
X29757714Y-20153142D02*
X29757714Y-19772190D01*
X29424380Y-20010285D02*
X30281523Y-20010285D01*
X30376761Y-19962666D01*
X30424380Y-19867428D01*
X30424380Y-19772190D01*
X30376761Y-18724571D02*
X30424380Y-18629333D01*
X30424380Y-18438857D01*
X30376761Y-18343619D01*
X30281523Y-18296000D01*
X30233904Y-18296000D01*
X30138666Y-18343619D01*
X30091047Y-18438857D01*
X30091047Y-18581714D01*
X30043428Y-18676952D01*
X29948190Y-18724571D01*
X29900571Y-18724571D01*
X29805333Y-18676952D01*
X29757714Y-18581714D01*
X29757714Y-18438857D01*
X29805333Y-18343619D01*
X29757714Y-17962666D02*
X30424380Y-17772190D01*
X29948190Y-17581714D01*
X30424380Y-17391238D01*
X29757714Y-17200761D01*
X30424380Y-16819809D02*
X29757714Y-16819809D01*
X29424380Y-16819809D02*
X29472000Y-16867428D01*
X29519619Y-16819809D01*
X29472000Y-16772190D01*
X29424380Y-16819809D01*
X29519619Y-16819809D01*
X29757714Y-16486476D02*
X29757714Y-16105523D01*
X29424380Y-16343619D02*
X30281523Y-16343619D01*
X30376761Y-16296000D01*
X30424380Y-16200761D01*
X30424380Y-16105523D01*
X30376761Y-15343619D02*
X30424380Y-15438857D01*
X30424380Y-15629333D01*
X30376761Y-15724571D01*
X30329142Y-15772190D01*
X30233904Y-15819809D01*
X29948190Y-15819809D01*
X29852952Y-15772190D01*
X29805333Y-15724571D01*
X29757714Y-15629333D01*
X29757714Y-15438857D01*
X29805333Y-15343619D01*
X30424380Y-14915047D02*
X29424380Y-14915047D01*
X30424380Y-14486476D02*
X29900571Y-14486476D01*
X29805333Y-14534095D01*
X29757714Y-14629333D01*
X29757714Y-14772190D01*
X29805333Y-14867428D01*
X29852952Y-14915047D01*
X94432380Y-17628571D02*
X93432380Y-17628571D01*
X94146666Y-17295238D01*
X93432380Y-16961904D01*
X94432380Y-16961904D01*
X94432380Y-16342857D02*
X94384761Y-16438095D01*
X94337142Y-16485714D01*
X94241904Y-16533333D01*
X93956190Y-16533333D01*
X93860952Y-16485714D01*
X93813333Y-16438095D01*
X93765714Y-16342857D01*
X93765714Y-16200000D01*
X93813333Y-16104761D01*
X93860952Y-16057142D01*
X93956190Y-16009523D01*
X94241904Y-16009523D01*
X94337142Y-16057142D01*
X94384761Y-16104761D01*
X94432380Y-16200000D01*
X94432380Y-16342857D01*
X93765714Y-15723809D02*
X93765714Y-15342857D01*
X93432380Y-15580952D02*
X94289523Y-15580952D01*
X94384761Y-15533333D01*
X94432380Y-15438095D01*
X94432380Y-15342857D01*
X94432380Y-14866666D02*
X94384761Y-14961904D01*
X94337142Y-15009523D01*
X94241904Y-15057142D01*
X93956190Y-15057142D01*
X93860952Y-15009523D01*
X93813333Y-14961904D01*
X93765714Y-14866666D01*
X93765714Y-14723809D01*
X93813333Y-14628571D01*
X93860952Y-14580952D01*
X93956190Y-14533333D01*
X94241904Y-14533333D01*
X94337142Y-14580952D01*
X94384761Y-14628571D01*
X94432380Y-14723809D01*
X94432380Y-14866666D01*
X94432380Y-14104761D02*
X93765714Y-14104761D01*
X93956190Y-14104761D02*
X93860952Y-14057142D01*
X93813333Y-14009523D01*
X93765714Y-13914285D01*
X93765714Y-13819047D01*
X94337142Y-12152380D02*
X94384761Y-12200000D01*
X94432380Y-12342857D01*
X94432380Y-12438095D01*
X94384761Y-12580952D01*
X94289523Y-12676190D01*
X94194285Y-12723809D01*
X94003809Y-12771428D01*
X93860952Y-12771428D01*
X93670476Y-12723809D01*
X93575238Y-12676190D01*
X93480000Y-12580952D01*
X93432380Y-12438095D01*
X93432380Y-12342857D01*
X93480000Y-12200000D01*
X93527619Y-12152380D01*
X94432380Y-11580952D02*
X94384761Y-11676190D01*
X94337142Y-11723809D01*
X94241904Y-11771428D01*
X93956190Y-11771428D01*
X93860952Y-11723809D01*
X93813333Y-11676190D01*
X93765714Y-11580952D01*
X93765714Y-11438095D01*
X93813333Y-11342857D01*
X93860952Y-11295238D01*
X93956190Y-11247619D01*
X94241904Y-11247619D01*
X94337142Y-11295238D01*
X94384761Y-11342857D01*
X94432380Y-11438095D01*
X94432380Y-11580952D01*
X93765714Y-10819047D02*
X94432380Y-10819047D01*
X93860952Y-10819047D02*
X93813333Y-10771428D01*
X93765714Y-10676190D01*
X93765714Y-10533333D01*
X93813333Y-10438095D01*
X93908571Y-10390476D01*
X94432380Y-10390476D01*
X93765714Y-10057142D02*
X93765714Y-9676190D01*
X93432380Y-9914285D02*
X94289523Y-9914285D01*
X94384761Y-9866666D01*
X94432380Y-9771428D01*
X94432380Y-9676190D01*
X94432380Y-9342857D02*
X93765714Y-9342857D01*
X93956190Y-9342857D02*
X93860952Y-9295238D01*
X93813333Y-9247619D01*
X93765714Y-9152380D01*
X93765714Y-9057142D01*
X94432380Y-8580952D02*
X94384761Y-8676190D01*
X94337142Y-8723809D01*
X94241904Y-8771428D01*
X93956190Y-8771428D01*
X93860952Y-8723809D01*
X93813333Y-8676190D01*
X93765714Y-8580952D01*
X93765714Y-8438095D01*
X93813333Y-8342857D01*
X93860952Y-8295238D01*
X93956190Y-8247619D01*
X94241904Y-8247619D01*
X94337142Y-8295238D01*
X94384761Y-8342857D01*
X94432380Y-8438095D01*
X94432380Y-8580952D01*
X94432380Y-7676190D02*
X94384761Y-7771428D01*
X94289523Y-7819047D01*
X93432380Y-7819047D01*
X88725333Y-24798833D02*
X88725333Y-23846452D01*
X89296761Y-24989309D02*
X87296761Y-24322642D01*
X89296761Y-23655976D01*
X79676761Y-25084547D02*
X79676761Y-23751214D01*
X81676761Y-25084547D01*
X81676761Y-23751214D01*
X73104380Y-24322642D02*
X74056761Y-24322642D01*
X72056761Y-24989309D02*
X73104380Y-24322642D01*
X72056761Y-23655976D01*
X64436761Y-25084547D02*
X66436761Y-23751214D01*
X64436761Y-23751214D02*
X66436761Y-25084547D01*
X92456000Y-22860000D02*
X84836000Y-22860000D01*
X92456000Y-2540000D02*
X92456000Y-22860000D01*
X84836000Y-2540000D02*
X92456000Y-2540000D01*
X84836000Y-22860000D02*
X76708000Y-22860000D01*
X84836000Y-2540000D02*
X84836000Y-22860000D01*
X76708000Y-2540000D02*
X84836000Y-2540000D01*
X76708000Y-22860000D02*
X69596000Y-22860000D01*
X76708000Y-2540000D02*
X76708000Y-22860000D01*
X69596000Y-2540000D02*
X76708000Y-2540000D01*
X61468000Y-2540000D02*
X69596000Y-2540000D01*
X61468000Y-22860000D02*
X61468000Y-2540000D01*
X69596000Y-22860000D02*
X61468000Y-22860000D01*
X69596000Y-2540000D02*
X69596000Y-22860000D01*
X61468000Y-2540000D02*
X69596000Y-2540000D01*
X60809142Y-4770476D02*
X60856761Y-4818095D01*
X60904380Y-4960952D01*
X60904380Y-5056190D01*
X60856761Y-5199047D01*
X60761523Y-5294285D01*
X60666285Y-5341904D01*
X60475809Y-5389523D01*
X60332952Y-5389523D01*
X60142476Y-5341904D01*
X60047238Y-5294285D01*
X59952000Y-5199047D01*
X59904380Y-5056190D01*
X59904380Y-4960952D01*
X59952000Y-4818095D01*
X59999619Y-4770476D01*
X60809142Y-17470476D02*
X60856761Y-17518095D01*
X60904380Y-17660952D01*
X60904380Y-17756190D01*
X60856761Y-17899047D01*
X60761523Y-17994285D01*
X60666285Y-18041904D01*
X60475809Y-18089523D01*
X60332952Y-18089523D01*
X60142476Y-18041904D01*
X60047238Y-17994285D01*
X59952000Y-17899047D01*
X59904380Y-17756190D01*
X59904380Y-17660952D01*
X59952000Y-17518095D01*
X59999619Y-17470476D01*
X79192380Y71326477D02*
X78192380Y71326477D01*
X79192380Y71897905D01*
X78192380Y71897905D01*
X78192380Y72564572D02*
X78192380Y72755048D01*
X78240000Y72850286D01*
X78335238Y72945524D01*
X78525714Y72993143D01*
X78859047Y72993143D01*
X79049523Y72945524D01*
X79144761Y72850286D01*
X79192380Y72755048D01*
X79192380Y72564572D01*
X79144761Y72469334D01*
X79049523Y72374096D01*
X78859047Y72326477D01*
X78525714Y72326477D01*
X78335238Y72374096D01*
X78240000Y72469334D01*
X78192380Y72564572D01*
X83764380Y71350286D02*
X82764380Y71350286D01*
X83764380Y71921715D01*
X82764380Y71921715D01*
X83669142Y72969334D02*
X83716761Y72921715D01*
X83764380Y72778858D01*
X83764380Y72683620D01*
X83716761Y72540762D01*
X83621523Y72445524D01*
X83526285Y72397905D01*
X83335809Y72350286D01*
X83192952Y72350286D01*
X83002476Y72397905D01*
X82907238Y72445524D01*
X82812000Y72540762D01*
X82764380Y72683620D01*
X82764380Y72778858D01*
X82812000Y72921715D01*
X82859619Y72969334D01*
X90860571Y83447048D02*
X90860571Y83113715D01*
X91384380Y83113715D02*
X90384380Y83113715D01*
X90384380Y83589905D01*
X91384380Y84542286D02*
X90908190Y84208953D01*
X91384380Y83970858D02*
X90384380Y83970858D01*
X90384380Y84351810D01*
X90432000Y84447048D01*
X90479619Y84494667D01*
X90574857Y84542286D01*
X90717714Y84542286D01*
X90812952Y84494667D01*
X90860571Y84447048D01*
X90908190Y84351810D01*
X90908190Y83970858D01*
X91479619Y85637524D02*
X91432000Y85542286D01*
X91336761Y85447048D01*
X91193904Y85304191D01*
X91146285Y85208953D01*
X91146285Y85113715D01*
X91384380Y85161334D02*
X91336761Y85066096D01*
X91241523Y84970858D01*
X91051047Y84923239D01*
X90717714Y84923239D01*
X90527238Y84970858D01*
X90432000Y85066096D01*
X90384380Y85161334D01*
X90384380Y85351810D01*
X90432000Y85447048D01*
X90527238Y85542286D01*
X90717714Y85589905D01*
X91051047Y85589905D01*
X91241523Y85542286D01*
X91336761Y85447048D01*
X91384380Y85351810D01*
X91384380Y85161334D01*
X91003428Y63119048D02*
X91003428Y63880953D01*
X91003428Y58039048D02*
X91003428Y58800953D01*
X91384380Y58420000D02*
X90622476Y58420000D01*
X90860571Y74684000D02*
X90908190Y74826858D01*
X90955809Y74874477D01*
X91051047Y74922096D01*
X91193904Y74922096D01*
X91289142Y74874477D01*
X91336761Y74826858D01*
X91384380Y74731620D01*
X91384380Y74350667D01*
X90384380Y74350667D01*
X90384380Y74684000D01*
X90432000Y74779239D01*
X90479619Y74826858D01*
X90574857Y74874477D01*
X90670095Y74874477D01*
X90765333Y74826858D01*
X90812952Y74779239D01*
X90860571Y74684000D01*
X90860571Y74350667D01*
X90384380Y75255429D02*
X91384380Y75493524D01*
X90670095Y75684000D01*
X91384380Y75874477D01*
X90384380Y76112572D01*
X90860571Y69675429D02*
X90860571Y69342096D01*
X91384380Y69342096D02*
X90384380Y69342096D01*
X90384380Y69818286D01*
X90384380Y70104000D02*
X91384380Y70342096D01*
X90670095Y70532572D01*
X91384380Y70723048D01*
X90384380Y70961143D01*
X94884952Y54411620D02*
X94313523Y54411620D01*
X94599238Y54411620D02*
X94599238Y55411620D01*
X94504000Y55268762D01*
X94408761Y55173524D01*
X94313523Y55125905D01*
X95265904Y55316381D02*
X95313523Y55364000D01*
X95408761Y55411620D01*
X95646857Y55411620D01*
X95742095Y55364000D01*
X95789714Y55316381D01*
X95837333Y55221143D01*
X95837333Y55125905D01*
X95789714Y54983048D01*
X95218285Y54411620D01*
X95837333Y54411620D01*
X96123047Y55411620D02*
X96456380Y54411620D01*
X96789714Y55411620D01*
X98552000Y53848000D02*
X1016000Y53848000D01*
X1016000Y0D02*
X98552000Y508000D01*
X25344380Y4024381D02*
X24868190Y3691048D01*
X25344380Y3452953D02*
X24344380Y3452953D01*
X24344380Y3833905D01*
X24392000Y3929143D01*
X24439619Y3976762D01*
X24534857Y4024381D01*
X24677714Y4024381D01*
X24772952Y3976762D01*
X24820571Y3929143D01*
X24868190Y3833905D01*
X24868190Y3452953D01*
X25296761Y4405334D02*
X25344380Y4548191D01*
X25344380Y4786286D01*
X25296761Y4881524D01*
X25249142Y4929143D01*
X25153904Y4976762D01*
X25058666Y4976762D01*
X24963428Y4929143D01*
X24915809Y4881524D01*
X24868190Y4786286D01*
X24820571Y4595810D01*
X24772952Y4500572D01*
X24725333Y4452953D01*
X24630095Y4405334D01*
X24534857Y4405334D01*
X24439619Y4452953D01*
X24392000Y4500572D01*
X24344380Y4595810D01*
X24344380Y4833905D01*
X24392000Y4976762D01*
X24344380Y5262477D02*
X24344380Y5833905D01*
X25344380Y5548191D02*
X24344380Y5548191D01*
X35996571Y-26846452D02*
X35996571Y-26513119D01*
X36520380Y-26370261D02*
X36520380Y-26846452D01*
X35520380Y-26846452D01*
X35520380Y-26370261D01*
X36472761Y-25989309D02*
X36520380Y-25846452D01*
X36520380Y-25608357D01*
X36472761Y-25513119D01*
X36425142Y-25465500D01*
X36329904Y-25417880D01*
X36234666Y-25417880D01*
X36139428Y-25465500D01*
X36091809Y-25513119D01*
X36044190Y-25608357D01*
X35996571Y-25798833D01*
X35948952Y-25894071D01*
X35901333Y-25941690D01*
X35806095Y-25989309D01*
X35710857Y-25989309D01*
X35615619Y-25941690D01*
X35568000Y-25894071D01*
X35520380Y-25798833D01*
X35520380Y-25560738D01*
X35568000Y-25417880D01*
X35520380Y-25132166D02*
X35520380Y-24560738D01*
X36520380Y-24846452D02*
X35520380Y-24846452D01*
X36520380Y-24227404D02*
X35520380Y-24227404D01*
X35520380Y-23846452D01*
X35568000Y-23751214D01*
X35615619Y-23703595D01*
X35710857Y-23655976D01*
X35853714Y-23655976D01*
X35948952Y-23703595D01*
X35996571Y-23751214D01*
X36044190Y-23846452D01*
X36044190Y-24227404D01*
X41505142Y-23655976D02*
X41552761Y-23703595D01*
X41600380Y-23846452D01*
X41600380Y-23941690D01*
X41552761Y-24084547D01*
X41457523Y-24179785D01*
X41362285Y-24227404D01*
X41171809Y-24275023D01*
X41028952Y-24275023D01*
X40838476Y-24227404D01*
X40743238Y-24179785D01*
X40648000Y-24084547D01*
X40600380Y-23941690D01*
X40600380Y-23846452D01*
X40648000Y-23703595D01*
X40695619Y-23655976D01*
X27376380Y-24735214D02*
X26376380Y-24735214D01*
X26376380Y-24354261D01*
X26424000Y-24259023D01*
X26471619Y-24211404D01*
X26566857Y-24163785D01*
X26709714Y-24163785D01*
X26804952Y-24211404D01*
X26852571Y-24259023D01*
X26900190Y-24354261D01*
X26900190Y-24735214D01*
X27376380Y-23735214D02*
X26709714Y-23735214D01*
X26900190Y-23735214D02*
X26804952Y-23687595D01*
X26757333Y-23639976D01*
X26709714Y-23544738D01*
X26709714Y-23449500D01*
X27376380Y-23116166D02*
X26376380Y-23116166D01*
X26757333Y-23116166D02*
X26709714Y-23020928D01*
X26709714Y-22830452D01*
X26757333Y-22735214D01*
X26804952Y-22687595D01*
X26900190Y-22639976D01*
X27185904Y-22639976D01*
X27281142Y-22687595D01*
X27328761Y-22735214D01*
X27376380Y-22830452D01*
X27376380Y-23020928D01*
X27328761Y-23116166D01*
X24550666Y-24354261D02*
X24550666Y-23878071D01*
X24836380Y-24449500D02*
X23836380Y-24116166D01*
X24836380Y-23782833D01*
X24455428Y-23449500D02*
X24455428Y-22687595D01*
X24836380Y-23068547D02*
X24074476Y-23068547D01*
X22010666Y-24354261D02*
X22010666Y-23878071D01*
X22296380Y-24449500D02*
X21296380Y-24116166D01*
X22296380Y-23782833D01*
X21915428Y-23449500D02*
X21915428Y-22687595D01*
X18756380Y-24497119D02*
X18756380Y-23830452D01*
X19756380Y-24497119D01*
X19756380Y-23830452D01*
X19375428Y-23449500D02*
X19375428Y-22687595D01*
X19756380Y-23068547D02*
X18994476Y-23068547D01*
X16216380Y-24497119D02*
X16216380Y-23830452D01*
X17216380Y-24497119D01*
X17216380Y-23830452D01*
X16835428Y-23449500D02*
X16835428Y-22687595D01*
X14200190Y-24116166D02*
X14676380Y-24116166D01*
X13676380Y-24449500D02*
X14200190Y-24116166D01*
X13676380Y-23782833D01*
X14295428Y-23449500D02*
X14295428Y-22687595D01*
X14676380Y-23068547D02*
X13914476Y-23068547D01*
X11660190Y-24116166D02*
X12136380Y-24116166D01*
X11136380Y-24449500D02*
X11660190Y-24116166D01*
X11136380Y-23782833D01*
X11755428Y-23449500D02*
X11755428Y-22687595D01*
X8596380Y-24497119D02*
X9596380Y-23830452D01*
X8596380Y-23830452D02*
X9596380Y-24497119D01*
X9215428Y-23449500D02*
X9215428Y-22687595D01*
X9596380Y-23068547D02*
X8834476Y-23068547D01*
X6056380Y-24497119D02*
X7056380Y-23830452D01*
X6056380Y-23830452D02*
X7056380Y-24497119D01*
X6675428Y-23449500D02*
X6675428Y-22687595D01*
X3913142Y-17470476D02*
X3960761Y-17518095D01*
X4008380Y-17660952D01*
X4008380Y-17756190D01*
X3960761Y-17899047D01*
X3865523Y-17994285D01*
X3770285Y-18041904D01*
X3579809Y-18089523D01*
X3436952Y-18089523D01*
X3246476Y-18041904D01*
X3151238Y-17994285D01*
X3056000Y-17899047D01*
X3008380Y-17756190D01*
X3008380Y-17660952D01*
X3056000Y-17518095D01*
X3103619Y-17470476D01*
X28646380Y5619715D02*
X28646380Y5048286D01*
X28646380Y5334000D02*
X27646380Y5334000D01*
X27789238Y5238762D01*
X27884476Y5143524D01*
X27932095Y5048286D01*
D11*
X20892000Y79466000D02*
X21048000Y79466000D01*
X18576000Y79466000D02*
X18732000Y79466000D01*
X20891837Y82067130D02*
G75*
G02X20892000Y79985039I-1079837J-1041130D01*
G01*
X18732163Y82067130D02*
G75*
G03X18732000Y79985039I1079837J-1041130D01*
G01*
X20890608Y82698335D02*
G75*
G02X21047516Y79466000I-1078608J-1672335D01*
G01*
X18733392Y82698335D02*
G75*
G03X18576484Y79466000I1078608J-1672335D01*
G01*
X66978000Y61650000D02*
X62978000Y61650000D01*
X66978000Y65250000D02*
X66978000Y61650000D01*
X62978000Y65250000D02*
X66978000Y65250000D01*
X62978000Y61650000D02*
X62978000Y65250000D01*
X66978000Y61650000D02*
X62978000Y65250000D01*
X64978000Y61650000D02*
X64978000Y57450000D01*
X64978000Y69450000D02*
X64978000Y65250000D01*
X61578000Y63450000D02*
X61578000Y59850000D01*
X68378000Y63450000D02*
X68378000Y59850000D01*
X68378000Y59850000D02*
X61578000Y59850000D01*
X69878000Y63450000D02*
X74478000Y65950000D01*
X68378000Y63450000D02*
X69878000Y63450000D01*
X64978000Y69450000D02*
X62478000Y69450000D01*
X61578000Y63450000D02*
X60778000Y63450000D01*
X62478000Y57450000D02*
X64978000Y57450000D01*
X73078000Y67700000D02*
X73078000Y65200000D01*
X73078000Y59300000D02*
X73078000Y61750000D01*
X77328000Y55700000D02*
X57528000Y55700000D01*
X77328000Y71300000D02*
X77328000Y55700000D01*
X57528000Y71300000D02*
X77328000Y71300000D01*
X57528000Y71300000D02*
X57528000Y64700000D01*
X57528000Y62300000D02*
X57528000Y55700000D01*
X41831000Y67283698D02*
X41031000Y67283698D01*
X41431000Y67683698D02*
X41431000Y66883698D01*
X39649000Y59193000D02*
X38583000Y59193000D01*
X39884000Y59233000D02*
X38348000Y59233000D01*
X40064000Y59273000D02*
X38168000Y59273000D01*
X40214000Y59313000D02*
X38018000Y59313000D01*
X40345000Y59353000D02*
X37887000Y59353000D01*
X40462000Y59393000D02*
X37770000Y59393000D01*
X40569000Y59433000D02*
X37663000Y59433000D01*
X40668000Y59473000D02*
X37564000Y59473000D01*
X40761000Y59513000D02*
X37471000Y59513000D01*
X40847000Y59553000D02*
X37385000Y59553000D01*
X40929000Y59593000D02*
X37303000Y59593000D01*
X41006000Y59633000D02*
X37226000Y59633000D01*
X41080000Y59673000D02*
X37152000Y59673000D01*
X41150000Y59713000D02*
X37082000Y59713000D01*
X41218000Y59753000D02*
X37014000Y59753000D01*
X41282000Y59793000D02*
X36950000Y59793000D01*
X41344000Y59833000D02*
X36888000Y59833000D01*
X41403000Y59873000D02*
X36829000Y59873000D01*
X41461000Y59913000D02*
X36771000Y59913000D01*
X41516000Y59953000D02*
X36716000Y59953000D01*
X41570000Y59993000D02*
X36662000Y59993000D01*
X41621000Y60033000D02*
X36611000Y60033000D01*
X41672000Y60073000D02*
X36560000Y60073000D01*
X41720000Y60113000D02*
X36512000Y60113000D01*
X41767000Y60153000D02*
X36465000Y60153000D01*
X41813000Y60193000D02*
X36419000Y60193000D01*
X41857000Y60233000D02*
X36375000Y60233000D01*
X41900000Y60273000D02*
X36332000Y60273000D01*
X41942000Y60313000D02*
X36290000Y60313000D01*
X41983000Y60353000D02*
X36249000Y60353000D01*
X42023000Y60393000D02*
X36209000Y60393000D01*
X42061000Y60433000D02*
X36171000Y60433000D01*
X42099000Y60473000D02*
X36133000Y60473000D01*
X38076000Y60513000D02*
X36097000Y60513000D01*
X42135000Y60513000D02*
X40156000Y60513000D01*
X38076000Y60553000D02*
X36061000Y60553000D01*
X42171000Y60553000D02*
X40156000Y60553000D01*
X38076000Y60593000D02*
X36026000Y60593000D01*
X42206000Y60593000D02*
X40156000Y60593000D01*
X38076000Y60633000D02*
X35992000Y60633000D01*
X42240000Y60633000D02*
X40156000Y60633000D01*
X38076000Y60673000D02*
X35960000Y60673000D01*
X42272000Y60673000D02*
X40156000Y60673000D01*
X38076000Y60713000D02*
X35927000Y60713000D01*
X42305000Y60713000D02*
X40156000Y60713000D01*
X38076000Y60753000D02*
X35896000Y60753000D01*
X42336000Y60753000D02*
X40156000Y60753000D01*
X38076000Y60793000D02*
X35866000Y60793000D01*
X42366000Y60793000D02*
X40156000Y60793000D01*
X38076000Y60833000D02*
X35836000Y60833000D01*
X42396000Y60833000D02*
X40156000Y60833000D01*
X38076000Y60873000D02*
X35807000Y60873000D01*
X42425000Y60873000D02*
X40156000Y60873000D01*
X38076000Y60913000D02*
X35778000Y60913000D01*
X42454000Y60913000D02*
X40156000Y60913000D01*
X38076000Y60953000D02*
X35751000Y60953000D01*
X42481000Y60953000D02*
X40156000Y60953000D01*
X38076000Y60993000D02*
X35724000Y60993000D01*
X42508000Y60993000D02*
X40156000Y60993000D01*
X38076000Y61033000D02*
X35698000Y61033000D01*
X42534000Y61033000D02*
X40156000Y61033000D01*
X38076000Y61073000D02*
X35672000Y61073000D01*
X42560000Y61073000D02*
X40156000Y61073000D01*
X38076000Y61113000D02*
X35647000Y61113000D01*
X42585000Y61113000D02*
X40156000Y61113000D01*
X38076000Y61153000D02*
X35623000Y61153000D01*
X42609000Y61153000D02*
X40156000Y61153000D01*
X38076000Y61193000D02*
X35599000Y61193000D01*
X42633000Y61193000D02*
X40156000Y61193000D01*
X38076000Y61233000D02*
X35576000Y61233000D01*
X42656000Y61233000D02*
X40156000Y61233000D01*
X38076000Y61273000D02*
X35554000Y61273000D01*
X42678000Y61273000D02*
X40156000Y61273000D01*
X38076000Y61313000D02*
X35532000Y61313000D01*
X42700000Y61313000D02*
X40156000Y61313000D01*
X38076000Y61353000D02*
X35510000Y61353000D01*
X42722000Y61353000D02*
X40156000Y61353000D01*
X38076000Y61393000D02*
X35489000Y61393000D01*
X42743000Y61393000D02*
X40156000Y61393000D01*
X38076000Y61433000D02*
X35469000Y61433000D01*
X42763000Y61433000D02*
X40156000Y61433000D01*
X38076000Y61473000D02*
X35450000Y61473000D01*
X42782000Y61473000D02*
X40156000Y61473000D01*
X38076000Y61513000D02*
X35430000Y61513000D01*
X42802000Y61513000D02*
X40156000Y61513000D01*
X38076000Y61553000D02*
X35412000Y61553000D01*
X42820000Y61553000D02*
X40156000Y61553000D01*
X38076000Y61593000D02*
X35394000Y61593000D01*
X42838000Y61593000D02*
X40156000Y61593000D01*
X38076000Y61633000D02*
X35376000Y61633000D01*
X42856000Y61633000D02*
X40156000Y61633000D01*
X38076000Y61673000D02*
X35359000Y61673000D01*
X42873000Y61673000D02*
X40156000Y61673000D01*
X38076000Y61713000D02*
X35342000Y61713000D01*
X42890000Y61713000D02*
X40156000Y61713000D01*
X38076000Y61753000D02*
X35326000Y61753000D01*
X42906000Y61753000D02*
X40156000Y61753000D01*
X38076000Y61793000D02*
X35311000Y61793000D01*
X42921000Y61793000D02*
X40156000Y61793000D01*
X38076000Y61833000D02*
X35295000Y61833000D01*
X42937000Y61833000D02*
X40156000Y61833000D01*
X38076000Y61873000D02*
X35281000Y61873000D01*
X42951000Y61873000D02*
X40156000Y61873000D01*
X38076000Y61913000D02*
X35266000Y61913000D01*
X42966000Y61913000D02*
X40156000Y61913000D01*
X38076000Y61953000D02*
X35253000Y61953000D01*
X42979000Y61953000D02*
X40156000Y61953000D01*
X38076000Y61993000D02*
X35239000Y61993000D01*
X42993000Y61993000D02*
X40156000Y61993000D01*
X38076000Y62033000D02*
X35227000Y62033000D01*
X43005000Y62033000D02*
X40156000Y62033000D01*
X38076000Y62073000D02*
X35214000Y62073000D01*
X43018000Y62073000D02*
X40156000Y62073000D01*
X38076000Y62113000D02*
X35202000Y62113000D01*
X43030000Y62113000D02*
X40156000Y62113000D01*
X38076000Y62153000D02*
X35191000Y62153000D01*
X43041000Y62153000D02*
X40156000Y62153000D01*
X38076000Y62193000D02*
X35180000Y62193000D01*
X43052000Y62193000D02*
X40156000Y62193000D01*
X38076000Y62233000D02*
X35169000Y62233000D01*
X43063000Y62233000D02*
X40156000Y62233000D01*
X38076000Y62273000D02*
X35159000Y62273000D01*
X43073000Y62273000D02*
X40156000Y62273000D01*
X38076000Y62313000D02*
X35149000Y62313000D01*
X43083000Y62313000D02*
X40156000Y62313000D01*
X38076000Y62353000D02*
X35140000Y62353000D01*
X43092000Y62353000D02*
X40156000Y62353000D01*
X38076000Y62393000D02*
X35131000Y62393000D01*
X43101000Y62393000D02*
X40156000Y62393000D01*
X38076000Y62433000D02*
X35122000Y62433000D01*
X43110000Y62433000D02*
X40156000Y62433000D01*
X38076000Y62473000D02*
X35114000Y62473000D01*
X43118000Y62473000D02*
X40156000Y62473000D01*
X38076000Y62513000D02*
X35106000Y62513000D01*
X43126000Y62513000D02*
X40156000Y62513000D01*
X38076000Y62553000D02*
X35099000Y62553000D01*
X43133000Y62553000D02*
X40156000Y62553000D01*
X43140000Y62594000D02*
X35092000Y62594000D01*
X43146000Y62634000D02*
X35086000Y62634000D01*
X43153000Y62674000D02*
X35079000Y62674000D01*
X43158000Y62714000D02*
X35074000Y62714000D01*
X43164000Y62754000D02*
X35068000Y62754000D01*
X43168000Y62794000D02*
X35064000Y62794000D01*
X43173000Y62834000D02*
X35059000Y62834000D01*
X43177000Y62874000D02*
X35055000Y62874000D01*
X43181000Y62914000D02*
X35051000Y62914000D01*
X43184000Y62954000D02*
X35048000Y62954000D01*
X43187000Y62994000D02*
X35045000Y62994000D01*
X43190000Y63034000D02*
X35042000Y63034000D01*
X43192000Y63074000D02*
X35040000Y63074000D01*
X43193000Y63114000D02*
X35039000Y63114000D01*
X43195000Y63154000D02*
X35037000Y63154000D01*
X43196000Y63194000D02*
X35036000Y63194000D01*
X43196000Y63234000D02*
X35036000Y63234000D01*
X43196000Y63274000D02*
X35036000Y63274000D01*
X43236000Y63274000D02*
G75*
G03X43236000Y63274000I-4120000J0D01*
G01*
X12894000Y68436000D02*
X12894000Y66786000D01*
X18094000Y68436000D02*
X12894000Y68436000D01*
X18094000Y63136000D02*
X18094000Y68436000D01*
X12894000Y63136000D02*
X18094000Y63136000D01*
X12894000Y64786000D02*
X12894000Y63136000D01*
X12894000Y66786000D02*
G75*
G02X12894000Y64786000I0J-1000000D01*
G01*
X2226000Y68436000D02*
X2226000Y66786000D01*
X7426000Y68436000D02*
X2226000Y68436000D01*
X7426000Y63136000D02*
X7426000Y68436000D01*
X2226000Y63136000D02*
X7426000Y63136000D01*
X2226000Y64786000D02*
X2226000Y63136000D01*
X2226000Y66786000D02*
G75*
G02X2226000Y64786000I0J-1000000D01*
G01*
X23562000Y68436000D02*
X23562000Y66786000D01*
X28762000Y68436000D02*
X23562000Y68436000D01*
X28762000Y63136000D02*
X28762000Y68436000D01*
X23562000Y63136000D02*
X28762000Y63136000D01*
X23562000Y64786000D02*
X23562000Y63136000D01*
X23562000Y66786000D02*
G75*
G02X23562000Y64786000I0J-1000000D01*
G01*
X81798000Y88705000D02*
X86868000Y88705000D01*
X81798000Y78935000D02*
X86868000Y78935000D01*
X86868000Y78935000D02*
X86868000Y88705000D01*
X81798000Y78935000D02*
X81798000Y88705000D01*
X29310000Y31464000D02*
X28980000Y31464000D01*
X29310000Y24924000D02*
X29310000Y31464000D01*
X28980000Y24924000D02*
X29310000Y24924000D01*
X26570000Y31464000D02*
X26900000Y31464000D01*
X26570000Y24924000D02*
X26570000Y31464000D01*
X26900000Y24924000D02*
X26570000Y24924000D01*
X29310000Y42132000D02*
X28980000Y42132000D01*
X29310000Y35592000D02*
X29310000Y42132000D01*
X28980000Y35592000D02*
X29310000Y35592000D01*
X26570000Y42132000D02*
X26900000Y42132000D01*
X26570000Y35592000D02*
X26570000Y42132000D01*
X26900000Y35592000D02*
X26570000Y35592000D01*
X32866000Y31464000D02*
X32536000Y31464000D01*
X32866000Y24924000D02*
X32866000Y31464000D01*
X32536000Y24924000D02*
X32866000Y24924000D01*
X30126000Y31464000D02*
X30456000Y31464000D01*
X30126000Y24924000D02*
X30126000Y31464000D01*
X30456000Y24924000D02*
X30126000Y24924000D01*
X32866000Y42132000D02*
X32536000Y42132000D01*
X32866000Y35592000D02*
X32866000Y42132000D01*
X32536000Y35592000D02*
X32866000Y35592000D01*
X30126000Y42132000D02*
X30456000Y42132000D01*
X30126000Y35592000D02*
X30126000Y42132000D01*
X30456000Y35592000D02*
X30126000Y35592000D01*
X19458000Y62516000D02*
X19788000Y62516000D01*
X19458000Y69056000D02*
X19458000Y62516000D01*
X19788000Y69056000D02*
X19458000Y69056000D01*
X22198000Y62516000D02*
X21868000Y62516000D01*
X22198000Y69056000D02*
X22198000Y62516000D01*
X21868000Y69056000D02*
X22198000Y69056000D01*
X8790000Y62516000D02*
X9120000Y62516000D01*
X8790000Y69056000D02*
X8790000Y62516000D01*
X9120000Y69056000D02*
X8790000Y69056000D01*
X11530000Y62516000D02*
X11200000Y62516000D01*
X11530000Y69056000D02*
X11530000Y62516000D01*
X11200000Y69056000D02*
X11530000Y69056000D01*
X14256000Y59790000D02*
X14256000Y59460000D01*
X20796000Y59790000D02*
X14256000Y59790000D01*
X20796000Y59460000D02*
X20796000Y59790000D01*
X14256000Y57050000D02*
X14256000Y57380000D01*
X20796000Y57050000D02*
X14256000Y57050000D01*
X20796000Y57380000D02*
X20796000Y57050000D01*
X46736000Y71652000D02*
X46736000Y72342000D01*
X46736000Y82272000D02*
X46736000Y81582000D01*
X48456000Y72342000D02*
X48456000Y81582000D01*
X45016000Y72342000D02*
X48456000Y72342000D01*
X45016000Y81582000D02*
X45016000Y72342000D01*
X48456000Y81582000D02*
X45016000Y81582000D01*
X3588000Y59790000D02*
X3588000Y59460000D01*
X10128000Y59790000D02*
X3588000Y59790000D01*
X10128000Y59460000D02*
X10128000Y59790000D01*
X3588000Y57050000D02*
X3588000Y57380000D01*
X10128000Y57050000D02*
X3588000Y57050000D01*
X10128000Y57380000D02*
X10128000Y57050000D01*
X28294000Y81756000D02*
X27964000Y81756000D01*
X28294000Y75216000D02*
X28294000Y81756000D01*
X27964000Y75216000D02*
X28294000Y75216000D01*
X25554000Y81756000D02*
X25884000Y81756000D01*
X25554000Y75216000D02*
X25554000Y81756000D01*
X25884000Y75216000D02*
X25554000Y75216000D01*
X36422000Y31464000D02*
X36092000Y31464000D01*
X36422000Y24924000D02*
X36422000Y31464000D01*
X36092000Y24924000D02*
X36422000Y24924000D01*
X33682000Y31464000D02*
X34012000Y31464000D01*
X33682000Y24924000D02*
X33682000Y31464000D01*
X34012000Y24924000D02*
X33682000Y24924000D01*
X36422000Y42132000D02*
X36092000Y42132000D01*
X36422000Y35592000D02*
X36422000Y42132000D01*
X36092000Y35592000D02*
X36422000Y35592000D01*
X33682000Y42132000D02*
X34012000Y42132000D01*
X33682000Y35592000D02*
X33682000Y42132000D01*
X34012000Y35592000D02*
X33682000Y35592000D01*
X24924000Y59790000D02*
X24924000Y59460000D01*
X31464000Y59790000D02*
X24924000Y59790000D01*
X31464000Y59460000D02*
X31464000Y59790000D01*
X24924000Y57050000D02*
X24924000Y57380000D01*
X31464000Y57050000D02*
X24924000Y57050000D01*
X31464000Y57380000D02*
X31464000Y57050000D01*
X7974000Y31464000D02*
X7644000Y31464000D01*
X7974000Y24924000D02*
X7974000Y31464000D01*
X7644000Y24924000D02*
X7974000Y24924000D01*
X5234000Y31464000D02*
X5564000Y31464000D01*
X5234000Y24924000D02*
X5234000Y31464000D01*
X5564000Y24924000D02*
X5234000Y24924000D01*
X7974000Y42132000D02*
X7644000Y42132000D01*
X7974000Y35592000D02*
X7974000Y42132000D01*
X7644000Y35592000D02*
X7974000Y35592000D01*
X5234000Y42132000D02*
X5564000Y42132000D01*
X5234000Y35592000D02*
X5234000Y42132000D01*
X5564000Y35592000D02*
X5234000Y35592000D01*
X11530000Y31464000D02*
X11200000Y31464000D01*
X11530000Y24924000D02*
X11530000Y31464000D01*
X11200000Y24924000D02*
X11530000Y24924000D01*
X8790000Y31464000D02*
X9120000Y31464000D01*
X8790000Y24924000D02*
X8790000Y31464000D01*
X9120000Y24924000D02*
X8790000Y24924000D01*
X11530000Y42132000D02*
X11200000Y42132000D01*
X11530000Y35592000D02*
X11530000Y42132000D01*
X11200000Y35592000D02*
X11530000Y35592000D01*
X8790000Y42132000D02*
X9120000Y42132000D01*
X8790000Y35592000D02*
X8790000Y42132000D01*
X9120000Y35592000D02*
X8790000Y35592000D01*
X15086000Y31464000D02*
X14756000Y31464000D01*
X15086000Y24924000D02*
X15086000Y31464000D01*
X14756000Y24924000D02*
X15086000Y24924000D01*
X12346000Y31464000D02*
X12676000Y31464000D01*
X12346000Y24924000D02*
X12346000Y31464000D01*
X12676000Y24924000D02*
X12346000Y24924000D01*
X15086000Y42132000D02*
X14756000Y42132000D01*
X15086000Y35592000D02*
X15086000Y42132000D01*
X14756000Y35592000D02*
X15086000Y35592000D01*
X12346000Y42132000D02*
X12676000Y42132000D01*
X12346000Y35592000D02*
X12346000Y42132000D01*
X12676000Y35592000D02*
X12346000Y35592000D01*
X18642000Y31464000D02*
X18312000Y31464000D01*
X18642000Y24924000D02*
X18642000Y31464000D01*
X18312000Y24924000D02*
X18642000Y24924000D01*
X15902000Y31464000D02*
X16232000Y31464000D01*
X15902000Y24924000D02*
X15902000Y31464000D01*
X16232000Y24924000D02*
X15902000Y24924000D01*
X18642000Y42132000D02*
X18312000Y42132000D01*
X18642000Y35592000D02*
X18642000Y42132000D01*
X18312000Y35592000D02*
X18642000Y35592000D01*
X15902000Y42132000D02*
X16232000Y42132000D01*
X15902000Y35592000D02*
X15902000Y42132000D01*
X16232000Y35592000D02*
X15902000Y35592000D01*
X22198000Y31464000D02*
X21868000Y31464000D01*
X22198000Y24924000D02*
X22198000Y31464000D01*
X21868000Y24924000D02*
X22198000Y24924000D01*
X19458000Y31464000D02*
X19788000Y31464000D01*
X19458000Y24924000D02*
X19458000Y31464000D01*
X19788000Y24924000D02*
X19458000Y24924000D01*
X22198000Y42132000D02*
X21868000Y42132000D01*
X22198000Y35592000D02*
X22198000Y42132000D01*
X21868000Y35592000D02*
X22198000Y35592000D01*
X19458000Y42132000D02*
X19788000Y42132000D01*
X19458000Y35592000D02*
X19458000Y42132000D01*
X19788000Y35592000D02*
X19458000Y35592000D01*
X25754000Y31464000D02*
X25424000Y31464000D01*
X25754000Y24924000D02*
X25754000Y31464000D01*
X25424000Y24924000D02*
X25754000Y24924000D01*
X23014000Y31464000D02*
X23344000Y31464000D01*
X23014000Y24924000D02*
X23014000Y31464000D01*
X23344000Y24924000D02*
X23014000Y24924000D01*
X25754000Y42132000D02*
X25424000Y42132000D01*
X25754000Y35592000D02*
X25754000Y42132000D01*
X25424000Y35592000D02*
X25754000Y35592000D01*
X23014000Y42132000D02*
X23344000Y42132000D01*
X23014000Y35592000D02*
X23014000Y42132000D01*
X23344000Y35592000D02*
X23014000Y35592000D01*
X55686478Y60004478D02*
G75*
G03X51248000Y58166000I-1838478J-1838478D01*
G01*
X55686478Y56327522D02*
G75*
G02X51248000Y58166000I-1838478J1838478D01*
G01*
X55698000Y56366000D02*
X55698000Y59966000D01*
X55686478Y77784478D02*
G75*
G03X51248000Y75946000I-1838478J-1838478D01*
G01*
X55686478Y74107522D02*
G75*
G02X51248000Y75946000I-1838478J1838478D01*
G01*
X55698000Y74146000D02*
X55698000Y77746000D01*
X37398478Y83372478D02*
G75*
G03X32960000Y81534000I-1838478J-1838478D01*
G01*
X37398478Y79695522D02*
G75*
G02X32960000Y81534000I-1838478J1838478D01*
G01*
X37410000Y79734000D02*
X37410000Y83334000D01*
X37398478Y74736478D02*
G75*
G03X32960000Y72898000I-1838478J-1838478D01*
G01*
X37398478Y71059522D02*
G75*
G02X32960000Y72898000I-1838478J1838478D01*
G01*
X37410000Y71098000D02*
X37410000Y74698000D01*
X46736000Y57428000D02*
X46736000Y57848000D01*
X46736000Y65508000D02*
X46736000Y65088000D01*
X48506000Y57848000D02*
X48506000Y65088000D01*
X44966000Y57848000D02*
X48506000Y57848000D01*
X44966000Y65088000D02*
X44966000Y57848000D01*
X48506000Y65088000D02*
X44966000Y65088000D01*
X66978000Y79430000D02*
X62978000Y79430000D01*
X66978000Y83030000D02*
X66978000Y79430000D01*
X62978000Y83030000D02*
X66978000Y83030000D01*
X62978000Y79430000D02*
X62978000Y83030000D01*
X66978000Y79430000D02*
X62978000Y83030000D01*
X64978000Y79430000D02*
X64978000Y75230000D01*
X64978000Y87230000D02*
X64978000Y83030000D01*
X61578000Y81230000D02*
X61578000Y77630000D01*
X68378000Y81230000D02*
X68378000Y77630000D01*
X68378000Y77630000D02*
X61578000Y77630000D01*
X69878000Y81230000D02*
X74478000Y83730000D01*
X68378000Y81230000D02*
X69878000Y81230000D01*
X64978000Y87230000D02*
X62478000Y87230000D01*
X61578000Y81230000D02*
X60778000Y81230000D01*
X62478000Y75230000D02*
X64978000Y75230000D01*
X73078000Y85480000D02*
X73078000Y82980000D01*
X73078000Y77080000D02*
X73078000Y79530000D01*
X77328000Y73480000D02*
X57528000Y73480000D01*
X77328000Y89080000D02*
X77328000Y73480000D01*
X57528000Y89080000D02*
X77328000Y89080000D01*
X57528000Y89080000D02*
X57528000Y82480000D01*
X57528000Y80080000D02*
X57528000Y73480000D01*
X79442000Y74482000D02*
X80772000Y74482000D01*
X79442000Y73152000D02*
X79442000Y74482000D01*
X79442000Y71882000D02*
X82102000Y71882000D01*
X82102000Y71882000D02*
X82102000Y69282000D01*
X79442000Y71882000D02*
X79442000Y69282000D01*
X79442000Y69282000D02*
X82102000Y69282000D01*
X84014000Y74482000D02*
X85344000Y74482000D01*
X84014000Y73152000D02*
X84014000Y74482000D01*
X84014000Y71882000D02*
X86674000Y71882000D01*
X86674000Y71882000D02*
X86674000Y69282000D01*
X84014000Y71882000D02*
X84014000Y69282000D01*
X84014000Y69282000D02*
X86674000Y69282000D01*
X61662000Y-21650000D02*
X61662000Y-20320000D01*
X62992000Y-21650000D02*
X61662000Y-21650000D01*
X61662000Y-19050000D02*
X61662000Y-16450000D01*
X64262000Y-19050000D02*
X61662000Y-19050000D01*
X64262000Y-21650000D02*
X64262000Y-19050000D01*
X61662000Y-16450000D02*
X92262000Y-16450000D01*
X64262000Y-21650000D02*
X92262000Y-21650000D01*
X92262000Y-21650000D02*
X92262000Y-16450000D01*
X99314000Y55880000D02*
X99314000Y66040000D01*
X91694000Y55880000D02*
X99314000Y55880000D01*
X91694000Y66040000D02*
X91694000Y55880000D01*
X99314000Y66040000D02*
X91694000Y66040000D01*
X98044000Y66040000D02*
X98044000Y55880000D01*
X99314000Y67564000D02*
X99314000Y77724000D01*
X91694000Y67564000D02*
X99314000Y67564000D01*
X91694000Y77724000D02*
X91694000Y67564000D01*
X99314000Y77724000D02*
X91694000Y77724000D01*
X98044000Y77724000D02*
X98044000Y67564000D01*
X99314000Y79248000D02*
X99314000Y89408000D01*
X91694000Y79248000D02*
X99314000Y79248000D01*
X91694000Y89408000D02*
X91694000Y79248000D01*
X99314000Y89408000D02*
X91694000Y89408000D01*
X98044000Y89408000D02*
X98044000Y79248000D01*
X5274000Y-21650000D02*
X5274000Y-20320000D01*
X6604000Y-21650000D02*
X5274000Y-21650000D01*
X5274000Y-19050000D02*
X5274000Y-16450000D01*
X7874000Y-19050000D02*
X5274000Y-19050000D01*
X7874000Y-21650000D02*
X7874000Y-19050000D01*
X5274000Y-16450000D02*
X28254000Y-16450000D01*
X7874000Y-21650000D02*
X28254000Y-21650000D01*
X28254000Y-21650000D02*
X28254000Y-16450000D01*
X33528000Y-22606000D02*
X43688000Y-22606000D01*
X33528000Y-14986000D02*
X33528000Y-22606000D01*
X43688000Y-14986000D02*
X33528000Y-14986000D01*
X43688000Y-22606000D02*
X43688000Y-14986000D01*
X43688000Y-21336000D02*
X33528000Y-21336000D01*
X89862000Y62646000D02*
X86922000Y62646000D01*
X89862000Y62406000D02*
X86922000Y62406000D01*
X89862000Y62526000D02*
X86922000Y62526000D01*
X86922000Y57986000D02*
X87252000Y57986000D01*
X86922000Y63426000D02*
X86922000Y57986000D01*
X87252000Y63426000D02*
X86922000Y63426000D01*
X89862000Y57986000D02*
X89532000Y57986000D01*
X89862000Y63426000D02*
X89862000Y57986000D01*
X89532000Y63426000D02*
X89862000Y63426000D01*
X53794000Y68742000D02*
X50854000Y68742000D01*
X53794000Y68502000D02*
X50854000Y68502000D01*
X53794000Y68622000D02*
X50854000Y68622000D01*
X50854000Y64082000D02*
X51184000Y64082000D01*
X50854000Y69522000D02*
X50854000Y64082000D01*
X51184000Y69522000D02*
X50854000Y69522000D01*
X53794000Y64082000D02*
X53464000Y64082000D01*
X53794000Y69522000D02*
X53794000Y64082000D01*
X53464000Y69522000D02*
X53794000Y69522000D01*
X53794000Y86522000D02*
X50854000Y86522000D01*
X53794000Y86282000D02*
X50854000Y86282000D01*
X53794000Y86402000D02*
X50854000Y86402000D01*
X50854000Y81862000D02*
X51184000Y81862000D01*
X50854000Y87302000D02*
X50854000Y81862000D01*
X51184000Y87302000D02*
X50854000Y87302000D01*
X53794000Y81862000D02*
X53464000Y81862000D01*
X53794000Y87302000D02*
X53794000Y81862000D01*
X53464000Y87302000D02*
X53794000Y87302000D01*
X28995000Y19634000D02*
X29060000Y19634000D01*
X26820000Y19634000D02*
X26885000Y19634000D01*
X28995000Y16394000D02*
X29060000Y16394000D01*
X26820000Y16394000D02*
X26885000Y16394000D01*
X29060000Y16394000D02*
X29060000Y19634000D01*
X26820000Y16394000D02*
X26820000Y19634000D01*
X32551000Y19634000D02*
X32616000Y19634000D01*
X30376000Y19634000D02*
X30441000Y19634000D01*
X32551000Y16394000D02*
X32616000Y16394000D01*
X30376000Y16394000D02*
X30441000Y16394000D01*
X32616000Y16394000D02*
X32616000Y19634000D01*
X30376000Y16394000D02*
X30376000Y19634000D01*
X36107000Y19634000D02*
X36172000Y19634000D01*
X33932000Y19634000D02*
X33997000Y19634000D01*
X36107000Y16394000D02*
X36172000Y16394000D01*
X33932000Y16394000D02*
X33997000Y16394000D01*
X36172000Y16394000D02*
X36172000Y19634000D01*
X33932000Y16394000D02*
X33932000Y19634000D01*
X7659000Y19634000D02*
X7724000Y19634000D01*
X5484000Y19634000D02*
X5549000Y19634000D01*
X7659000Y16394000D02*
X7724000Y16394000D01*
X5484000Y16394000D02*
X5549000Y16394000D01*
X7724000Y16394000D02*
X7724000Y19634000D01*
X5484000Y16394000D02*
X5484000Y19634000D01*
X11215000Y19634000D02*
X11280000Y19634000D01*
X9040000Y19634000D02*
X9105000Y19634000D01*
X11215000Y16394000D02*
X11280000Y16394000D01*
X9040000Y16394000D02*
X9105000Y16394000D01*
X11280000Y16394000D02*
X11280000Y19634000D01*
X9040000Y16394000D02*
X9040000Y19634000D01*
X14771000Y19634000D02*
X14836000Y19634000D01*
X12596000Y19634000D02*
X12661000Y19634000D01*
X14771000Y16394000D02*
X14836000Y16394000D01*
X12596000Y16394000D02*
X12661000Y16394000D01*
X14836000Y16394000D02*
X14836000Y19634000D01*
X12596000Y16394000D02*
X12596000Y19634000D01*
X18327000Y19634000D02*
X18392000Y19634000D01*
X16152000Y19634000D02*
X16217000Y19634000D01*
X18327000Y16394000D02*
X18392000Y16394000D01*
X16152000Y16394000D02*
X16217000Y16394000D01*
X18392000Y16394000D02*
X18392000Y19634000D01*
X16152000Y16394000D02*
X16152000Y19634000D01*
X21883000Y19634000D02*
X21948000Y19634000D01*
X19708000Y19634000D02*
X19773000Y19634000D01*
X21883000Y16394000D02*
X21948000Y16394000D01*
X19708000Y16394000D02*
X19773000Y16394000D01*
X21948000Y16394000D02*
X21948000Y19634000D01*
X19708000Y16394000D02*
X19708000Y19634000D01*
X25439000Y19634000D02*
X25504000Y19634000D01*
X23264000Y19634000D02*
X23329000Y19634000D01*
X25439000Y16394000D02*
X25504000Y16394000D01*
X23264000Y16394000D02*
X23329000Y16394000D01*
X25504000Y16394000D02*
X25504000Y19634000D01*
X23264000Y16394000D02*
X23264000Y19634000D01*
X16110000Y5540000D02*
X16110000Y4040000D01*
X17360000Y1540000D02*
X21860000Y1540000D01*
X23110000Y4040000D02*
X23110000Y5540000D01*
X21860000Y8040000D02*
X17360000Y8040000D01*
X59570000Y38414000D02*
X59570000Y28134000D01*
X80130000Y38414000D02*
X59570000Y38414000D01*
X80130000Y28134000D02*
X80130000Y38414000D01*
X59570000Y28134000D02*
X80130000Y28134000D01*
X59630000Y35924000D02*
X59630000Y34274000D01*
X80070000Y35924000D02*
X59630000Y35924000D01*
X80070000Y30624000D02*
X80070000Y35924000D01*
X59630000Y30624000D02*
X80070000Y30624000D01*
X59630000Y32274000D02*
X59630000Y30624000D01*
X59630000Y34274000D02*
G75*
G02X59630000Y32274000I0J-1000000D01*
G01*
X69730000Y23174000D02*
X69730000Y12894000D01*
X90290000Y23174000D02*
X69730000Y23174000D01*
X90290000Y12894000D02*
X90290000Y23174000D01*
X69730000Y12894000D02*
X90290000Y12894000D01*
X69790000Y20684000D02*
X69790000Y19034000D01*
X90230000Y20684000D02*
X69790000Y20684000D01*
X90230000Y15384000D02*
X90230000Y20684000D01*
X69790000Y15384000D02*
X90230000Y15384000D01*
X69790000Y17034000D02*
X69790000Y15384000D01*
X69790000Y19034000D02*
G75*
G02X69790000Y17034000I0J-1000000D01*
G01*
X39250000Y44002000D02*
X39250000Y33722000D01*
X57270000Y44002000D02*
X39250000Y44002000D01*
X57270000Y33722000D02*
X57270000Y44002000D01*
X39250000Y33722000D02*
X57270000Y33722000D01*
X39310000Y41512000D02*
X39310000Y39862000D01*
X57210000Y41512000D02*
X39310000Y41512000D01*
X57210000Y36212000D02*
X57210000Y41512000D01*
X39310000Y36212000D02*
X57210000Y36212000D01*
X39310000Y37862000D02*
X39310000Y36212000D01*
X39310000Y39862000D02*
G75*
G02X39310000Y37862000I0J-1000000D01*
G01*
X57270000Y12894000D02*
X57270000Y23174000D01*
X39250000Y12894000D02*
X57270000Y12894000D01*
X39250000Y23174000D02*
X39250000Y12894000D01*
X57270000Y23174000D02*
X39250000Y23174000D01*
X57210000Y15384000D02*
X57210000Y17034000D01*
X39310000Y15384000D02*
X57210000Y15384000D01*
X39310000Y20684000D02*
X39310000Y15384000D01*
X57210000Y20684000D02*
X39310000Y20684000D01*
X57210000Y19034000D02*
X57210000Y20684000D01*
X57210000Y17034000D02*
G75*
G02X57210000Y19034000I0J1000000D01*
G01*
X61662000Y-8950000D02*
X61662000Y-7620000D01*
X62992000Y-8950000D02*
X61662000Y-8950000D01*
X61662000Y-6350000D02*
X61662000Y-3750000D01*
X64262000Y-6350000D02*
X61662000Y-6350000D01*
X64262000Y-8950000D02*
X64262000Y-6350000D01*
X61662000Y-3750000D02*
X92262000Y-3750000D01*
X64262000Y-8950000D02*
X92262000Y-8950000D01*
X92262000Y-8950000D02*
X92262000Y-3750000D01*
D10*
X98044000Y6604000D02*
X98044000Y52324000D01*
X92964000Y52324000D02*
X92964000Y9144000D01*
X98044000Y52324000D02*
X92964000Y52324000D01*
X98044000Y6604000D02*
X95504000Y6604000D01*
X92684000Y7874000D02*
X92684000Y6324000D01*
X95504000Y6604000D02*
X95504000Y9144000D01*
X95504000Y9144000D02*
X92964000Y9144000D01*
X92684000Y6324000D02*
X94234000Y6324000D01*
X29464000Y1524000D02*
X47244000Y1524000D01*
X47244000Y1524000D02*
X47244000Y4064000D01*
X47244000Y4064000D02*
X29464000Y4064000D01*
X26644000Y1244000D02*
X28194000Y1244000D01*
X29464000Y1524000D02*
X29464000Y4064000D01*
X28194000Y4344000D02*
X26644000Y4344000D01*
X26644000Y4344000D02*
X26644000Y1244000D01*
X52324000Y1524000D02*
X70104000Y1524000D01*
X70104000Y1524000D02*
X70104000Y4064000D01*
X70104000Y4064000D02*
X52324000Y4064000D01*
X49504000Y1244000D02*
X51054000Y1244000D01*
X52324000Y1524000D02*
X52324000Y4064000D01*
X51054000Y4344000D02*
X49504000Y4344000D01*
X49504000Y4344000D02*
X49504000Y1244000D01*
X75184000Y1524000D02*
X92964000Y1524000D01*
X92964000Y1524000D02*
X92964000Y4064000D01*
X92964000Y4064000D02*
X75184000Y4064000D01*
X72364000Y1244000D02*
X73914000Y1244000D01*
X75184000Y1524000D02*
X75184000Y4064000D01*
X73914000Y4344000D02*
X72364000Y4344000D01*
X72364000Y4344000D02*
X72364000Y1244000D01*
X20320000Y49784000D02*
X43180000Y49784000D01*
X43180000Y49784000D02*
X43180000Y52324000D01*
X43180000Y52324000D02*
X20320000Y52324000D01*
X17500000Y49504000D02*
X19050000Y49504000D01*
X20320000Y49784000D02*
X20320000Y52324000D01*
X19050000Y52604000D02*
X17500000Y52604000D01*
X17500000Y52604000D02*
X17500000Y49504000D01*
X47244000Y49784000D02*
X65024000Y49784000D01*
X65024000Y49784000D02*
X65024000Y52324000D01*
X65024000Y52324000D02*
X47244000Y52324000D01*
X44424000Y49504000D02*
X45974000Y49504000D01*
X47244000Y49784000D02*
X47244000Y52324000D01*
X45974000Y52604000D02*
X44424000Y52604000D01*
X44424000Y52604000D02*
X44424000Y49504000D01*
X70104000Y49784000D02*
X87884000Y49784000D01*
X87884000Y49784000D02*
X87884000Y52324000D01*
X87884000Y52324000D02*
X70104000Y52324000D01*
X67284000Y49504000D02*
X68834000Y49504000D01*
X70104000Y49784000D02*
X70104000Y52324000D01*
X68834000Y52604000D02*
X67284000Y52604000D01*
X67284000Y52604000D02*
X67284000Y49504000D01*
X34318380Y62154953D02*
X34318380Y61583524D01*
X34318380Y61869239D02*
X33318380Y61869239D01*
X33461238Y61774000D01*
X33556476Y61678762D01*
X33604095Y61583524D01*
X33318380Y62774000D02*
X33318380Y62869239D01*
X33366000Y62964477D01*
X33413619Y63012096D01*
X33508857Y63059715D01*
X33699333Y63107334D01*
X33937428Y63107334D01*
X34127904Y63059715D01*
X34223142Y63012096D01*
X34270761Y62964477D01*
X34318380Y62869239D01*
X34318380Y62774000D01*
X34270761Y62678762D01*
X34223142Y62631143D01*
X34127904Y62583524D01*
X33937428Y62535905D01*
X33699333Y62535905D01*
X33508857Y62583524D01*
X33413619Y62631143D01*
X33366000Y62678762D01*
X33318380Y62774000D01*
X33318380Y63726381D02*
X33318380Y63821620D01*
X33366000Y63916858D01*
X33413619Y63964477D01*
X33508857Y64012096D01*
X33699333Y64059715D01*
X33937428Y64059715D01*
X34127904Y64012096D01*
X34223142Y63964477D01*
X34270761Y63916858D01*
X34318380Y63821620D01*
X34318380Y63726381D01*
X34270761Y63631143D01*
X34223142Y63583524D01*
X34127904Y63535905D01*
X33937428Y63488286D01*
X33699333Y63488286D01*
X33508857Y63535905D01*
X33413619Y63583524D01*
X33366000Y63631143D01*
X33318380Y63726381D01*
X33651714Y64916858D02*
X34318380Y64916858D01*
X33651714Y64488286D02*
X34175523Y64488286D01*
X34270761Y64535905D01*
X34318380Y64631143D01*
X34318380Y64774000D01*
X34270761Y64869239D01*
X34223142Y64916858D01*
X30214380Y63595524D02*
X29214380Y63595524D01*
X29214380Y63976477D01*
X29262000Y64071715D01*
X29309619Y64119334D01*
X29404857Y64166953D01*
X29547714Y64166953D01*
X29642952Y64119334D01*
X29690571Y64071715D01*
X29738190Y63976477D01*
X29738190Y63595524D01*
X30119142Y65166953D02*
X30166761Y65119334D01*
X30214380Y64976477D01*
X30214380Y64881239D01*
X30166761Y64738381D01*
X30071523Y64643143D01*
X29976285Y64595524D01*
X29785809Y64547905D01*
X29642952Y64547905D01*
X29452476Y64595524D01*
X29357238Y64643143D01*
X29262000Y64738381D01*
X29214380Y64881239D01*
X29214380Y64976477D01*
X29262000Y65119334D01*
X29309619Y65166953D01*
X29642952Y65738381D02*
X29595333Y65643143D01*
X29547714Y65595524D01*
X29452476Y65547905D01*
X29404857Y65547905D01*
X29309619Y65595524D01*
X29262000Y65643143D01*
X29214380Y65738381D01*
X29214380Y65928858D01*
X29262000Y66024096D01*
X29309619Y66071715D01*
X29404857Y66119334D01*
X29452476Y66119334D01*
X29547714Y66071715D01*
X29595333Y66024096D01*
X29642952Y65928858D01*
X29642952Y65738381D01*
X29690571Y65643143D01*
X29738190Y65595524D01*
X29833428Y65547905D01*
X30023904Y65547905D01*
X30119142Y65595524D01*
X30166761Y65643143D01*
X30214380Y65738381D01*
X30214380Y65928858D01*
X30166761Y66024096D01*
X30119142Y66071715D01*
X30023904Y66119334D01*
X29833428Y66119334D01*
X29738190Y66071715D01*
X29690571Y66024096D01*
X29642952Y65928858D01*
X30214380Y67071715D02*
X30214380Y66500286D01*
X30214380Y66786000D02*
X29214380Y66786000D01*
X29357238Y66690762D01*
X29452476Y66595524D01*
X29500095Y66500286D01*
X29214380Y67405048D02*
X29214380Y68071715D01*
X30214380Y67643143D01*
X88450380Y82653334D02*
X88450380Y82081905D01*
X88450380Y82367620D02*
X87450380Y82367620D01*
X87593238Y82272381D01*
X87688476Y82177143D01*
X87736095Y82081905D01*
X87450380Y83272381D02*
X87450380Y83367620D01*
X87498000Y83462858D01*
X87545619Y83510477D01*
X87640857Y83558096D01*
X87831333Y83605715D01*
X88069428Y83605715D01*
X88259904Y83558096D01*
X88355142Y83510477D01*
X88402761Y83462858D01*
X88450380Y83367620D01*
X88450380Y83272381D01*
X88402761Y83177143D01*
X88355142Y83129524D01*
X88259904Y83081905D01*
X88069428Y83034286D01*
X87831333Y83034286D01*
X87640857Y83081905D01*
X87545619Y83129524D01*
X87498000Y83177143D01*
X87450380Y83272381D01*
X87450380Y84224762D02*
X87450380Y84320000D01*
X87498000Y84415239D01*
X87545619Y84462858D01*
X87640857Y84510477D01*
X87831333Y84558096D01*
X88069428Y84558096D01*
X88259904Y84510477D01*
X88355142Y84462858D01*
X88402761Y84415239D01*
X88450380Y84320000D01*
X88450380Y84224762D01*
X88402761Y84129524D01*
X88355142Y84081905D01*
X88259904Y84034286D01*
X88069428Y83986667D01*
X87831333Y83986667D01*
X87640857Y84034286D01*
X87545619Y84081905D01*
X87498000Y84129524D01*
X87450380Y84224762D01*
X88450380Y84986667D02*
X87450380Y84986667D01*
X88450380Y85558096D02*
X87878952Y85129524D01*
X87450380Y85558096D02*
X88021809Y84986667D01*
X23312380Y65095524D02*
X23312380Y64524096D01*
X23312380Y64809810D02*
X22312380Y64809810D01*
X22455238Y64714572D01*
X22550476Y64619334D01*
X22598095Y64524096D01*
X22312380Y65714572D02*
X22312380Y65809810D01*
X22360000Y65905048D01*
X22407619Y65952667D01*
X22502857Y66000286D01*
X22693333Y66047905D01*
X22931428Y66047905D01*
X23121904Y66000286D01*
X23217142Y65952667D01*
X23264761Y65905048D01*
X23312380Y65809810D01*
X23312380Y65714572D01*
X23264761Y65619334D01*
X23217142Y65571715D01*
X23121904Y65524096D01*
X22931428Y65476477D01*
X22693333Y65476477D01*
X22502857Y65524096D01*
X22407619Y65571715D01*
X22360000Y65619334D01*
X22312380Y65714572D01*
X23312380Y66476477D02*
X22312380Y66476477D01*
X23312380Y67047905D02*
X22740952Y66619334D01*
X22312380Y67047905D02*
X22883809Y66476477D01*
X12644380Y65095524D02*
X12644380Y64524096D01*
X12644380Y64809810D02*
X11644380Y64809810D01*
X11787238Y64714572D01*
X11882476Y64619334D01*
X11930095Y64524096D01*
X11644380Y65714572D02*
X11644380Y65809810D01*
X11692000Y65905048D01*
X11739619Y65952667D01*
X11834857Y66000286D01*
X12025333Y66047905D01*
X12263428Y66047905D01*
X12453904Y66000286D01*
X12549142Y65952667D01*
X12596761Y65905048D01*
X12644380Y65809810D01*
X12644380Y65714572D01*
X12596761Y65619334D01*
X12549142Y65571715D01*
X12453904Y65524096D01*
X12263428Y65476477D01*
X12025333Y65476477D01*
X11834857Y65524096D01*
X11739619Y65571715D01*
X11692000Y65619334D01*
X11644380Y65714572D01*
X12644380Y66476477D02*
X11644380Y66476477D01*
X12644380Y67047905D02*
X12072952Y66619334D01*
X11644380Y67047905D02*
X12215809Y66476477D01*
X16541904Y56332381D02*
X16589523Y56380000D01*
X16684761Y56427620D01*
X16922857Y56427620D01*
X17018095Y56380000D01*
X17065714Y56332381D01*
X17113333Y56237143D01*
X17113333Y56141905D01*
X17065714Y55999048D01*
X16494285Y55427620D01*
X17113333Y55427620D01*
X17494285Y56332381D02*
X17541904Y56380000D01*
X17637142Y56427620D01*
X17875238Y56427620D01*
X17970476Y56380000D01*
X18018095Y56332381D01*
X18065714Y56237143D01*
X18065714Y56141905D01*
X18018095Y55999048D01*
X17446666Y55427620D01*
X18065714Y55427620D01*
X18684761Y56427620D02*
X18780000Y56427620D01*
X18875238Y56380000D01*
X18922857Y56332381D01*
X18970476Y56237143D01*
X19018095Y56046667D01*
X19018095Y55808572D01*
X18970476Y55618096D01*
X18922857Y55522858D01*
X18875238Y55475239D01*
X18780000Y55427620D01*
X18684761Y55427620D01*
X18589523Y55475239D01*
X18541904Y55522858D01*
X18494285Y55618096D01*
X18446666Y55808572D01*
X18446666Y56046667D01*
X18494285Y56237143D01*
X18541904Y56332381D01*
X18589523Y56380000D01*
X18684761Y56427620D01*
X43468380Y75676286D02*
X43468380Y76295334D01*
X43849333Y75962000D01*
X43849333Y76104858D01*
X43896952Y76200096D01*
X43944571Y76247715D01*
X44039809Y76295334D01*
X44277904Y76295334D01*
X44373142Y76247715D01*
X44420761Y76200096D01*
X44468380Y76104858D01*
X44468380Y75819143D01*
X44420761Y75723905D01*
X44373142Y75676286D01*
X43468380Y76628667D02*
X43468380Y77247715D01*
X43849333Y76914381D01*
X43849333Y77057239D01*
X43896952Y77152477D01*
X43944571Y77200096D01*
X44039809Y77247715D01*
X44277904Y77247715D01*
X44373142Y77200096D01*
X44420761Y77152477D01*
X44468380Y77057239D01*
X44468380Y76771524D01*
X44420761Y76676286D01*
X44373142Y76628667D01*
X43468380Y77866762D02*
X43468380Y77962000D01*
X43516000Y78057239D01*
X43563619Y78104858D01*
X43658857Y78152477D01*
X43849333Y78200096D01*
X44087428Y78200096D01*
X44277904Y78152477D01*
X44373142Y78104858D01*
X44420761Y78057239D01*
X44468380Y77962000D01*
X44468380Y77866762D01*
X44420761Y77771524D01*
X44373142Y77723905D01*
X44277904Y77676286D01*
X44087428Y77628667D01*
X43849333Y77628667D01*
X43658857Y77676286D01*
X43563619Y77723905D01*
X43516000Y77771524D01*
X43468380Y77866762D01*
X5619904Y56332381D02*
X5667523Y56380000D01*
X5762761Y56427620D01*
X6000857Y56427620D01*
X6096095Y56380000D01*
X6143714Y56332381D01*
X6191333Y56237143D01*
X6191333Y56141905D01*
X6143714Y55999048D01*
X5572285Y55427620D01*
X6191333Y55427620D01*
X6572285Y56332381D02*
X6619904Y56380000D01*
X6715142Y56427620D01*
X6953238Y56427620D01*
X7048476Y56380000D01*
X7096095Y56332381D01*
X7143714Y56237143D01*
X7143714Y56141905D01*
X7096095Y55999048D01*
X6524666Y55427620D01*
X7143714Y55427620D01*
X7762761Y56427620D02*
X7858000Y56427620D01*
X7953238Y56380000D01*
X8000857Y56332381D01*
X8048476Y56237143D01*
X8096095Y56046667D01*
X8096095Y55808572D01*
X8048476Y55618096D01*
X8000857Y55522858D01*
X7953238Y55475239D01*
X7858000Y55427620D01*
X7762761Y55427620D01*
X7667523Y55475239D01*
X7619904Y55522858D01*
X7572285Y55618096D01*
X7524666Y55808572D01*
X7524666Y56046667D01*
X7572285Y56237143D01*
X7619904Y56332381D01*
X7667523Y56380000D01*
X7762761Y56427620D01*
X29746380Y77795524D02*
X29746380Y77224096D01*
X29746380Y77509810D02*
X28746380Y77509810D01*
X28889238Y77414572D01*
X28984476Y77319334D01*
X29032095Y77224096D01*
X29746380Y78224096D02*
X28746380Y78224096D01*
X29746380Y78795524D02*
X29174952Y78366953D01*
X28746380Y78795524D02*
X29317809Y78224096D01*
X28746380Y79700286D02*
X28746380Y79224096D01*
X29222571Y79176477D01*
X29174952Y79224096D01*
X29127333Y79319334D01*
X29127333Y79557429D01*
X29174952Y79652667D01*
X29222571Y79700286D01*
X29317809Y79747905D01*
X29555904Y79747905D01*
X29651142Y79700286D01*
X29698761Y79652667D01*
X29746380Y79557429D01*
X29746380Y79319334D01*
X29698761Y79224096D01*
X29651142Y79176477D01*
X37874380Y27503524D02*
X37874380Y26932096D01*
X37874380Y27217810D02*
X36874380Y27217810D01*
X37017238Y27122572D01*
X37112476Y27027334D01*
X37160095Y26932096D01*
X36874380Y28122572D02*
X36874380Y28217810D01*
X36922000Y28313048D01*
X36969619Y28360667D01*
X37064857Y28408286D01*
X37255333Y28455905D01*
X37493428Y28455905D01*
X37683904Y28408286D01*
X37779142Y28360667D01*
X37826761Y28313048D01*
X37874380Y28217810D01*
X37874380Y28122572D01*
X37826761Y28027334D01*
X37779142Y27979715D01*
X37683904Y27932096D01*
X37493428Y27884477D01*
X37255333Y27884477D01*
X37064857Y27932096D01*
X36969619Y27979715D01*
X36922000Y28027334D01*
X36874380Y28122572D01*
X37874380Y28884477D02*
X36874380Y28884477D01*
X37874380Y29455905D02*
X37302952Y29027334D01*
X36874380Y29455905D02*
X37445809Y28884477D01*
X37874380Y38171524D02*
X37874380Y37600096D01*
X37874380Y37885810D02*
X36874380Y37885810D01*
X37017238Y37790572D01*
X37112476Y37695334D01*
X37160095Y37600096D01*
X36874380Y38790572D02*
X36874380Y38885810D01*
X36922000Y38981048D01*
X36969619Y39028667D01*
X37064857Y39076286D01*
X37255333Y39123905D01*
X37493428Y39123905D01*
X37683904Y39076286D01*
X37779142Y39028667D01*
X37826761Y38981048D01*
X37874380Y38885810D01*
X37874380Y38790572D01*
X37826761Y38695334D01*
X37779142Y38647715D01*
X37683904Y38600096D01*
X37493428Y38552477D01*
X37255333Y38552477D01*
X37064857Y38600096D01*
X36969619Y38647715D01*
X36922000Y38695334D01*
X36874380Y38790572D01*
X37874380Y39552477D02*
X36874380Y39552477D01*
X37874380Y40123905D02*
X37302952Y39695334D01*
X36874380Y40123905D02*
X37445809Y39552477D01*
X26955904Y56332381D02*
X27003523Y56380000D01*
X27098761Y56427620D01*
X27336857Y56427620D01*
X27432095Y56380000D01*
X27479714Y56332381D01*
X27527333Y56237143D01*
X27527333Y56141905D01*
X27479714Y55999048D01*
X26908285Y55427620D01*
X27527333Y55427620D01*
X27908285Y56332381D02*
X27955904Y56380000D01*
X28051142Y56427620D01*
X28289238Y56427620D01*
X28384476Y56380000D01*
X28432095Y56332381D01*
X28479714Y56237143D01*
X28479714Y56141905D01*
X28432095Y55999048D01*
X27860666Y55427620D01*
X28479714Y55427620D01*
X29098761Y56427620D02*
X29194000Y56427620D01*
X29289238Y56380000D01*
X29336857Y56332381D01*
X29384476Y56237143D01*
X29432095Y56046667D01*
X29432095Y55808572D01*
X29384476Y55618096D01*
X29336857Y55522858D01*
X29289238Y55475239D01*
X29194000Y55427620D01*
X29098761Y55427620D01*
X29003523Y55475239D01*
X28955904Y55522858D01*
X28908285Y55618096D01*
X28860666Y55808572D01*
X28860666Y56046667D01*
X28908285Y56237143D01*
X28955904Y56332381D01*
X29003523Y56380000D01*
X29098761Y56427620D01*
X56185619Y55451715D02*
X56138000Y55499334D01*
X56090380Y55594572D01*
X56090380Y55832667D01*
X56138000Y55927905D01*
X56185619Y55975524D01*
X56280857Y56023143D01*
X56376095Y56023143D01*
X56518952Y55975524D01*
X57090380Y55404096D01*
X57090380Y56023143D01*
X57090380Y56451715D02*
X56090380Y56451715D01*
X57090380Y57023143D01*
X56090380Y57023143D01*
X56090380Y57404096D02*
X56090380Y58070762D01*
X57090380Y57642191D01*
X56090380Y58642191D02*
X56090380Y58737429D01*
X56138000Y58832667D01*
X56185619Y58880286D01*
X56280857Y58927905D01*
X56471333Y58975524D01*
X56709428Y58975524D01*
X56899904Y58927905D01*
X56995142Y58880286D01*
X57042761Y58832667D01*
X57090380Y58737429D01*
X57090380Y58642191D01*
X57042761Y58546953D01*
X56995142Y58499334D01*
X56899904Y58451715D01*
X56709428Y58404096D01*
X56471333Y58404096D01*
X56280857Y58451715D01*
X56185619Y58499334D01*
X56138000Y58546953D01*
X56090380Y58642191D01*
X56090380Y59594572D02*
X56090380Y59689810D01*
X56138000Y59785048D01*
X56185619Y59832667D01*
X56280857Y59880286D01*
X56471333Y59927905D01*
X56709428Y59927905D01*
X56899904Y59880286D01*
X56995142Y59832667D01*
X57042761Y59785048D01*
X57090380Y59689810D01*
X57090380Y59594572D01*
X57042761Y59499334D01*
X56995142Y59451715D01*
X56899904Y59404096D01*
X56709428Y59356477D01*
X56471333Y59356477D01*
X56280857Y59404096D01*
X56185619Y59451715D01*
X56138000Y59499334D01*
X56090380Y59594572D01*
X56090380Y60546953D02*
X56090380Y60642191D01*
X56138000Y60737429D01*
X56185619Y60785048D01*
X56280857Y60832667D01*
X56471333Y60880286D01*
X56709428Y60880286D01*
X56899904Y60832667D01*
X56995142Y60785048D01*
X57042761Y60737429D01*
X57090380Y60642191D01*
X57090380Y60546953D01*
X57042761Y60451715D01*
X56995142Y60404096D01*
X56899904Y60356477D01*
X56709428Y60308858D01*
X56471333Y60308858D01*
X56280857Y60356477D01*
X56185619Y60404096D01*
X56138000Y60451715D01*
X56090380Y60546953D01*
X56185619Y73231715D02*
X56138000Y73279334D01*
X56090380Y73374572D01*
X56090380Y73612667D01*
X56138000Y73707905D01*
X56185619Y73755524D01*
X56280857Y73803143D01*
X56376095Y73803143D01*
X56518952Y73755524D01*
X57090380Y73184096D01*
X57090380Y73803143D01*
X57090380Y74231715D02*
X56090380Y74231715D01*
X57090380Y74803143D01*
X56090380Y74803143D01*
X56090380Y75184096D02*
X56090380Y75850762D01*
X57090380Y75422191D01*
X56090380Y76422191D02*
X56090380Y76517429D01*
X56138000Y76612667D01*
X56185619Y76660286D01*
X56280857Y76707905D01*
X56471333Y76755524D01*
X56709428Y76755524D01*
X56899904Y76707905D01*
X56995142Y76660286D01*
X57042761Y76612667D01*
X57090380Y76517429D01*
X57090380Y76422191D01*
X57042761Y76326953D01*
X56995142Y76279334D01*
X56899904Y76231715D01*
X56709428Y76184096D01*
X56471333Y76184096D01*
X56280857Y76231715D01*
X56185619Y76279334D01*
X56138000Y76326953D01*
X56090380Y76422191D01*
X56090380Y77374572D02*
X56090380Y77469810D01*
X56138000Y77565048D01*
X56185619Y77612667D01*
X56280857Y77660286D01*
X56471333Y77707905D01*
X56709428Y77707905D01*
X56899904Y77660286D01*
X56995142Y77612667D01*
X57042761Y77565048D01*
X57090380Y77469810D01*
X57090380Y77374572D01*
X57042761Y77279334D01*
X56995142Y77231715D01*
X56899904Y77184096D01*
X56709428Y77136477D01*
X56471333Y77136477D01*
X56280857Y77184096D01*
X56185619Y77231715D01*
X56138000Y77279334D01*
X56090380Y77374572D01*
X56090380Y78326953D02*
X56090380Y78422191D01*
X56138000Y78517429D01*
X56185619Y78565048D01*
X56280857Y78612667D01*
X56471333Y78660286D01*
X56709428Y78660286D01*
X56899904Y78612667D01*
X56995142Y78565048D01*
X57042761Y78517429D01*
X57090380Y78422191D01*
X57090380Y78326953D01*
X57042761Y78231715D01*
X56995142Y78184096D01*
X56899904Y78136477D01*
X56709428Y78088858D01*
X56471333Y78088858D01*
X56280857Y78136477D01*
X56185619Y78184096D01*
X56138000Y78231715D01*
X56090380Y78326953D01*
X38278571Y79700667D02*
X38326190Y79843524D01*
X38373809Y79891143D01*
X38469047Y79938762D01*
X38611904Y79938762D01*
X38707142Y79891143D01*
X38754761Y79843524D01*
X38802380Y79748286D01*
X38802380Y79367334D01*
X37802380Y79367334D01*
X37802380Y79700667D01*
X37850000Y79795905D01*
X37897619Y79843524D01*
X37992857Y79891143D01*
X38088095Y79891143D01*
X38183333Y79843524D01*
X38230952Y79795905D01*
X38278571Y79700667D01*
X38278571Y79367334D01*
X38754761Y80319715D02*
X38802380Y80462572D01*
X38802380Y80700667D01*
X38754761Y80795905D01*
X38707142Y80843524D01*
X38611904Y80891143D01*
X38516666Y80891143D01*
X38421428Y80843524D01*
X38373809Y80795905D01*
X38326190Y80700667D01*
X38278571Y80510191D01*
X38230952Y80414953D01*
X38183333Y80367334D01*
X38088095Y80319715D01*
X37992857Y80319715D01*
X37897619Y80367334D01*
X37850000Y80414953D01*
X37802380Y80510191D01*
X37802380Y80748286D01*
X37850000Y80891143D01*
X37897619Y81272096D02*
X37850000Y81319715D01*
X37802380Y81414953D01*
X37802380Y81653048D01*
X37850000Y81748286D01*
X37897619Y81795905D01*
X37992857Y81843524D01*
X38088095Y81843524D01*
X38230952Y81795905D01*
X38802380Y81224477D01*
X38802380Y81843524D01*
X37802380Y82748286D02*
X37802380Y82272096D01*
X38278571Y82224477D01*
X38230952Y82272096D01*
X38183333Y82367334D01*
X38183333Y82605429D01*
X38230952Y82700667D01*
X38278571Y82748286D01*
X38373809Y82795905D01*
X38611904Y82795905D01*
X38707142Y82748286D01*
X38754761Y82700667D01*
X38802380Y82605429D01*
X38802380Y82367334D01*
X38754761Y82272096D01*
X38707142Y82224477D01*
X37802380Y83414953D02*
X37802380Y83510191D01*
X37850000Y83605429D01*
X37897619Y83653048D01*
X37992857Y83700667D01*
X38183333Y83748286D01*
X38421428Y83748286D01*
X38611904Y83700667D01*
X38707142Y83653048D01*
X38754761Y83605429D01*
X38802380Y83510191D01*
X38802380Y83414953D01*
X38754761Y83319715D01*
X38707142Y83272096D01*
X38611904Y83224477D01*
X38421428Y83176858D01*
X38183333Y83176858D01*
X37992857Y83224477D01*
X37897619Y83272096D01*
X37850000Y83319715D01*
X37802380Y83414953D01*
X37897619Y70183715D02*
X37850000Y70231334D01*
X37802380Y70326572D01*
X37802380Y70564667D01*
X37850000Y70659905D01*
X37897619Y70707524D01*
X37992857Y70755143D01*
X38088095Y70755143D01*
X38230952Y70707524D01*
X38802380Y70136096D01*
X38802380Y70755143D01*
X38802380Y71183715D02*
X37802380Y71183715D01*
X38802380Y71755143D01*
X37802380Y71755143D01*
X37802380Y72136096D02*
X37802380Y72802762D01*
X38802380Y72374191D01*
X37802380Y73374191D02*
X37802380Y73469429D01*
X37850000Y73564667D01*
X37897619Y73612286D01*
X37992857Y73659905D01*
X38183333Y73707524D01*
X38421428Y73707524D01*
X38611904Y73659905D01*
X38707142Y73612286D01*
X38754761Y73564667D01*
X38802380Y73469429D01*
X38802380Y73374191D01*
X38754761Y73278953D01*
X38707142Y73231334D01*
X38611904Y73183715D01*
X38421428Y73136096D01*
X38183333Y73136096D01*
X37992857Y73183715D01*
X37897619Y73231334D01*
X37850000Y73278953D01*
X37802380Y73374191D01*
X37802380Y74326572D02*
X37802380Y74421810D01*
X37850000Y74517048D01*
X37897619Y74564667D01*
X37992857Y74612286D01*
X38183333Y74659905D01*
X38421428Y74659905D01*
X38611904Y74612286D01*
X38707142Y74564667D01*
X38754761Y74517048D01*
X38802380Y74421810D01*
X38802380Y74326572D01*
X38754761Y74231334D01*
X38707142Y74183715D01*
X38611904Y74136096D01*
X38421428Y74088477D01*
X38183333Y74088477D01*
X37992857Y74136096D01*
X37897619Y74183715D01*
X37850000Y74231334D01*
X37802380Y74326572D01*
X37802380Y75278953D02*
X37802380Y75374191D01*
X37850000Y75469429D01*
X37897619Y75517048D01*
X37992857Y75564667D01*
X38183333Y75612286D01*
X38421428Y75612286D01*
X38611904Y75564667D01*
X38707142Y75517048D01*
X38754761Y75469429D01*
X38802380Y75374191D01*
X38802380Y75278953D01*
X38754761Y75183715D01*
X38707142Y75136096D01*
X38611904Y75088477D01*
X38421428Y75040858D01*
X38183333Y75040858D01*
X37992857Y75088477D01*
X37897619Y75136096D01*
X37850000Y75183715D01*
X37802380Y75278953D01*
X49958380Y61301334D02*
X49958380Y60825143D01*
X48958380Y60825143D01*
X49958380Y62158477D02*
X49958380Y61587048D01*
X49958380Y61872762D02*
X48958380Y61872762D01*
X49101238Y61777524D01*
X49196476Y61682286D01*
X49244095Y61587048D01*
X90744380Y64254096D02*
X89744380Y64254096D01*
X90744380Y64825524D02*
X90172952Y64396953D01*
X89744380Y64825524D02*
X90315809Y64254096D01*
X54676380Y70350096D02*
X53676380Y70350096D01*
X54676380Y70921524D02*
X54104952Y70492953D01*
X53676380Y70921524D02*
X54247809Y70350096D01*
X54676380Y88130096D02*
X53676380Y88130096D01*
X54676380Y88701524D02*
X54104952Y88272953D01*
X53676380Y88701524D02*
X54247809Y88130096D01*
X37536380Y17676953D02*
X37536380Y17105524D01*
X37536380Y17391239D02*
X36536380Y17391239D01*
X36679238Y17296000D01*
X36774476Y17200762D01*
X36822095Y17105524D01*
X36536380Y18296000D02*
X36536380Y18391239D01*
X36584000Y18486477D01*
X36631619Y18534096D01*
X36726857Y18581715D01*
X36917333Y18629334D01*
X37155428Y18629334D01*
X37345904Y18581715D01*
X37441142Y18534096D01*
X37488761Y18486477D01*
X37536380Y18391239D01*
X37536380Y18296000D01*
X37488761Y18200762D01*
X37441142Y18153143D01*
X37345904Y18105524D01*
X37155428Y18057905D01*
X36917333Y18057905D01*
X36726857Y18105524D01*
X36631619Y18153143D01*
X36584000Y18200762D01*
X36536380Y18296000D01*
X36536380Y19248381D02*
X36536380Y19343620D01*
X36584000Y19438858D01*
X36631619Y19486477D01*
X36726857Y19534096D01*
X36917333Y19581715D01*
X37155428Y19581715D01*
X37345904Y19534096D01*
X37441142Y19486477D01*
X37488761Y19438858D01*
X37536380Y19343620D01*
X37536380Y19248381D01*
X37488761Y19153143D01*
X37441142Y19105524D01*
X37345904Y19057905D01*
X37155428Y19010286D01*
X36917333Y19010286D01*
X36726857Y19057905D01*
X36631619Y19105524D01*
X36584000Y19153143D01*
X36536380Y19248381D01*
X36869714Y20010286D02*
X37869714Y20010286D01*
X36917333Y20010286D02*
X36869714Y20105524D01*
X36869714Y20296000D01*
X36917333Y20391239D01*
X36964952Y20438858D01*
X37060190Y20486477D01*
X37345904Y20486477D01*
X37441142Y20438858D01*
X37488761Y20391239D01*
X37536380Y20296000D01*
X37536380Y20105524D01*
X37488761Y20010286D01*
X80855714Y32035905D02*
X81522380Y32035905D01*
X80474761Y31797810D02*
X81189047Y31559715D01*
X81189047Y32178762D01*
X80522380Y33035905D02*
X80522380Y32559715D01*
X80998571Y32512096D01*
X80950952Y32559715D01*
X80903333Y32654953D01*
X80903333Y32893048D01*
X80950952Y32988286D01*
X80998571Y33035905D01*
X81093809Y33083524D01*
X81331904Y33083524D01*
X81427142Y33035905D01*
X81474761Y32988286D01*
X81522380Y32893048D01*
X81522380Y32654953D01*
X81474761Y32559715D01*
X81427142Y32512096D01*
X80522380Y33702572D02*
X80522380Y33797810D01*
X80570000Y33893048D01*
X80617619Y33940667D01*
X80712857Y33988286D01*
X80903333Y34035905D01*
X81141428Y34035905D01*
X81331904Y33988286D01*
X81427142Y33940667D01*
X81474761Y33893048D01*
X81522380Y33797810D01*
X81522380Y33702572D01*
X81474761Y33607334D01*
X81427142Y33559715D01*
X81331904Y33512096D01*
X81141428Y33464477D01*
X80903333Y33464477D01*
X80712857Y33512096D01*
X80617619Y33559715D01*
X80570000Y33607334D01*
X80522380Y33702572D01*
X80855714Y34893048D02*
X81522380Y34893048D01*
X80474761Y34654953D02*
X81189047Y34416858D01*
X81189047Y35035905D01*
X91015714Y16795905D02*
X91682380Y16795905D01*
X90634761Y16557810D02*
X91349047Y16319715D01*
X91349047Y16938762D01*
X90682380Y17795905D02*
X90682380Y17319715D01*
X91158571Y17272096D01*
X91110952Y17319715D01*
X91063333Y17414953D01*
X91063333Y17653048D01*
X91110952Y17748286D01*
X91158571Y17795905D01*
X91253809Y17843524D01*
X91491904Y17843524D01*
X91587142Y17795905D01*
X91634761Y17748286D01*
X91682380Y17653048D01*
X91682380Y17414953D01*
X91634761Y17319715D01*
X91587142Y17272096D01*
X90682380Y18462572D02*
X90682380Y18557810D01*
X90730000Y18653048D01*
X90777619Y18700667D01*
X90872857Y18748286D01*
X91063333Y18795905D01*
X91301428Y18795905D01*
X91491904Y18748286D01*
X91587142Y18700667D01*
X91634761Y18653048D01*
X91682380Y18557810D01*
X91682380Y18462572D01*
X91634761Y18367334D01*
X91587142Y18319715D01*
X91491904Y18272096D01*
X91301428Y18224477D01*
X91063333Y18224477D01*
X90872857Y18272096D01*
X90777619Y18319715D01*
X90730000Y18367334D01*
X90682380Y18462572D01*
X91015714Y19653048D02*
X91682380Y19653048D01*
X90634761Y19414953D02*
X91349047Y19176858D01*
X91349047Y19795905D01*
X57662380Y36076286D02*
X57662380Y36742953D01*
X58662380Y36314381D01*
X57995714Y37552477D02*
X58662380Y37552477D01*
X57614761Y37314381D02*
X58329047Y37076286D01*
X58329047Y37695334D01*
X58662380Y38076286D02*
X57662380Y38076286D01*
X58138571Y38076286D02*
X58138571Y38647715D01*
X58662380Y38647715D02*
X57662380Y38647715D01*
X58567142Y39695334D02*
X58614761Y39647715D01*
X58662380Y39504858D01*
X58662380Y39409620D01*
X58614761Y39266762D01*
X58519523Y39171524D01*
X58424285Y39123905D01*
X58233809Y39076286D01*
X58090952Y39076286D01*
X57900476Y39123905D01*
X57805238Y39171524D01*
X57710000Y39266762D01*
X57662380Y39409620D01*
X57662380Y39504858D01*
X57710000Y39647715D01*
X57757619Y39695334D01*
X58662380Y40647715D02*
X58662380Y40076286D01*
X58662380Y40362000D02*
X57662380Y40362000D01*
X57805238Y40266762D01*
X57900476Y40171524D01*
X57948095Y40076286D01*
X57995714Y41504858D02*
X58662380Y41504858D01*
X57614761Y41266762D02*
X58329047Y41028667D01*
X58329047Y41647715D01*
X38857619Y20819715D02*
X38857619Y20153048D01*
X37857619Y20581620D01*
X38524285Y19343524D02*
X37857619Y19343524D01*
X38905238Y19581620D02*
X38190952Y19819715D01*
X38190952Y19200667D01*
X37857619Y18819715D02*
X38857619Y18819715D01*
X38381428Y18819715D02*
X38381428Y18248286D01*
X37857619Y18248286D02*
X38857619Y18248286D01*
X37952857Y17200667D02*
X37905238Y17248286D01*
X37857619Y17391143D01*
X37857619Y17486381D01*
X37905238Y17629239D01*
X38000476Y17724477D01*
X38095714Y17772096D01*
X38286190Y17819715D01*
X38429047Y17819715D01*
X38619523Y17772096D01*
X38714761Y17724477D01*
X38810000Y17629239D01*
X38857619Y17486381D01*
X38857619Y17391143D01*
X38810000Y17248286D01*
X38762380Y17200667D01*
X37857619Y16248286D02*
X37857619Y16819715D01*
X37857619Y16534000D02*
X38857619Y16534000D01*
X38714761Y16629239D01*
X38619523Y16724477D01*
X38571904Y16819715D01*
X38524285Y15391143D02*
X37857619Y15391143D01*
X38905238Y15629239D02*
X38190952Y15867334D01*
X38190952Y15248286D01*
X91892380Y28249715D02*
X90892380Y28249715D01*
X90892380Y28630667D01*
X90940000Y28725905D01*
X90987619Y28773524D01*
X91082857Y28821143D01*
X91225714Y28821143D01*
X91320952Y28773524D01*
X91368571Y28725905D01*
X91416190Y28630667D01*
X91416190Y28249715D01*
X91892380Y29773524D02*
X91892380Y29202096D01*
X91892380Y29487810D02*
X90892380Y29487810D01*
X91035238Y29392572D01*
X91130476Y29297334D01*
X91178095Y29202096D01*
X90892380Y30392572D02*
X90892380Y30487810D01*
X90940000Y30583048D01*
X90987619Y30630667D01*
X91082857Y30678286D01*
X91273333Y30725905D01*
X91511428Y30725905D01*
X91701904Y30678286D01*
X91797142Y30630667D01*
X91844761Y30583048D01*
X91892380Y30487810D01*
X91892380Y30392572D01*
X91844761Y30297334D01*
X91797142Y30249715D01*
X91701904Y30202096D01*
X91511428Y30154477D01*
X91273333Y30154477D01*
X91082857Y30202096D01*
X90987619Y30249715D01*
X90940000Y30297334D01*
X90892380Y30392572D01*
X36345904Y5135620D02*
X36345904Y6135620D01*
X36726857Y6135620D01*
X36822095Y6088000D01*
X36869714Y6040381D01*
X36917333Y5945143D01*
X36917333Y5802286D01*
X36869714Y5707048D01*
X36822095Y5659429D01*
X36726857Y5611810D01*
X36345904Y5611810D01*
X37250666Y6135620D02*
X37917333Y6135620D01*
X37488761Y5135620D01*
X59205904Y4881620D02*
X59205904Y5881620D01*
X59586857Y5881620D01*
X59682095Y5834000D01*
X59729714Y5786381D01*
X59777333Y5691143D01*
X59777333Y5548286D01*
X59729714Y5453048D01*
X59682095Y5405429D01*
X59586857Y5357810D01*
X59205904Y5357810D01*
X60348761Y5453048D02*
X60253523Y5500667D01*
X60205904Y5548286D01*
X60158285Y5643524D01*
X60158285Y5691143D01*
X60205904Y5786381D01*
X60253523Y5834000D01*
X60348761Y5881620D01*
X60539238Y5881620D01*
X60634476Y5834000D01*
X60682095Y5786381D01*
X60729714Y5691143D01*
X60729714Y5643524D01*
X60682095Y5548286D01*
X60634476Y5500667D01*
X60539238Y5453048D01*
X60348761Y5453048D01*
X60253523Y5405429D01*
X60205904Y5357810D01*
X60158285Y5262572D01*
X60158285Y5072096D01*
X60205904Y4976858D01*
X60253523Y4929239D01*
X60348761Y4881620D01*
X60539238Y4881620D01*
X60634476Y4929239D01*
X60682095Y4976858D01*
X60729714Y5072096D01*
X60729714Y5262572D01*
X60682095Y5357810D01*
X60634476Y5405429D01*
X60539238Y5453048D01*
X82065904Y5135620D02*
X82065904Y6135620D01*
X82446857Y6135620D01*
X82542095Y6088000D01*
X82589714Y6040381D01*
X82637333Y5945143D01*
X82637333Y5802286D01*
X82589714Y5707048D01*
X82542095Y5659429D01*
X82446857Y5611810D01*
X82065904Y5611810D01*
X83113523Y5135620D02*
X83304000Y5135620D01*
X83399238Y5183239D01*
X83446857Y5230858D01*
X83542095Y5373715D01*
X83589714Y5564191D01*
X83589714Y5945143D01*
X83542095Y6040381D01*
X83494476Y6088000D01*
X83399238Y6135620D01*
X83208761Y6135620D01*
X83113523Y6088000D01*
X83065904Y6040381D01*
X83018285Y5945143D01*
X83018285Y5707048D01*
X83065904Y5611810D01*
X83113523Y5564191D01*
X83208761Y5516572D01*
X83399238Y5516572D01*
X83494476Y5564191D01*
X83542095Y5611810D01*
X83589714Y5707048D01*
X29265714Y47807620D02*
X29265714Y48807620D01*
X29646666Y48807620D01*
X29741904Y48760000D01*
X29789523Y48712381D01*
X29837142Y48617143D01*
X29837142Y48474286D01*
X29789523Y48379048D01*
X29741904Y48331429D01*
X29646666Y48283810D01*
X29265714Y48283810D01*
X30789523Y47807620D02*
X30218095Y47807620D01*
X30503809Y47807620D02*
X30503809Y48807620D01*
X30408571Y48664762D01*
X30313333Y48569524D01*
X30218095Y48521905D01*
X31741904Y47807620D02*
X31170476Y47807620D01*
X31456190Y47807620D02*
X31456190Y48807620D01*
X31360952Y48664762D01*
X31265714Y48569524D01*
X31170476Y48521905D01*
X76509714Y47807620D02*
X76509714Y48807620D01*
X76890666Y48807620D01*
X76985904Y48760000D01*
X77033523Y48712381D01*
X77081142Y48617143D01*
X77081142Y48474286D01*
X77033523Y48379048D01*
X76985904Y48331429D01*
X76890666Y48283810D01*
X76509714Y48283810D01*
X78033523Y47807620D02*
X77462095Y47807620D01*
X77747809Y47807620D02*
X77747809Y48807620D01*
X77652571Y48664762D01*
X77557333Y48569524D01*
X77462095Y48521905D01*
X78366857Y48807620D02*
X78985904Y48807620D01*
X78652571Y48426667D01*
X78795428Y48426667D01*
X78890666Y48379048D01*
X78938285Y48331429D01*
X78985904Y48236191D01*
X78985904Y47998096D01*
X78938285Y47902858D01*
X78890666Y47855239D01*
X78795428Y47807620D01*
X78509714Y47807620D01*
X78414476Y47855239D01*
X78366857Y47902858D01*
M02*
