G04 #@! TF.GenerationSoftware,KiCad,Pcbnew,5.1.5+dfsg1-2*
G04 #@! TF.CreationDate,2019-12-30T01:08:29+00:00*
G04 #@! TF.ProjectId,arduino_duo_shield,61726475-696e-46f5-9f64-756f5f736869,rev?*
G04 #@! TF.SameCoordinates,PX6258c20PY7445a00*
G04 #@! TF.FileFunction,Soldermask,Top*
G04 #@! TF.FilePolarity,Negative*
%FSLAX46Y46*%
G04 Gerber Fmt 4.6, Leading zero omitted, Abs format (unit mm)*
G04 Created by KiCad (PCBNEW 5.1.5+dfsg1-2) date 2019-12-30 01:08:29*
%MOMM*%
%LPD*%
G04 APERTURE LIST*
%ADD10C,1.800000*%
%ADD11R,1.800000X1.800000*%
%ADD12C,3.000000*%
%ADD13C,2.500000*%
%ADD14C,1.600000*%
%ADD15R,1.600000X1.600000*%
%ADD16O,1.600000X1.600000*%
%ADD17C,1.440000*%
%ADD18R,1.500000X1.050000*%
%ADD19O,1.500000X1.050000*%
%ADD20O,1.700000X1.700000*%
%ADD21R,1.700000X1.700000*%
%ADD22R,3.000000X3.000000*%
%ADD23O,1.800000X1.800000*%
%ADD24C,2.000000*%
%ADD25C,1.727200*%
%ADD26O,1.727200X1.727200*%
%ADD27O,1.727200X2.032000*%
G04 APERTURE END LIST*
D10*
X19812000Y82296000D03*
D11*
X19812000Y79756000D03*
D12*
X58928000Y63500000D03*
D13*
X60878000Y69450000D03*
D12*
X73128000Y69500000D03*
X73078000Y57450000D03*
D13*
X60878000Y57450000D03*
D14*
X39116000Y61524000D03*
D15*
X39116000Y65024000D03*
D16*
X14224000Y69596000D03*
X16764000Y61976000D03*
X16764000Y69596000D03*
D15*
X14224000Y61976000D03*
D16*
X3556000Y69596000D03*
X6096000Y61976000D03*
X6096000Y69596000D03*
D15*
X3556000Y61976000D03*
D16*
X24892000Y69596000D03*
X27432000Y61976000D03*
X27432000Y69596000D03*
D15*
X24892000Y61976000D03*
D17*
X84328000Y81280000D03*
X84328000Y83820000D03*
X84328000Y86360000D03*
D16*
X27940000Y32004000D03*
D14*
X27940000Y24384000D03*
D16*
X27940000Y42672000D03*
D14*
X27940000Y35052000D03*
D16*
X31496000Y32004000D03*
D14*
X31496000Y24384000D03*
D16*
X31496000Y42672000D03*
D14*
X31496000Y35052000D03*
D16*
X20828000Y61976000D03*
D14*
X20828000Y69596000D03*
D16*
X10160000Y61976000D03*
D14*
X10160000Y69596000D03*
D16*
X13716000Y58420000D03*
D14*
X21336000Y58420000D03*
D16*
X46736000Y70612000D03*
D14*
X46736000Y83312000D03*
D16*
X3048000Y58420000D03*
D14*
X10668000Y58420000D03*
D16*
X26924000Y82296000D03*
D14*
X26924000Y74676000D03*
D16*
X35052000Y32004000D03*
D14*
X35052000Y24384000D03*
D16*
X35052000Y42672000D03*
D14*
X35052000Y35052000D03*
D16*
X24384000Y58420000D03*
D14*
X32004000Y58420000D03*
D16*
X6604000Y32004000D03*
D14*
X6604000Y24384000D03*
D16*
X6604000Y42672000D03*
D14*
X6604000Y35052000D03*
D16*
X10160000Y32004000D03*
D14*
X10160000Y24384000D03*
D16*
X10160000Y42672000D03*
D14*
X10160000Y35052000D03*
D16*
X13716000Y32004000D03*
D14*
X13716000Y24384000D03*
D16*
X13716000Y42672000D03*
D14*
X13716000Y35052000D03*
D16*
X17272000Y32004000D03*
D14*
X17272000Y24384000D03*
D16*
X17272000Y42672000D03*
D14*
X17272000Y35052000D03*
D16*
X20828000Y32004000D03*
D14*
X20828000Y24384000D03*
D16*
X20828000Y42672000D03*
D14*
X20828000Y35052000D03*
D16*
X24384000Y32004000D03*
D14*
X24384000Y24384000D03*
D16*
X24384000Y42672000D03*
D14*
X24384000Y35052000D03*
D18*
X53848000Y56896000D03*
D19*
X53848000Y59436000D03*
X53848000Y58166000D03*
D18*
X53848000Y74676000D03*
D19*
X53848000Y77216000D03*
X53848000Y75946000D03*
D18*
X35560000Y80264000D03*
D19*
X35560000Y82804000D03*
X35560000Y81534000D03*
D18*
X35560000Y71628000D03*
D19*
X35560000Y74168000D03*
X35560000Y72898000D03*
D16*
X46736000Y56388000D03*
D14*
X46736000Y66548000D03*
D12*
X58928000Y81280000D03*
D13*
X60878000Y87230000D03*
D12*
X73128000Y87280000D03*
X73078000Y75230000D03*
D13*
X60878000Y75230000D03*
D20*
X80772000Y70612000D03*
D21*
X80772000Y73152000D03*
D20*
X85344000Y70612000D03*
D21*
X85344000Y73152000D03*
D20*
X90932000Y-17780000D03*
X90932000Y-20320000D03*
X88392000Y-17780000D03*
X88392000Y-20320000D03*
X85852000Y-17780000D03*
X85852000Y-20320000D03*
X83312000Y-17780000D03*
X83312000Y-20320000D03*
X80772000Y-17780000D03*
X80772000Y-20320000D03*
X78232000Y-17780000D03*
X78232000Y-20320000D03*
X75692000Y-17780000D03*
X75692000Y-20320000D03*
X73152000Y-17780000D03*
X73152000Y-20320000D03*
X70612000Y-17780000D03*
X70612000Y-20320000D03*
X68072000Y-17780000D03*
X68072000Y-20320000D03*
X65532000Y-17780000D03*
X65532000Y-20320000D03*
X62992000Y-17780000D03*
D21*
X62992000Y-20320000D03*
D12*
X95504000Y63500000D03*
D22*
X95504000Y58420000D03*
D12*
X95504000Y75184000D03*
D22*
X95504000Y70104000D03*
D12*
X95504000Y86868000D03*
D22*
X95504000Y81788000D03*
D20*
X26924000Y-17780000D03*
X26924000Y-20320000D03*
X24384000Y-17780000D03*
X24384000Y-20320000D03*
X21844000Y-17780000D03*
X21844000Y-20320000D03*
X19304000Y-17780000D03*
X19304000Y-20320000D03*
X16764000Y-17780000D03*
X16764000Y-20320000D03*
X14224000Y-17780000D03*
X14224000Y-20320000D03*
X11684000Y-17780000D03*
X11684000Y-20320000D03*
X9144000Y-17780000D03*
X9144000Y-20320000D03*
X6604000Y-17780000D03*
D21*
X6604000Y-20320000D03*
D12*
X41148000Y-18796000D03*
D22*
X36068000Y-18796000D03*
D23*
X88392000Y56896000D03*
D11*
X88392000Y64516000D03*
D23*
X52324000Y62992000D03*
D11*
X52324000Y70612000D03*
D23*
X52324000Y80772000D03*
D11*
X52324000Y88392000D03*
D14*
X27940000Y19264000D03*
X27940000Y16764000D03*
X31496000Y19264000D03*
X31496000Y16764000D03*
X35052000Y19264000D03*
X35052000Y16764000D03*
X6604000Y19264000D03*
X6604000Y16764000D03*
X10160000Y19264000D03*
X10160000Y16764000D03*
X13716000Y19264000D03*
X13716000Y16764000D03*
X17272000Y19264000D03*
X17272000Y16764000D03*
X20828000Y19264000D03*
X20828000Y16764000D03*
X24384000Y19264000D03*
X24384000Y16764000D03*
D24*
X16360000Y2540000D03*
X16360000Y7040000D03*
X22860000Y2540000D03*
X22860000Y7040000D03*
D16*
X60960000Y37084000D03*
X78740000Y29464000D03*
X63500000Y37084000D03*
X76200000Y29464000D03*
X66040000Y37084000D03*
X73660000Y29464000D03*
X68580000Y37084000D03*
X71120000Y29464000D03*
X71120000Y37084000D03*
X68580000Y29464000D03*
X73660000Y37084000D03*
X66040000Y29464000D03*
X76200000Y37084000D03*
X63500000Y29464000D03*
X78740000Y37084000D03*
D15*
X60960000Y29464000D03*
D16*
X71120000Y21844000D03*
X88900000Y14224000D03*
X73660000Y21844000D03*
X86360000Y14224000D03*
X76200000Y21844000D03*
X83820000Y14224000D03*
X78740000Y21844000D03*
X81280000Y14224000D03*
X81280000Y21844000D03*
X78740000Y14224000D03*
X83820000Y21844000D03*
X76200000Y14224000D03*
X86360000Y21844000D03*
X73660000Y14224000D03*
X88900000Y21844000D03*
D15*
X71120000Y14224000D03*
D16*
X40640000Y42672000D03*
X55880000Y35052000D03*
X43180000Y42672000D03*
X53340000Y35052000D03*
X45720000Y42672000D03*
X50800000Y35052000D03*
X48260000Y42672000D03*
X48260000Y35052000D03*
X50800000Y42672000D03*
X45720000Y35052000D03*
X53340000Y42672000D03*
X43180000Y35052000D03*
X55880000Y42672000D03*
D15*
X40640000Y35052000D03*
D16*
X55880000Y14224000D03*
X40640000Y21844000D03*
X53340000Y14224000D03*
X43180000Y21844000D03*
X50800000Y14224000D03*
X45720000Y21844000D03*
X48260000Y14224000D03*
X48260000Y21844000D03*
X45720000Y14224000D03*
X50800000Y21844000D03*
X43180000Y14224000D03*
X53340000Y21844000D03*
X40640000Y14224000D03*
D15*
X55880000Y21844000D03*
D20*
X90932000Y-5080000D03*
X90932000Y-7620000D03*
X88392000Y-5080000D03*
X88392000Y-7620000D03*
X85852000Y-5080000D03*
X85852000Y-7620000D03*
X83312000Y-5080000D03*
X83312000Y-7620000D03*
X80772000Y-5080000D03*
X80772000Y-7620000D03*
X78232000Y-5080000D03*
X78232000Y-7620000D03*
X75692000Y-5080000D03*
X75692000Y-7620000D03*
X73152000Y-5080000D03*
X73152000Y-7620000D03*
X70612000Y-5080000D03*
X70612000Y-7620000D03*
X68072000Y-5080000D03*
X68072000Y-7620000D03*
X65532000Y-5080000D03*
X65532000Y-7620000D03*
X62992000Y-5080000D03*
D21*
X62992000Y-7620000D03*
D25*
X94234000Y7874000D03*
D26*
X96774000Y7874000D03*
X94234000Y10414000D03*
X96774000Y10414000D03*
X94234000Y12954000D03*
X96774000Y12954000D03*
X94234000Y15494000D03*
X96774000Y15494000D03*
X94234000Y18034000D03*
X96774000Y18034000D03*
X94234000Y20574000D03*
X96774000Y20574000D03*
X94234000Y23114000D03*
X96774000Y23114000D03*
X94234000Y25654000D03*
X96774000Y25654000D03*
X94234000Y28194000D03*
X96774000Y28194000D03*
X94234000Y30734000D03*
X96774000Y30734000D03*
X94234000Y33274000D03*
X96774000Y33274000D03*
X94234000Y35814000D03*
X96774000Y35814000D03*
X94234000Y38354000D03*
X96774000Y38354000D03*
X94234000Y40894000D03*
X96774000Y40894000D03*
X94234000Y43434000D03*
X96774000Y43434000D03*
X94234000Y45974000D03*
X96774000Y45974000D03*
X94234000Y48514000D03*
X96774000Y48514000D03*
X94234000Y51054000D03*
X96774000Y51054000D03*
D27*
X28194000Y2794000D03*
X30734000Y2794000D03*
X33274000Y2794000D03*
X35814000Y2794000D03*
X38354000Y2794000D03*
X40894000Y2794000D03*
X43434000Y2794000D03*
X45974000Y2794000D03*
X51054000Y2794000D03*
X53594000Y2794000D03*
X56134000Y2794000D03*
X58674000Y2794000D03*
X61214000Y2794000D03*
X63754000Y2794000D03*
X66294000Y2794000D03*
X68834000Y2794000D03*
X73914000Y2794000D03*
X76454000Y2794000D03*
X78994000Y2794000D03*
X81534000Y2794000D03*
X84074000Y2794000D03*
X86614000Y2794000D03*
X89154000Y2794000D03*
X91694000Y2794000D03*
X19050000Y51054000D03*
X21590000Y51054000D03*
X24130000Y51054000D03*
X26670000Y51054000D03*
X29210000Y51054000D03*
X31750000Y51054000D03*
X34290000Y51054000D03*
X36830000Y51054000D03*
X39370000Y51054000D03*
X41910000Y51054000D03*
X45974000Y51054000D03*
X48514000Y51054000D03*
X51054000Y51054000D03*
X53594000Y51054000D03*
X56134000Y51054000D03*
X58674000Y51054000D03*
X61214000Y51054000D03*
X63754000Y51054000D03*
X68834000Y51054000D03*
X71374000Y51054000D03*
X73914000Y51054000D03*
X76454000Y51054000D03*
X78994000Y51054000D03*
X81534000Y51054000D03*
X84074000Y51054000D03*
X86614000Y51054000D03*
M02*
