M48
; DRILL file {KiCad 5.1.5+dfsg1-2} date Thu Feb  6 21:54:17 2020
; FORMAT={-:-/ absolute / metric / decimal}
; #@! TF.CreationDate,2020-02-06T21:54:17+00:00
; #@! TF.GenerationSoftware,Kicad,Pcbnew,5.1.5+dfsg1-2
FMAT,2
METRIC
T1C0.400
T2C0.800
T3C0.900
T4C1.000
T5C1.016
T6C1.100
T7C1.300
T8C1.520
%
G90
G05
T1
X65.024Y14.224
X68.08Y31.496
X71.628Y39.741
X77.325Y26.017
X91.44Y41.656
X91.44Y19.304
T2
X31.496Y26.924
X31.496Y19.304
X40.64Y42.672
X40.64Y35.052
X43.18Y42.672
X43.18Y35.052
X45.72Y42.672
X45.72Y35.052
X48.26Y42.672
X48.26Y35.052
X50.8Y42.672
X50.8Y35.052
X53.34Y42.672
X53.34Y35.052
X55.88Y42.672
X55.88Y35.052
X3.556Y69.596
X3.556Y61.976
X6.096Y69.596
X6.096Y61.976
X27.94Y37.084
X27.94Y29.464
X6.604Y16.724
X6.604Y14.224
X33.02Y84.328
X35.56Y86.868
X35.56Y81.788
X24.384Y37.084
X24.384Y29.464
X22.86Y47.752
X22.86Y40.132
X13.716Y37.084
X13.716Y29.464
X20.828Y26.924
X20.828Y19.304
X35.052Y16.724
X35.052Y14.224
X24.384Y16.724
X24.384Y14.224
X20.828Y37.084
X20.828Y29.464
X10.16Y26.924
X10.16Y19.304
X17.272Y26.924
X17.272Y19.304
X13.716Y16.724
X13.716Y14.224
X24.384Y26.924
X24.384Y19.304
X24.892Y69.596
X24.892Y61.976
X27.432Y69.596
X27.432Y61.976
X20.828Y16.724
X20.828Y14.224
X40.64Y21.844
X40.64Y14.224
X43.18Y21.844
X43.18Y14.224
X45.72Y21.844
X45.72Y14.224
X48.26Y21.844
X48.26Y14.224
X50.8Y21.844
X50.8Y14.224
X53.34Y21.844
X53.34Y14.224
X55.88Y21.844
X55.88Y14.224
X13.716Y58.42
X21.336Y58.42
X20.828Y69.596
X20.828Y61.976
X17.272Y37.084
X17.272Y29.464
X3.048Y58.42
X10.668Y58.42
X31.496Y16.724
X31.496Y14.224
X38.664Y58.42
X42.164Y58.42
X26.924Y82.296
X26.924Y74.676
X33.02Y74.168
X35.56Y76.708
X35.56Y71.628
X10.16Y37.084
X10.16Y29.464
X6.604Y37.084
X6.604Y29.464
X17.272Y16.724
X17.272Y14.224
X27.94Y16.724
X27.94Y14.224
X46.736Y66.548
X46.736Y56.388
X46.736Y83.312
X46.736Y70.612
X35.052Y37.084
X35.052Y29.464
X51.816Y57.912
X54.356Y60.452
X54.356Y55.372
X24.384Y58.42
X32.004Y58.42
X18.796Y47.752
X18.796Y40.132
X35.052Y26.924
X35.052Y19.304
X80.772Y81.788
X80.772Y79.248
X80.772Y76.708
X80.772Y74.168
X88.392Y81.788
X88.392Y79.248
X88.392Y76.708
X88.392Y74.168
X60.96Y37.084
X60.96Y29.464
X63.5Y37.084
X63.5Y29.464
X66.04Y37.084
X66.04Y29.464
X68.58Y37.084
X68.58Y29.464
X71.12Y37.084
X71.12Y29.464
X73.66Y37.084
X73.66Y29.464
X76.2Y37.084
X76.2Y29.464
X78.74Y37.084
X78.74Y29.464
X14.224Y69.596
X14.224Y61.976
X16.764Y69.596
X16.764Y61.976
X10.16Y16.724
X10.16Y14.224
X13.716Y26.924
X13.716Y19.304
X31.496Y37.084
X31.496Y29.464
X51.816Y76.2
X54.356Y78.74
X54.356Y73.66
X71.12Y21.844
X71.12Y14.224
X73.66Y21.844
X73.66Y14.224
X76.2Y21.844
X76.2Y14.224
X78.74Y21.844
X78.74Y14.224
X81.28Y21.844
X81.28Y14.224
X83.82Y21.844
X83.82Y14.224
X86.36Y21.844
X86.36Y14.224
X88.9Y21.844
X88.9Y14.224
X6.604Y26.924
X6.604Y19.304
X10.16Y69.596
X10.16Y61.976
X81.788Y86.868
X84.328Y86.868
X86.868Y86.868
X27.94Y26.924
X27.94Y19.304
X7.112Y48.26
X7.112Y40.64
X9.652Y48.26
X9.652Y40.64
X12.192Y48.26
X12.192Y40.64
X14.732Y48.26
X14.732Y40.64
T3
X52.324Y70.612
X52.324Y62.992
X88.392Y64.516
X88.392Y56.896
X48.26Y87.376
X55.88Y87.376
X7.112Y88.392
X7.112Y85.852
T4
X6.604Y-17.78
X6.604Y-20.32
X9.144Y-17.78
X9.144Y-20.32
X11.684Y-17.78
X11.684Y-20.32
X14.224Y-17.78
X14.224Y-20.32
X16.764Y-17.78
X16.764Y-20.32
X19.304Y-17.78
X19.304Y-20.32
X21.844Y-17.78
X21.844Y-20.32
X24.384Y-17.78
X24.384Y-20.32
X26.924Y-17.78
X26.924Y-20.32
X60.878Y87.23
X60.878Y75.23
X85.852Y68.58
X88.392Y68.58
X62.992Y-5.08
X62.992Y-7.62
X65.532Y-5.08
X65.532Y-7.62
X68.072Y-5.08
X68.072Y-7.62
X70.612Y-5.08
X70.612Y-7.62
X73.152Y-5.08
X73.152Y-7.62
X75.692Y-5.08
X75.692Y-7.62
X78.232Y-5.08
X78.232Y-7.62
X80.772Y-5.08
X80.772Y-7.62
X83.312Y-5.08
X83.312Y-7.62
X85.852Y-5.08
X85.852Y-7.62
X88.392Y-5.08
X88.392Y-7.62
X90.932Y-5.08
X90.932Y-7.62
X80.772Y59.944
X80.772Y57.404
X62.992Y-17.78
X62.992Y-20.32
X65.532Y-17.78
X65.532Y-20.32
X68.072Y-17.78
X68.072Y-20.32
X70.612Y-17.78
X70.612Y-20.32
X73.152Y-17.78
X73.152Y-20.32
X75.692Y-17.78
X75.692Y-20.32
X78.232Y-17.78
X78.232Y-20.32
X80.772Y-17.78
X80.772Y-20.32
X83.312Y-17.78
X83.312Y-20.32
X85.852Y-17.78
X85.852Y-20.32
X88.392Y-17.78
X88.392Y-20.32
X90.932Y-17.78
X90.932Y-20.32
X80.772Y68.58
X80.772Y66.04
X60.878Y69.45
X60.878Y57.45
X41.148Y-9.144
X41.148Y-11.684
X36.068Y-9.144
X36.068Y-11.684
X41.148Y74.168
X41.148Y71.628
T5
X45.974Y51.054
X48.514Y51.054
X51.054Y51.054
X53.594Y51.054
X56.134Y51.054
X58.674Y51.054
X61.214Y51.054
X63.754Y51.054
X68.834Y51.054
X71.374Y51.054
X73.914Y51.054
X76.454Y51.054
X78.994Y51.054
X81.534Y51.054
X84.074Y51.054
X86.614Y51.054
X19.05Y51.054
X21.59Y51.054
X24.13Y51.054
X26.67Y51.054
X29.21Y51.054
X31.75Y51.054
X34.29Y51.054
X36.83Y51.054
X39.37Y51.054
X41.91Y51.054
X28.194Y2.794
X30.734Y2.794
X33.274Y2.794
X35.814Y2.794
X38.354Y2.794
X40.894Y2.794
X43.434Y2.794
X45.974Y2.794
X73.914Y2.794
X76.454Y2.794
X78.994Y2.794
X81.534Y2.794
X84.074Y2.794
X86.614Y2.794
X89.154Y2.794
X91.694Y2.794
X51.054Y2.794
X53.594Y2.794
X56.134Y2.794
X58.674Y2.794
X61.214Y2.794
X63.754Y2.794
X66.294Y2.794
X68.834Y2.794
X94.234Y51.054
X94.234Y48.514
X94.234Y45.974
X94.234Y43.434
X94.234Y40.894
X94.234Y38.354
X94.234Y35.814
X94.234Y33.274
X94.234Y30.734
X94.234Y28.194
X94.234Y25.654
X94.234Y23.114
X94.234Y20.574
X94.234Y18.034
X94.234Y15.494
X94.234Y12.954
X94.234Y10.414
X94.234Y7.874
X96.774Y51.054
X96.774Y48.514
X96.774Y45.974
X96.774Y43.434
X96.774Y40.894
X96.774Y38.354
X96.774Y35.814
X96.774Y33.274
X96.774Y30.734
X96.774Y28.194
X96.774Y25.654
X96.774Y23.114
X96.774Y20.574
X96.774Y18.034
X96.774Y15.494
X96.774Y12.954
X96.774Y10.414
X96.774Y7.874
T6
X16.36Y7.04
X16.36Y2.54
X22.86Y7.04
X22.86Y2.54
T7
X58.928Y63.5
X73.078Y57.45
X73.128Y69.5
X58.928Y81.28
X73.078Y75.23
X73.128Y87.28
T8
X95.504Y86.868
X95.504Y81.788
X36.068Y-18.796
X41.148Y-18.796
X95.504Y63.5
X95.504Y58.42
X95.504Y75.184
X95.504Y70.104
T0
M30
